<?xml version="1.0" standalone="no"?>
<!DOCTYPE svg PUBLIC "-//W3C//DTD SVG 20010904//EN"
 "http://www.w3.org/TR/2001/REC-SVG-20010904/DTD/svg10.dtd">
<svg version="1.0" xmlns="http://www.w3.org/2000/svg"
 width="500.000000pt" height="500.000000pt" viewBox="0 0 500.000000 500.000000"
 preserveAspectRatio="xMidYMid meet">

<g transform="translate(0.000000,500.000000) scale(0.100000,-0.100000)"
fill="#000000" stroke="none">
<path d="M1612 3060 c-81 -21 -148 -55 -158 -79 -3 -9 -9 -79 -11 -156 -8
-209 19 -345 68 -345 29 0 49 56 49 139 l0 69 48 18 c54 21 122 78 122 103 0
42 -60 54 -127 26 -46 -19 -43 -20 -43 19 0 32 4 36 54 59 107 49 167 130 117
157 -25 13 -32 13 -119 -10z"/>
<path d="M2038 3047 c-114 -40 -108 -24 -108 -291 0 -200 2 -236 18 -266 37
-75 102 -23 102 82 0 37 5 50 22 62 12 9 28 16 34 16 7 0 26 -35 44 -79 38
-94 62 -125 93 -115 12 4 26 12 30 18 16 23 -1 122 -31 183 l-31 60 24 23 c81
76 86 216 10 290 -46 45 -112 50 -207 17z m120 -159 c2 -15 -2 -36 -8 -48 -11
-20 -66 -60 -82 -60 -5 0 -8 29 -8 64 0 71 4 76 60 73 30 -2 35 -6 38 -29z"/>
<path d="M2525 2945 c-14 -13 -25 -29 -25 -35 0 -16 21 -53 34 -62 6 -4 270
-8 587 -8 545 0 577 1 592 18 25 27 22 78 -5 96 -20 14 -93 16 -591 16 l-568
0 -24 -25z"/>
<path d="M2830 2689 c-162 -30 -190 -52 -211 -168 -12 -69 -8 -342 5 -373 4
-9 27 -26 50 -37 35 -18 47 -19 81 -10 49 14 147 63 169 84 22 22 20 58 -4 80
-22 20 -10 21 -162 -22 -15 -4 -18 1 -18 33 0 38 2 40 48 56 85 31 112 53 112
93 0 29 -4 36 -27 41 -25 7 -72 -2 -115 -21 -15 -6 -18 -2 -18 21 0 41 7 48
90 86 106 49 130 79 98 120 -18 22 -45 27 -98 17z"/>
<path d="M3251 2662 c-71 -28 -79 -47 -92 -212 -11 -156 -6 -264 17 -318 14
-34 15 -34 61 -28 76 11 166 60 218 119 119 136 120 347 3 425 -52 34 -142 40
-207 14z m143 -163 c17 -20 26 -43 26 -65 0 -70 -72 -174 -121 -174 -18 0 -19
8 -19 109 0 138 8 161 54 161 26 0 40 -7 60 -31z"/>
<path d="M1300 2177 c-28 -14 -38 -63 -20 -97 11 -20 16 -20 593 -20 320 0
587 4 593 8 42 27 35 95 -11 112 -42 16 -1124 13 -1155 -3z"/>
</g>
</svg>
