<?xml version="1.0" encoding="UTF-8"?>
<svg version="1.1" xmlns="http://www.w3.org/2000/svg" width="500" height="500">
<path d="M0 0 C4.49550946 3.34959529 7.09819799 6.87758797 8.1875 12.375 C9.08780406 21.05334076 7.09727253 26.4953033 1.9375 33.375 C1.36 34.035 0.7825 34.695 0.1875 35.375 C0.53683594 36.06207031 0.88617188 36.74914062 1.24609375 37.45703125 C1.92865234 38.80861328 1.92865234 38.80861328 2.625 40.1875 C3.07746094 41.08082031 3.52992188 41.97414062 3.99609375 42.89453125 C5.8149936 46.6814211 6.39356555 49.70725104 6.5 53.875 C6.55607422 55.31359375 6.55607422 55.31359375 6.61328125 56.78125 C6.1875 59.375 6.1875 59.375 4.3203125 61.2109375 C2.1875 62.375 2.1875 62.375 -0.25 62.5 C-5.08612531 60.37682303 -7.08506278 56.13454781 -9.015625 51.46484375 C-9.99871861 48.7821059 -10.93265936 46.09316688 -11.8125 43.375 C-13.7925 43.87 -13.7925 43.87 -15.8125 44.375 C-15.93367187 45.26703125 -16.05484375 46.1590625 -16.1796875 47.078125 C-16.43105469 48.83382812 -16.43105469 48.83382812 -16.6875 50.625 C-16.84992188 51.78515625 -17.01234375 52.9453125 -17.1796875 54.140625 C-17.73607651 56.98439106 -18.19938007 58.9894001 -19.8125 61.375 C-22.6875 62.375 -22.6875 62.375 -25.8125 62.375 C-29.00246233 60.04718965 -30.09622118 58.17108105 -30.8125 54.375 C-30.91546745 52.80891255 -30.97052284 51.23927588 -30.98950195 49.66992188 C-31.00233719 48.74215942 -31.01517242 47.81439697 -31.02839661 46.85852051 C-31.03578354 45.86364624 -31.04317047 44.86877197 -31.05078125 43.84375 C-31.058853 42.81568237 -31.06692474 41.78761475 -31.07524109 40.72839355 C-31.08905757 38.55641354 -31.09979059 36.38441203 -31.10766602 34.21240234 C-31.12493621 30.88728148 -31.16885113 27.56314048 -31.21289062 24.23828125 C-31.22301305 22.12761147 -31.23153055 20.01693326 -31.23828125 17.90625 C-31.25578934 16.91137573 -31.27329742 15.91650146 -31.29133606 14.89147949 C-31.26961913 8.00455849 -31.26961913 8.00455849 -28.93823242 4.79370117 C-26.61626324 3.24403275 -24.42825529 2.1644208 -21.8125 1.1875 C-20.966875 0.86394531 -20.12125 0.54039062 -19.25 0.20703125 C-12.91508359 -1.9553681 -6.19416271 -3.21722675 0 0 Z M-11.8125 14.375 C-14.56082154 15.65684562 -14.56082154 15.65684562 -16.8125 17.375 C-16.4825 20.675 -16.1525 23.975 -15.8125 27.375 C-11.10407376 25.26173474 -11.10407376 25.26173474 -7.8125 21.375 C-7.64536431 18.74968476 -7.64536431 18.74968476 -7.8125 16.375 C-9.50962207 15.06640351 -9.50962207 15.06640351 -11.8125 14.375 Z " fill="#8B53F8" transform="translate(222.8125,193.625)"/>
<path d="M0 0 C1.4510186 -0.01052147 1.4510186 -0.01052147 2.93135071 -0.02125549 C3.98602036 -0.01361176 5.04069 -0.00596802 6.12731934 0.00190735 C7.24313889 -0.00174332 8.35895844 -0.00539398 9.5085907 -0.00915527 C13.20131595 -0.01726903 16.89360355 -0.00364329 20.58630371 0.01094055 C23.14933268 0.01145906 25.71236205 0.01094173 28.27539062 0.00942993 C33.64878749 0.00951969 39.02202371 0.01961899 44.39538574 0.03804016 C50.60522469 0.05920726 56.8148787 0.06271745 63.02474642 0.0564782 C69.00164894 0.05078076 74.97846938 0.05653933 80.95536804 0.06765175 C83.4975305 0.0715057 86.03969852 0.07265116 88.5818634 0.0710659 C92.13228002 0.07069577 95.68241387 0.08330136 99.23278809 0.0995636 C100.28745773 0.09708618 101.34212738 0.09460876 102.42875671 0.09205627 C103.39610245 0.09914108 104.36344818 0.10622589 105.36010742 0.11352539 C106.19927452 0.11557826 107.03844162 0.11763113 107.90303802 0.11974621 C110.42825202 0.40196004 112.03601467 1.02455228 114.18005371 2.3742218 C115.72592247 5.46595932 115.47364892 7.96851733 115.18005371 11.3742218 C113.85620117 13.56744385 113.85620117 13.56744385 111.18005371 15.3742218 C107.47560366 15.98857275 103.79696281 15.93045474 100.04919434 15.90766907 C98.91386765 15.91628464 97.77854095 15.92490021 96.60881042 15.93377686 C92.85107716 15.95650403 89.0940855 15.9496854 85.33630371 15.94062805 C82.72843198 15.9458604 80.12056214 15.95213544 77.51269531 15.95941162 C72.04513183 15.97126012 66.57778025 15.96556413 61.11022949 15.95063782 C54.79112417 15.93370983 48.4727093 15.94955993 42.15367937 15.9818607 C36.07206912 16.01176932 29.99077502 16.01374318 23.90910339 16.00436211 C21.32227175 16.00354047 18.73542593 16.01044409 16.14863586 16.02513313 C12.53554576 16.04250439 8.92394265 16.02809614 5.31091309 16.00532532 C3.7008564 16.02286362 3.7008564 16.02286362 2.05827332 16.04075623 C-5.15113207 15.94806171 -5.15113207 15.94806171 -8.515625 13.06134033 C-10.30851486 9.36768938 -9.97456189 7.27104945 -8.81994629 3.3742218 C-5.94022523 0.61501097 -3.93972646 -0.00078752 0 0 Z " fill="#8A53FB" transform="translate(258.8199462890625,201.6257781982422)"/>
<path d="M0 0 C1.10460571 -0.00700928 2.20921143 -0.01401855 3.34729004 -0.02124023 C6.99740765 -0.03884062 10.64674954 -0.02718943 14.296875 -0.01367188 C16.83366037 -0.01636618 19.37044473 -0.02024808 21.90722656 -0.02526855 C27.22341702 -0.03116642 32.53932964 -0.02297289 37.85546875 -0.00390625 C43.99556943 0.01786172 50.13513878 0.01080991 56.27522659 -0.01121187 C62.18967347 -0.03157272 68.10395571 -0.0293901 74.01843262 -0.01768494 C76.53186111 -0.01501544 79.04530315 -0.0182952 81.55871582 -0.02760315 C85.07075996 -0.03775483 88.58178204 -0.0222852 92.09375 0 C93.65397888 -0.01214539 93.65397888 -0.01214539 95.24572754 -0.02453613 C99.65858608 0.02737331 102.30926624 0.07970243 106.16113281 2.36633301 C108.63111097 5.18407156 109.19998499 6.76638345 109.046875 10.51757812 C107.01029713 13.50859905 105.35955319 15.25514249 101.72839165 15.98109818 C98.74280944 16.17079077 95.79407317 16.19285416 92.80249023 16.16455078 C91.66701752 16.17331238 90.5315448 16.18207397 89.36166382 16.19110107 C85.60920988 16.21310403 81.85793461 16.19853853 78.10546875 16.18164062 C75.49902622 16.18500822 72.89258522 16.18986037 70.28614807 16.19613647 C64.82450588 16.20522484 59.36320211 16.19326562 53.90161133 16.16943359 C47.58984933 16.14220962 41.27889458 16.15104792 34.96715206 16.17856562 C28.89032126 16.20399711 22.81384804 16.20129664 16.73698616 16.18665695 C14.15295359 16.18331745 11.56890047 16.18742902 8.98489189 16.19905472 C5.37665764 16.2117266 1.76998304 16.19243497 -1.83813477 16.16455078 C-2.90993484 16.17467194 -3.98173492 16.18479309 -5.08601379 16.19522095 C-12.29537454 16.09178891 -12.29537454 16.09178891 -15.64390564 13.16854858 C-16.953125 10.51757812 -16.953125 10.51757812 -17.015625 7.45507812 C-14.08454345 -0.64850029 -7.39898189 -0.05759635 0 0 Z " fill="#8B52FC" transform="translate(141.953125,279.482421875)"/>
<path d="M0 0 C5.6178709 3.37495446 9.69017682 7.68183646 11.57421875 14.05859375 C13.62738669 23.71826007 11.86377398 32.99215057 7.18359375 41.63671875 C1.47557965 50.2264487 -5.76191754 55.59670149 -15.61328125 58.30859375 C-21.52922953 59.47238685 -21.52922953 59.47238685 -24.42578125 59.05859375 C-27.63698649 56.65821783 -28.04032959 54.30224169 -28.61328125 50.43359375 C-29.69777192 42.29087627 -29.6741385 34.25073063 -29.42578125 26.05859375 C-29.40644531 25.32543945 -29.38710938 24.59228516 -29.3671875 23.83691406 C-29.30232736 21.68031449 -29.21317962 19.52633186 -29.11328125 17.37109375 C-29.05527344 16.10910156 -28.99726563 14.84710938 -28.9375 13.546875 C-28.38286052 9.76601198 -27.47112821 7.2787281 -25.42578125 4.05859375 C-23.48828125 2.6328125 -23.48828125 2.6328125 -21.42578125 1.74609375 C-20.74515625 1.44058594 -20.06453125 1.13507813 -19.36328125 0.8203125 C-13.25984685 -1.5792232 -6.24398986 -2.42319091 0 0 Z M-14.42578125 19.05859375 C-14.7012197 21.47904813 -14.7012197 21.47904813 -14.62109375 24.1640625 C-14.61464844 25.14697266 -14.60820312 26.12988281 -14.6015625 27.14257812 C-14.58480469 28.16673828 -14.56804687 29.19089844 -14.55078125 30.24609375 C-14.54175781 31.28185547 -14.53273438 32.31761719 -14.5234375 33.38476562 C-14.49985985 35.9429406 -14.46695155 38.50065123 -14.42578125 41.05859375 C-8.87908986 39.10749627 -6.44642212 35.94522357 -3.11328125 31.18359375 C-2.01125228 27.77732239 -1.74791906 24.55165913 -2.42578125 21.05859375 C-4.78554503 17.82234628 -6.14073219 16.29767264 -10.11328125 15.55859375 C-12.79440314 15.85749257 -12.79440314 15.85749257 -14.42578125 19.05859375 Z " fill="#8A52F9" transform="translate(343.42578125,231.94140625)"/>
<path d="M0 0 C1.6875 2.375 1.6875 2.375 2.25 5.375 C1.49181 9.41868001 0.03004101 10.04819769 -3.3125 12.375 C-6.34482416 13.91137758 -9.38614173 15.35349704 -12.4921875 16.73046875 C-16.14416022 18.35784521 -16.14416022 18.35784521 -18.234375 21.59375 C-18.26015625 22.1815625 -18.2859375 22.769375 -18.3125 23.375 C-17.64863281 23.13523438 -16.98476563 22.89546875 -16.30078125 22.6484375 C-9.01645074 20.2026039 -9.01645074 20.2026039 -5.25 21.125 C-3.3125 22.375 -3.3125 22.375 -2.3125 23.375 C-1.9375 26.6875 -1.9375 26.6875 -2.3125 30.375 C-6.26800431 35.01248781 -12.80481766 37.02145448 -18.3125 39.375 C-17.9825 40.695 -17.6525 42.015 -17.3125 43.375 C-16.58804687 43.14683594 -15.86359375 42.91867187 -15.1171875 42.68359375 C-5.02573644 39.68306897 -5.02573644 39.68306897 -0.3125 41.375 C2.01793558 44.87065336 2.27513244 46.2615729 1.6875 50.375 C-2.76568399 55.27350239 -11.73262977 59.92902013 -18.3984375 60.578125 C-23.24558078 60.67738391 -26.35416485 60.4936883 -30.3125 57.375 C-35.75273889 51.93476111 -34.58850954 38.82968867 -34.6875 31.375 C-34.66995123 22.10310591 -34.41990533 11.67273353 -27.69921875 4.640625 C-24.04614277 1.85618667 -20.18937436 0.95812924 -15.75 0.0625 C-15.00814453 -0.10572266 -14.26628906 -0.27394531 -13.50195312 -0.44726562 C-3.68448734 -2.58909921 -3.68448734 -2.58909921 0 0 Z " fill="#8B53F7" transform="translate(293.3125,230.625)"/>
<path d="M0 0 C2 2 2 2 2.4375 4.75 C1.85372299 9.08662921 0.34070173 11.33405387 -3 14 C-6.37062693 15.89365699 -9.74533941 17.6227742 -13.234375 19.2890625 C-16.13531734 20.70624855 -16.13531734 20.70624855 -16.890625 23.2109375 C-16.92671875 23.80132812 -16.9628125 24.39171875 -17 25 C-16.195625 24.67 -15.39125 24.34 -14.5625 24 C-10.40893632 22.83408739 -6.28585607 22.20283077 -2 23 C0 26 0 26 0 28.875 C-1.30513607 32.95355021 -3.46256861 34.82367904 -7 37 C-9.9480964 38.4740482 -12.93792654 39.78197522 -16 41 C-16.03738281 42.02480469 -16.07476562 43.04960937 -16.11328125 44.10546875 C-16.17897079 45.46618062 -16.24541709 46.82685611 -16.3125 48.1875 C-16.34633789 49.19780273 -16.34633789 49.19780273 -16.38085938 50.22851562 C-16.61471839 54.58679722 -17.28080052 57.54870835 -20 61 C-22.6875 61.8125 -22.6875 61.8125 -25 62 C-31.71102104 53.49937335 -31.30187156 43.35735073 -31.1875 32.9375 C-31.18685547 31.81794922 -31.18621094 30.69839844 -31.18554688 29.54492188 C-31.09605428 12.59104653 -31.09605428 12.59104653 -28.0625 8.1875 C-20.22509467 2.58935334 -9.63007614 -0.77040609 0 0 Z " fill="#8A53F6" transform="translate(174,191)"/>
<path d="M0 0 C1.58294782 -0.05437607 3.16644256 -0.09296271 4.75 -0.125 C6.07257813 -0.15980469 6.07257813 -0.15980469 7.421875 -0.1953125 C10.14906426 0.01129275 11.71315408 0.52694159 14 2 C15.54586876 5.09173752 15.29359521 7.59429552 15 11 C13.67614746 13.19322205 13.67614746 13.19322205 11 15 C7.29554995 15.61435095 3.6169091 15.55623294 -0.13085938 15.53344727 C-1.26618607 15.54206284 -2.40151276 15.55067841 -3.57124329 15.55955505 C-7.32897655 15.58228222 -11.08596821 15.5754636 -14.84375 15.56640625 C-17.45162173 15.5716386 -20.05949157 15.57791364 -22.6673584 15.58518982 C-28.13492188 15.59703832 -33.60227346 15.59134233 -39.06982422 15.57641602 C-45.38892954 15.55948803 -51.70734441 15.57533812 -58.02637434 15.6076389 C-64.10798459 15.63754752 -70.18927869 15.63952138 -76.27095032 15.6301403 C-78.85778196 15.62931867 -81.44462778 15.63622228 -84.03141785 15.65091133 C-87.64450795 15.66828259 -91.25611106 15.65387434 -94.86914062 15.63110352 C-96.47919731 15.64864182 -96.47919731 15.64864182 -98.1217804 15.66653442 C-105.3269096 15.57389489 -105.3269096 15.57389489 -108.70349121 12.69493103 C-110.44996458 9.06470089 -110.03249964 6.83499867 -109 3 C-108.34 2.67 -107.68 2.34 -107 2 C-107.33 4.64 -107.66 7.28 -108 10 C-107.01 10 -106.02 10 -105 10 C-105 10.66 -105 11.32 -105 12 C-67.05 12 -29.1 12 10 12 C12.05825864 7.88348273 12.34008135 7.13191749 11 3 C8.70370006 1.85185003 6.92301914 1.69230191 4.375 1.4375 C3.55773437 1.35371094 2.74046875 1.26992187 1.8984375 1.18359375 C1.27195312 1.12300781 0.64546875 1.06242188 0 1 C0 0.67 0 0.34 0 0 Z " fill="#8661DA" transform="translate(359,202)"/>
<path d="M0 0 C14.64695077 -0.09347405 29.29386202 -0.16399415 43.94105053 -0.20724869 C50.74213321 -0.2278671 57.54303048 -0.25597354 64.34399414 -0.30175781 C70.90567422 -0.34591013 77.46721213 -0.36912925 84.02904701 -0.37950897 C86.53413236 -0.38690727 89.039207 -0.40135413 91.54421043 -0.42292023 C95.049482 -0.45190123 98.55395433 -0.45595807 102.05932617 -0.45410156 C103.09798325 -0.46848267 104.13664032 -0.48286377 105.20677185 -0.49768066 C109.63688315 -0.47224435 112.26246863 -0.43703381 116.13301086 1.85650635 C118.23955036 4.2750282 118.73613295 5.83359544 119 9 C118.34 9 117.68 9 117 9 C116.505 7.02 116.505 7.02 116 5 C114.02 5.33 112.04 5.66 110 6 C110 5.01 110 4.02 110 3 C109.45131602 2.99668985 108.90263205 2.99337971 108.33732128 2.98996925 C94.99220083 2.90878088 81.64719575 2.8165764 68.3022337 2.71247292 C61.84872792 2.66246368 55.39523889 2.61613404 48.94165039 2.578125 C42.71705022 2.5413307 36.49258858 2.49498672 30.26810646 2.44193649 C27.88981359 2.42336137 25.51149099 2.40826503 23.13315392 2.39665604 C19.80957131 2.37984699 16.48630814 2.35082472 13.1628418 2.31884766 C12.1730986 2.31668747 11.18335541 2.31452728 10.16362 2.31230164 C9.25918152 2.30113815 8.35474304 2.28997467 7.42289734 2.2784729 C6.63660792 2.27294214 5.85031851 2.26741138 5.04020214 2.26171303 C3 2 3 2 0 0 Z " fill="#8054DD" transform="translate(132,280)"/>
<path d="M0 0 C0.66 0 1.32 0 2 0 C2 0.66 2 1.32 2 2 C2.99 2.33 3.98 2.66 5 3 C5.33 3.66 5.66 4.32 6 5 C20.22130755 5.04677996 34.44260312 5.08188511 48.6639719 5.10362434 C55.26762627 5.11405843 61.87122891 5.12821095 68.47485352 5.15087891 C74.84852036 5.17262041 81.22213748 5.18457145 87.59583855 5.18975449 C90.02667969 5.19344787 92.45751813 5.20066009 94.88833809 5.21146011 C98.29484042 5.22599218 101.70113764 5.22797719 105.10766602 5.22705078 C106.61278748 5.23783661 106.61278748 5.23783661 108.14831543 5.24884033 C114.26232665 5.23086579 119.44852635 4.77573682 125 2 C123.25 5.875 123.25 5.875 121 7 C119.45077976 7.10293382 117.89723815 7.14379033 116.34463501 7.15390015 C115.3632103 7.16250061 114.38178558 7.17110107 113.37062073 7.17996216 C112.29005905 7.18422211 111.20949738 7.18848206 110.09619141 7.19287109 C108.39363945 7.20513733 108.39363945 7.20513733 106.6566925 7.21765137 C102.88832127 7.24253161 99.11998772 7.25902632 95.3515625 7.2734375 C93.42558794 7.28142302 93.42558794 7.28142302 91.4607048 7.28956985 C86.06656561 7.31080299 80.67243874 7.32993365 75.27826881 7.34119225 C67.54538977 7.3574381 59.81301267 7.39063312 52.08032286 7.44759309 C45.98917333 7.4909335 39.89822103 7.50693417 33.80692673 7.51332474 C31.21448566 7.5200593 28.62205253 7.53533797 26.02971268 7.55921555 C22.4069486 7.59068568 18.78546141 7.59093067 15.16259766 7.58349609 C14.08608444 7.59990143 13.00957123 7.61630676 11.9004364 7.63320923 C4.63990881 7.57202116 4.63990881 7.57202116 1.30233765 4.58853149 C0 2 0 2 0 0 Z " fill="#8768D2" transform="translate(125,288)"/>
<path d="M0 0 C6.06033841 2.36167777 10.16811894 6.52906747 13.1875 12.25 C15.17160244 18.96542365 15.12281811 25.13833375 14 32 C13.67 32 13.34 32 13 32 C12.80083984 30.13794922 12.80083984 30.13794922 12.59765625 28.23828125 C12.41938849 26.59634139 12.24099654 24.95441501 12.0625 23.3125 C11.97548828 22.49587891 11.88847656 21.67925781 11.79882812 20.83789062 C11.36241272 16.84549781 10.88697624 12.92347148 10 9 C9.01 9 8.02 9 7 9 C6.7525 8.38125 6.505 7.7625 6.25 7.125 C4.68561481 4.46554517 3.89001512 4.0744928 1 3 C-1.77394833 2.7047806 -4.4700511 2.49287769 -7.25 2.375 C-7.99507813 2.33632812 -8.74015625 2.29765625 -9.5078125 2.2578125 C-11.3381524 2.16394892 -13.16904143 2.08090282 -15 2 C-10.29958695 -1.1336087 -5.49804475 -0.68290036 0 0 Z " fill="#845DDA" transform="translate(341,231)"/>
<path d="M0 0 C-0.639375 0.309375 -1.27875 0.61875 -1.9375 0.9375 C-3.93610821 1.8345163 -3.93610821 1.8345163 -5 3 C-7.3306218 3.35179197 -9.66435067 3.68330179 -12 4 C-13.33917261 4.30903983 -14.67653254 4.62942911 -16 5 C-16 5.66 -16 6.32 -16 7 C-16.969375 7.7425 -17.93875 8.485 -18.9375 9.25 C-21.59729339 11.34654302 -21.95610421 11.83382309 -22.875 15.3125 C-22.91625 16.199375 -22.9575 17.08625 -23 18 C-23.66 17.67 -24.32 17.34 -25 17 C-24.40065005 12.25686854 -23.7188439 8.87017946 -20.625 5.125 C-14.90376077 1.0424367 -6.89167107 -0.24026009 0 0 Z " fill="#8360DE" transform="translate(286,230)"/>
<path d="M0 0 C2.0625 2.0625 2.0625 2.0625 4 5 C3.6875 8.75 3.6875 8.75 3 12 C4.19190201 13.41934142 4.19190201 13.41934142 7.625 13.125 C11.49887722 13.08304465 15.18165644 12.63639059 19 12 C15.62823828 15.37176172 10.79293899 15.80078456 6.1875 16.3125 C4 16 4 16 2.25 14.6875 C-0.1103743 11.50099469 -0.11207804 8.63000926 -0.0625 4.8125 C-0.05347656 3.91144531 -0.04445313 3.01039063 -0.03515625 2.08203125 C-0.02355469 1.39496094 -0.01195312 0.70789063 0 0 Z " fill="#825FD7" transform="translate(315,275)"/>
<path d="M0 0 C1.17755859 -0.03867188 1.17755859 -0.03867188 2.37890625 -0.078125 C3.05824219 0.03015625 3.73757812 0.1384375 4.4375 0.25 C6.4375 3.25 6.4375 3.25 6.3125 6.25 C5.32280089 9.64325408 4.43489756 10.50957561 1.4375 12.25 C1.4375 11.26 1.4375 10.27 1.4375 9.25 C2.0975 9.25 2.7575 9.25 3.4375 9.25 C3.4375 6.61 3.4375 3.97 3.4375 1.25 C2.84582031 1.394375 2.25414062 1.53875 1.64453125 1.6875 C-2.48779941 2.65822694 -6.2854762 3.52593702 -10.5625 3.25 C-6.91238241 0.81658828 -4.3013889 0.08503569 0 0 Z " fill="#845EDB" transform="translate(167.5625,213.75)"/>
<path d="M0 0 C1.65 0 3.3 0 5 0 C4.67 0.99 4.34 1.98 4 3 C4.09268505 5.06618749 4.09268505 5.06618749 4.4375 7.1875 C4.623125 8.445625 4.80875 9.70375 5 11 C5.78375 10.484375 6.5675 9.96875 7.375 9.4375 C8.24125 8.963125 9.1075 8.48875 10 8 C10.66 8.33 11.32 8.66 12 9 C10.05989769 11.47901962 9.01374033 11.99670232 5.875 12.75 C4.451875 12.87375 4.451875 12.87375 3 13 C2 12 2 12 1.90234375 9.49609375 C1.91974609 7.98208984 1.91974609 7.98208984 1.9375 6.4375 C1.94652344 5.42558594 1.95554688 4.41367188 1.96484375 3.37109375 C1.97644531 2.58863281 1.98804688 1.80617187 2 1 C1.34 0.67 0.68 0.34 0 0 Z " fill="#845BDF" transform="translate(203,209)"/>
<path d="M0 0 C0 0.33 0 0.66 0 1 C-2.31 1.66 -4.62 2.32 -7 3 C-7 3.66 -7 4.32 -7 5 C-7.99 5.33 -8.98 5.66 -10 6 C-10 5.34 -10 4.68 -10 4 C-12.97 4 -15.94 4 -19 4 C-12.97784896 -0.01476736 -7.00056891 -0.28573751 0 0 Z " fill="#875CE6" transform="translate(219,192)"/>
<path d="M0 0 C1.58294782 -0.05437607 3.16644256 -0.09296271 4.75 -0.125 C5.63171875 -0.14820313 6.5134375 -0.17140625 7.421875 -0.1953125 C10.14906426 0.01129275 11.71315408 0.52694159 14 2 C15.4783226 4.95664519 15.06032783 7.74229737 15 11 C13.35 11.66 11.7 12.32 10 13 C10.350625 12.278125 10.70125 11.55625 11.0625 10.8125 C12.11155749 7.66532752 12.03916873 6.11750618 11 3 C8.70370006 1.85185003 6.92301914 1.69230191 4.375 1.4375 C3.55773437 1.35371094 2.74046875 1.26992187 1.8984375 1.18359375 C1.27195312 1.12300781 0.64546875 1.06242188 0 1 C0 0.67 0 0.34 0 0 Z " fill="#825EDB" transform="translate(359,202)"/>
<path d="M0 0 C6.40659341 0.6043956 6.40659341 0.6043956 8.875 2.25 C10.29035995 4.45167104 10.65198447 6.42468508 11 9 C10.34 9 9.68 9 9 9 C8.67 7.68 8.34 6.36 8 5 C6.02 5.33 4.04 5.66 2 6 C2 5.01 2 4.02 2 3 C1.34 2.67 0.68 2.34 0 2 C0 1.34 0 0.68 0 0 Z " fill="#8359E1" transform="translate(240,280)"/>
<path d="M0 0 C1.125 3.75 1.125 3.75 0 6 C0.66 6.33 1.32 6.66 2 7 C-1.28804981 9.91227269 -3.59885603 11.49701212 -8 12 C-7.59007812 11.46890625 -7.18015625 10.9378125 -6.7578125 10.390625 C-6.21898437 9.68421875 -5.68015625 8.9778125 -5.125 8.25 C-4.59132813 7.55390625 -4.05765625 6.8578125 -3.5078125 6.140625 C-2.10761086 4.15277397 -1.02144735 2.20156614 0 0 Z " fill="#865AE6" transform="translate(340,261)"/>
<path d="M0 0 C0.66 0 1.32 0 2 0 C1.64301497 2.64168921 1.247692 4.60890736 -0.1875 6.875 C-2 8 -2 8 -5.1875 7.6875 C-6.115625 7.460625 -7.04375 7.23375 -8 7 C-8 6.34 -8 5.68 -8 5 C-4.535 4.505 -4.535 4.505 -1 4 C-0.67 2.68 -0.34 1.36 0 0 Z " fill="#835BDE" transform="translate(203,248)"/>
<path d="M0 0 C0.66 0 1.32 0 2 0 C2.10824843 1.6026782 2.18570645 3.20745748 2.25 4.8125 C2.29640625 5.70582031 2.3428125 6.59914062 2.390625 7.51953125 C2 10 2 10 0.15234375 11.8359375 C-2 13 -2 13 -4.6875 12.8125 C-7 12 -7 12 -8 10 C-5.69 10.33 -3.38 10.66 -1 11 C-0.67 7.37 -0.34 3.74 0 0 Z " fill="#875DD4" transform="translate(227,243)"/>
<path d="M0 0 C0.66 0.33 1.32 0.66 2 1 C1.01 1.33 0.02 1.66 -1 2 C-0.938125 2.680625 -0.87625 3.36125 -0.8125 4.0625 C-1.05868263 7.91936125 -2.35802162 10.51079594 -4 14 C-4.33 14 -4.66 14 -5 14 C-5.78774617 5.96498906 -5.78774617 5.96498906 -2.5 1.9375 C-1.2625 0.9784375 -1.2625 0.9784375 0 0 Z " fill="#875BE6" transform="translate(149,197)"/>
<path d="M0 0 C-0.75 1.9375 -0.75 1.9375 -2 4 C-4.125 4.75 -4.125 4.75 -6 5 C-6.33 6.65 -6.66 8.3 -7 10 C-7.66 10 -8.32 10 -9 10 C-8.875 7.25 -8.875 7.25 -8 4 C-3.05263158 0 -3.05263158 0 0 0 Z " fill="#855CDB" transform="translate(325,233)"/>
<path d="M0 0 C2.5 1.625 2.5 1.625 5 4 C5.5 7.125 5.5 7.125 5 10 C4.01 10.66 3.02 11.32 2 12 C1.67 10.68 1.34 9.36 1 8 C1.66 8 2.32 8 3 8 C2.505 7.05125 2.01 6.1025 1.5 5.125 C0 2 0 2 0 0 Z " fill="#7A58DB" transform="translate(290,229)"/>
<path d="M0 0 C-0.969375 0.70125 -1.93875 1.4025 -2.9375 2.125 C-5.55157225 4.27161462 -5.96258406 4.85835394 -6.875 8.3125 C-6.91625 9.199375 -6.9575 10.08625 -7 11 C-7.66 10.67 -8.32 10.34 -9 10 C-8.77139942 8.53815942 -8.51629608 7.08044581 -8.25 5.625 C-8.11078125 4.81289062 -7.9715625 4.00078125 -7.828125 3.1640625 C-7 1 -7 1 -5.109375 -0.3515625 C-3 -1 -3 -1 0 0 Z " fill="#8857E5" transform="translate(270,237)"/>
<path d="M0 0 C1.09658936 3.28976808 0.79953138 4.71303767 0 8 C0.99 8 1.98 8 3 8 C3 8.66 3 9.32 3 10 C3.66 10.33 4.32 10.66 5 11 C2.625 11.1875 2.625 11.1875 0 11 C-2 8 -2 8 -1.6875 4.375 C-1 1 -1 1 0 0 Z " fill="#8A58DC" transform="translate(251,204)"/>
<path d="M0 0 C2.0625 2.1875 2.0625 2.1875 4 5 C3.75 7.8125 3.75 7.8125 3 10 C2.01 10 1.02 10 0 10 C0 6.7 0 3.4 0 0 Z " fill="#845AE5" transform="translate(315,275)"/>
<path d="M0 0 C0.66 0.33 1.32 0.66 2 1 C2.3125 4.25 2.3125 4.25 2 8 C-0.375 10.4375 -0.375 10.4375 -3 12 C-3.66 12 -4.32 12 -5 12 C-5 11.01 -5 10.02 -5 9 C-3.68 9 -2.36 9 -1 9 C-0.67 6.03 -0.34 3.06 0 0 Z " fill="#8560D4" transform="translate(289,253)"/>
<path d="M0 0 C0.66 0.33 1.32 0.66 2 1 C1.34 2.32 0.68 3.64 0 5 C-0.66 4.67 -1.32 4.34 -2 4 C-2.33 5.32 -2.66 6.64 -3 8 C-3.66 7.01 -4.32 6.02 -5 5 C-4 2 -4 2 -2.0625 0.75 C-1.381875 0.5025 -0.70125 0.255 0 0 Z " fill="#875BEB" transform="translate(198,196)"/>
<path d="M0 0 C2.625 0.375 2.625 0.375 5 1 C2.47211993 3.79872437 0.79588866 5.45773019 -3 6 C-2.42655063 3.13275314 -2.1385485 2.1385485 0 0 Z " fill="#8559E9" transform="translate(129,281)"/>
<path d="M0 0 C2.875 -0.125 2.875 -0.125 6 0 C8 2 8 2 8.125 5.125 C8.08375 6.07375 8.0425 7.0225 8 8 C7.67 8 7.34 8 7 8 C7 6.35 7 4.7 7 3 C4.69 2.67 2.38 2.34 0 2 C0 1.34 0 0.68 0 0 Z " fill="#8862CF" transform="translate(168,191)"/>
<path d="M0 0 C0.68620031 1.32338632 1.34786461 2.65949948 2 4 C2.4125 4.845625 2.825 5.69125 3.25 6.5625 C3.4975 7.366875 3.745 8.17125 4 9 C3.01 10.485 3.01 10.485 2 12 C0.70756464 7.8803623 -0.26252625 4.33168317 0 0 Z " fill="#845ADF" transform="translate(144,237)"/>
<path d="M0 0 C0.66 0 1.32 0 2 0 C2.33 2.31 2.66 4.62 3 7 C2.01 7.33 1.02 7.66 0 8 C0 5.36 0 2.72 0 0 Z " fill="#865AE1" transform="translate(341,253)"/>
<path d="" fill="#FFFFFF" transform="translate(0,0)"/>
<path d="" fill="#FFFFFF" transform="translate(0,0)"/>
<path d="" fill="#FFFFFF" transform="translate(0,0)"/>
<path d="" fill="#FFFFFF" transform="translate(0,0)"/>
<path d="" fill="#FFFFFF" transform="translate(0,0)"/>
<path d="" fill="#FFFFFF" transform="translate(0,0)"/>
<path d="" fill="#FFFFFF" transform="translate(0,0)"/>
<path d="" fill="#FFFFFF" transform="translate(0,0)"/>
<path d="" fill="#FFFFFF" transform="translate(0,0)"/>
<path d="" fill="#FFFFFF" transform="translate(0,0)"/>
<path d="" fill="#FFFFFF" transform="translate(0,0)"/>
<path d="" fill="#FFFFFF" transform="translate(0,0)"/>
<path d="" fill="#FFFFFF" transform="translate(0,0)"/>
<path d="" fill="#FFFFFF" transform="translate(0,0)"/>
<path d="" fill="#FFFFFF" transform="translate(0,0)"/>
<path d="" fill="#FFFFFF" transform="translate(0,0)"/>
<path d="" fill="#FFFFFF" transform="translate(0,0)"/>
<path d="" fill="#FFFFFF" transform="translate(0,0)"/>
<path d="" fill="#FFFFFF" transform="translate(0,0)"/>
<path d="" fill="#FFFFFF" transform="translate(0,0)"/>
<path d="" fill="#FFFFFF" transform="translate(0,0)"/>
<path d="" fill="#FFFFFF" transform="translate(0,0)"/>
<path d="" fill="#FFFFFF" transform="translate(0,0)"/>
<path d="" fill="#FFFFFF" transform="translate(0,0)"/>
<path d="" fill="#FFFFFF" transform="translate(0,0)"/>
<path d="" fill="#FFFFFF" transform="translate(0,0)"/>
<path d="" fill="#FFFFFF" transform="translate(0,0)"/>
<path d="" fill="#FFFFFF" transform="translate(0,0)"/>
<path d="" fill="#FFFFFF" transform="translate(0,0)"/>
<path d="" fill="#FFFFFF" transform="translate(0,0)"/>
<path d="" fill="#FFFFFF" transform="translate(0,0)"/>
<path d="" fill="#FFFFFF" transform="translate(0,0)"/>
<path d="" fill="#FFFFFF" transform="translate(0,0)"/>
<path d="" fill="#FFFFFF" transform="translate(0,0)"/>
<path d="" fill="#FFFFFF" transform="translate(0,0)"/>
<path d="" fill="#FFFFFF" transform="translate(0,0)"/>
<path d="" fill="#FFFFFF" transform="translate(0,0)"/>
<path d="" fill="#FFFFFF" transform="translate(0,0)"/>
<path d="" fill="#FFFFFF" transform="translate(0,0)"/>
<path d="" fill="#FFFFFF" transform="translate(0,0)"/>
<path d="" fill="#FFFFFF" transform="translate(0,0)"/>
<path d="" fill="#FFFFFF" transform="translate(0,0)"/>
<path d="" fill="#FFFFFF" transform="translate(0,0)"/>
<path d="" fill="#FFFFFF" transform="translate(0,0)"/>
<path d="" fill="#FFFFFF" transform="translate(0,0)"/>
<path d="" fill="#FFFFFF" transform="translate(0,0)"/>
<path d="" fill="#FFFFFF" transform="translate(0,0)"/>
<path d="" fill="#FFFFFF" transform="translate(0,0)"/>
<path d="" fill="#FFFFFF" transform="translate(0,0)"/>
<path d="" fill="#FFFFFF" transform="translate(0,0)"/>
<path d="" fill="#FFFFFF" transform="translate(0,0)"/>
<path d="" fill="#FFFFFF" transform="translate(0,0)"/>
<path d="" fill="#FFFFFF" transform="translate(0,0)"/>
<path d="" fill="#FFFFFF" transform="translate(0,0)"/>
<path d="" fill="#FFFFFF" transform="translate(0,0)"/>
<path d="" fill="#FFFFFF" transform="translate(0,0)"/>
<path d="" fill="#FFFFFF" transform="translate(0,0)"/>
<path d="" fill="#FFFFFF" transform="translate(0,0)"/>
<path d="" fill="#FFFFFF" transform="translate(0,0)"/>
<path d="" fill="#FFFFFF" transform="translate(0,0)"/>
<path d="" fill="#FFFFFF" transform="translate(0,0)"/>
<path d="" fill="#FFFFFF" transform="translate(0,0)"/>
<path d="" fill="#FFFFFF" transform="translate(0,0)"/>
<path d="" fill="#FFFFFF" transform="translate(0,0)"/>
<path d="" fill="#FFFFFF" transform="translate(0,0)"/>
<path d="" fill="#FFFFFF" transform="translate(0,0)"/>
<path d="" fill="#FFFFFF" transform="translate(0,0)"/>
<path d="" fill="#FFFFFF" transform="translate(0,0)"/>
<path d="" fill="#FFFFFF" transform="translate(0,0)"/>
<path d="" fill="#FFFFFF" transform="translate(0,0)"/>
<path d="" fill="#FFFFFF" transform="translate(0,0)"/>
<path d="" fill="#FFFFFF" transform="translate(0,0)"/>
<path d="" fill="#FFFFFF" transform="translate(0,0)"/>
<path d="" fill="#FFFFFF" transform="translate(0,0)"/>
<path d="" fill="#FFFFFF" transform="translate(0,0)"/>
<path d="" fill="#FFFFFF" transform="translate(0,0)"/>
<path d="" fill="#FFFFFF" transform="translate(0,0)"/>
<path d="" fill="#FFFFFF" transform="translate(0,0)"/>
<path d="" fill="#FFFFFF" transform="translate(0,0)"/>
<path d="" fill="#FFFFFF" transform="translate(0,0)"/>
<path d="" fill="#FFFFFF" transform="translate(0,0)"/>
<path d="" fill="#FFFFFF" transform="translate(0,0)"/>
<path d="" fill="#FFFFFF" transform="translate(0,0)"/>
<path d="" fill="#FFFFFF" transform="translate(0,0)"/>
<path d="" fill="#FFFFFF" transform="translate(0,0)"/>
<path d="" fill="#FFFFFF" transform="translate(0,0)"/>
<path d="" fill="#FFFFFF" transform="translate(0,0)"/>
<path d="" fill="#FFFFFF" transform="translate(0,0)"/>
</svg>
