<?xml version="1.0" encoding="utf-8"?>
<!-- Generator: Adobe Illustrator 27.5.0, SVG Export Plug-In . SVG Version: 6.00 Build 0)  -->
<svg version="1.1" id="Capa_1" xmlns="http://www.w3.org/2000/svg" xmlns:xlink="http://www.w3.org/1999/xlink" x="0px" y="0px"
	 viewBox="0 0 425.196 425.197" style="enable-background:new 0 0 425.196 425.197;" xml:space="preserve">
<rect y="0" style="fill:#F7F8F8;" width="425.196" height="425.197"/>
<g>
	<g>
		
			<rect x="152.899" y="189.46" transform="matrix(0.9223 -0.3865 0.3865 0.9223 -60.8181 118.0589)" style="fill:#F6B63E;" width="220.59" height="41.639"/>
	</g>
	<g>
		
			<rect x="157.333" y="211.516" transform="matrix(0.9223 -0.3865 0.3865 0.9223 -64.5633 120.595)" style="fill:#DEA437;" width="220.59" height="18.691"/>
	</g>
	<g>
		<g>
			<path d="M356.07,148.787l0.802-0.336l3.901,9.311l-0.801,0.335L356.07,148.787z"/>
		</g>
		<g>
			<path d="M354.988,149.24l0.602-0.251l1.671,3.99l-0.601,0.252L354.988,149.24z"/>
		</g>
		<g>
			<path d="M353.85,149.718l0.602-0.252l1.671,3.991l-0.601,0.252L353.85,149.718z"/>
		</g>
		<g>
			<path d="M352.711,150.195l0.602-0.253l1.672,3.991l-0.6,0.252L352.711,150.195z"/>
		</g>
		<g>
			<path d="M351.572,150.672l0.601-0.252l1.673,3.991l-0.602,0.251L351.572,150.672z"/>
		</g>
		<g>
			<path d="M350.287,151.209l0.803-0.336l2.23,5.322l-0.801,0.336L350.287,151.209z"/>
		</g>
		<g>
			<path d="M349.204,151.663l0.603-0.251l1.674,3.99l-0.603,0.252L349.204,151.663z"/>
		</g>
		<g>
			<path d="M348.066,152.141l0.604-0.252l1.672,3.991l-0.602,0.251L348.066,152.141z"/>
		</g>
		<g>
			<path d="M346.929,152.617l0.601-0.251l1.674,3.991l-0.604,0.251L346.929,152.617z"/>
		</g>
		<g>
			<path d="M345.79,153.094l0.603-0.252l1.673,3.992l-0.603,0.252L345.79,153.094z"/>
		</g>
		<g>
			<path d="M344.509,153.633l0.8-0.336l3.9,9.31l-0.799,0.337L344.509,153.633z"/>
		</g>
		<g>
			<path d="M343.424,154.086l0.602-0.252l1.672,3.992l-0.602,0.251L343.424,154.086z"/>
		</g>
		<g>
			<path d="M342.285,154.563l0.6-0.251l1.674,3.991l-0.601,0.251L342.285,154.563z"/>
		</g>
		<g>
			<path d="M341.148,155.041l0.6-0.253l1.672,3.991l-0.602,0.252L341.148,155.041z"/>
		</g>
		<g>
			<path d="M340.01,155.517l0.6-0.251l1.674,3.99l-0.6,0.252L340.01,155.517z"/>
		</g>
		<g>
			<path d="M338.727,156.055l0.801-0.336l2.23,5.322l-0.801,0.336L338.727,156.055z"/>
		</g>
		<g>
			<path d="M337.643,156.508l0.601-0.25l1.673,3.99l-0.602,0.252L337.643,156.508z"/>
		</g>
		<g>
			<path d="M336.504,156.986l0.601-0.252l1.673,3.99l-0.602,0.252L336.504,156.986z"/>
		</g>
		<g>
			<path d="M335.365,157.463l0.6-0.252l1.674,3.991l-0.6,0.251L335.365,157.463z"/>
		</g>
		<g>
			<path d="M334.229,157.941l0.6-0.252l1.671,3.991l-0.598,0.251L334.229,157.941z"/>
		</g>
		<g>
			<path d="M332.943,158.479l0.803-0.336l3.9,9.31l-0.803,0.336L332.943,158.479z"/>
		</g>
		<g>
			<path d="M331.86,158.932l0.602-0.252l1.67,3.992l-0.602,0.251L331.86,158.932z"/>
		</g>
		<g>
			<path d="M330.722,159.408l0.601-0.252l1.673,3.992l-0.601,0.251L330.722,159.408z"/>
		</g>
		<g>
			<path d="M329.584,159.887l0.6-0.253l1.673,3.991l-0.601,0.252L329.584,159.887z"/>
		</g>
		<g>
			<path d="M328.445,160.363l0.602-0.252l1.672,3.99l-0.602,0.252L328.445,160.363z"/>
		</g>
		<g>
			<path d="M327.162,160.9l0.803-0.336l2.228,5.322l-0.801,0.336L327.162,160.9z"/>
		</g>
		<g>
			<path d="M326.08,161.355l0.6-0.252l1.672,3.991l-0.6,0.252L326.08,161.355z"/>
		</g>
		<g>
			<path d="M324.942,161.831l0.599-0.251l1.674,3.99l-0.602,0.252L324.942,161.831z"/>
		</g>
		<g>
			<path d="M323.801,162.309l0.603-0.252l1.672,3.99l-0.603,0.252L323.801,162.309z"/>
		</g>
		<g>
			<path d="M322.664,162.786l0.604-0.252l1.672,3.99l-0.604,0.251L322.664,162.786z"/>
		</g>
		<g>
			<path d="M321.381,163.323l0.799-0.337l3.904,9.313l-0.801,0.334L321.381,163.323z"/>
		</g>
		<g>
			<path d="M320.299,163.777l0.599-0.252l1.673,3.99l-0.602,0.252L320.299,163.777z"/>
		</g>
		<g>
			<path d="M319.158,164.254l0.602-0.252l1.674,3.99l-0.602,0.252L319.158,164.254z"/>
		</g>
		<g>
			<path d="M318.02,164.73l0.602-0.252l1.672,3.992l-0.599,0.252L318.02,164.73z"/>
		</g>
		<g>
			<path d="M316.885,165.207l0.598-0.25l1.672,3.99l-0.599,0.252L316.885,165.207z"/>
		</g>
		<g>
			<path d="M315.6,165.746l0.799-0.336l2.232,5.321l-0.803,0.336L315.6,165.746z"/>
		</g>
		<g>
			<path d="M314.514,166.199l0.603-0.251l1.673,3.991l-0.603,0.252L314.514,166.199z"/>
		</g>
		<g>
			<path d="M313.377,166.677l0.602-0.251l1.67,3.99l-0.599,0.251L313.377,166.677z"/>
		</g>
		<g>
			<path d="M312.24,167.154l0.601-0.252l1.671,3.99l-0.6,0.252L312.24,167.154z"/>
		</g>
		<g>
			<path d="M311.102,167.631l0.6-0.252l1.672,3.991l-0.6,0.252L311.102,167.631z"/>
		</g>
		<g>
			<path d="M309.816,168.169l0.803-0.337l3.9,9.31l-0.803,0.336L309.816,168.169z"/>
		</g>
		<g>
			<path d="M308.733,168.623l0.603-0.252l1.672,3.99l-0.602,0.252L308.733,168.623z"/>
		</g>
		<g>
			<path d="M307.597,169.1l0.601-0.252l1.673,3.99l-0.603,0.252L307.597,169.1z"/>
		</g>
		<g>
			<path d="M306.458,169.576l0.601-0.252l1.672,3.992l-0.602,0.252L306.458,169.576z"/>
		</g>
		<g>
			<path d="M305.318,170.053l0.602-0.25l1.673,3.99l-0.601,0.252L305.318,170.053z"/>
		</g>
		<g>
			<path d="M304.035,170.591l0.803-0.335l2.229,5.321l-0.801,0.336L304.035,170.591z"/>
		</g>
		<g>
			<path d="M302.953,171.045l0.6-0.252l1.674,3.992l-0.602,0.251L302.953,171.045z"/>
		</g>
		<g>
			<path d="M301.815,171.521l0.6-0.25l1.674,3.99l-0.601,0.251L301.815,171.521z"/>
		</g>
		<g>
			<path d="M300.678,171.999l0.6-0.251l1.67,3.99l-0.599,0.252L300.678,171.999z"/>
		</g>
		<g>
			<path d="M299.538,172.477l0.599-0.252l1.676,3.991l-0.602,0.252L299.538,172.477z"/>
		</g>
		<g>
			<path d="M298.254,173.015l0.803-0.336l3.899,9.31l-0.802,0.336L298.254,173.015z"/>
		</g>
		<g>
			<path d="M297.17,173.469l0.6-0.252l1.671,3.99l-0.598,0.252L297.17,173.469z"/>
		</g>
		<g>
			<path d="M296.033,173.945l0.6-0.253l1.674,3.991l-0.602,0.252L296.033,173.945z"/>
		</g>
		<g>
			<path d="M294.895,174.423l0.601-0.253l1.673,3.992l-0.602,0.25L294.895,174.423z"/>
		</g>
		<g>
			<path d="M293.754,174.898l0.603-0.25l1.673,3.99l-0.602,0.252L293.754,174.898z"/>
		</g>
		<g>
			<path d="M292.473,175.438l0.801-0.336l2.229,5.322l-0.803,0.334L292.473,175.438z"/>
		</g>
		<g>
			<path d="M291.389,175.892l0.602-0.253l1.673,3.992l-0.602,0.251L291.389,175.892z"/>
		</g>
		<g>
			<path d="M290.25,176.367l0.604-0.251l1.671,3.991l-0.603,0.251L290.25,176.367z"/>
		</g>
		<g>
			<path d="M289.111,176.845l0.602-0.251l1.672,3.99l-0.6,0.252L289.111,176.845z"/>
		</g>
		<g>
			<path d="M287.975,177.322l0.602-0.252l1.671,3.99l-0.601,0.252L287.975,177.322z"/>
		</g>
		<g>
			<path d="M286.69,177.859l0.803-0.335l3.9,9.31l-0.802,0.335L286.69,177.859z"/>
		</g>
		<g>
			<path d="M285.608,178.314l0.599-0.252l1.674,3.991l-0.602,0.252L285.608,178.314z"/>
		</g>
		<g>
			<path d="M284.469,178.791l0.6-0.252l1.674,3.99l-0.602,0.252L284.469,178.791z"/>
		</g>
		<g>
			<path d="M283.331,179.268l0.601-0.252l1.674,3.991l-0.603,0.251L283.331,179.268z"/>
		</g>
		<g>
			<path d="M281.904,179.866l0.6-0.253l1.672,3.991l-0.601,0.252L281.904,179.866z"/>
		</g>
		<g>
			<path d="M280.619,180.403l0.802-0.336l2.232,5.322l-0.803,0.336L280.619,180.403z"/>
		</g>
		<g>
			<path d="M279.537,180.857l0.601-0.252l1.673,3.992l-0.602,0.25L279.537,180.857z"/>
		</g>
		<g>
			<path d="M278.398,181.334l0.599-0.251l1.673,3.991l-0.6,0.252L278.398,181.334z"/>
		</g>
		<g>
			<path d="M277.26,181.811l0.603-0.251l1.669,3.99l-0.598,0.252L277.26,181.811z"/>
		</g>
		<g>
			<path d="M276.123,182.289l0.599-0.252l1.671,3.99l-0.6,0.251L276.123,182.289z"/>
		</g>
		<g>
			<path d="M274.838,182.826l0.803-0.336l3.9,9.31l-0.803,0.337L274.838,182.826z"/>
		</g>
		<g>
			<path d="M273.755,183.281l0.601-0.252l1.673,3.99l-0.601,0.252L273.755,183.281z"/>
		</g>
		<g>
			<path d="M272.617,183.758l0.6-0.252l1.673,3.99l-0.601,0.252L272.617,183.758z"/>
		</g>
		<g>
			<path d="M271.479,184.234l0.602-0.251l1.671,3.99l-0.603,0.251L271.479,184.234z"/>
		</g>
		<g>
			<path d="M270.34,184.711l0.602-0.251l1.671,3.989l-0.6,0.254L270.34,184.711z"/>
		</g>
		<g>
			<path d="M269.056,185.25l0.802-0.336l2.229,5.32l-0.8,0.337L269.056,185.25z"/>
		</g>
		<g>
			<path d="M267.974,185.703l0.601-0.252l1.672,3.991l-0.601,0.252L267.974,185.703z"/>
		</g>
		<g>
			<path d="M266.835,186.18l0.601-0.25l1.672,3.99l-0.601,0.251L266.835,186.18z"/>
		</g>
		<g>
			<path d="M265.698,186.657l0.599-0.251l1.674,3.99l-0.602,0.25L265.698,186.657z"/>
		</g>
		<g>
			<path d="M264.56,187.135l0.599-0.253l1.674,3.991l-0.602,0.252L264.56,187.135z"/>
		</g>
		<g>
			<path d="M263.275,187.672l0.799-0.336l3.902,9.309l-0.801,0.338L263.275,187.672z"/>
		</g>
		<g>
			<path d="M262.191,188.125l0.601-0.252l1.673,3.992l-0.6,0.252L262.191,188.125z"/>
		</g>
		<g>
			<path d="M261.055,188.604l0.599-0.253l1.673,3.991l-0.6,0.252L261.055,188.604z"/>
		</g>
		<g>
			<path d="M259.916,189.08l0.6-0.252l1.672,3.991l-0.6,0.251L259.916,189.08z"/>
		</g>
		<g>
			<path d="M258.777,189.557l0.6-0.252l1.672,3.991l-0.6,0.251L258.777,189.557z"/>
		</g>
		<g>
			<path d="M257.492,190.095l0.802-0.336l2.231,5.321l-0.803,0.336L257.492,190.095z"/>
		</g>
		<g>
			<path d="M256.41,190.549l0.6-0.252l1.673,3.99l-0.599,0.252L256.41,190.549z"/>
		</g>
		<g>
			<path d="M255.271,191.025l0.602-0.252l1.672,3.992l-0.602,0.251L255.271,191.025z"/>
		</g>
		<g>
			<path d="M254.135,191.502l0.6-0.251l1.672,3.989l-0.602,0.254L254.135,191.502z"/>
		</g>
		<g>
			<path d="M252.992,191.98l0.603-0.253l1.673,3.991l-0.601,0.252L252.992,191.98z"/>
		</g>
		<g>
			<path d="M251.711,192.518l0.801-0.336l3.902,9.311l-0.802,0.335L251.711,192.518z"/>
		</g>
		<g>
			<path d="M250.628,192.972l0.601-0.253l1.674,3.991l-0.604,0.253L250.628,192.972z"/>
		</g>
		<g>
			<path d="M249.489,193.448l0.602-0.251l1.672,3.989l-0.604,0.253L249.489,193.448z"/>
		</g>
		<g>
			<path d="M248.352,193.926l0.602-0.252l1.672,3.99l-0.602,0.253L248.352,193.926z"/>
		</g>
		<g>
			<path d="M247.213,194.402l0.602-0.252l1.673,3.991l-0.603,0.251L247.213,194.402z"/>
		</g>
		<g>
			<path d="M245.931,194.941l0.8-0.336l2.23,5.321l-0.8,0.336L245.931,194.941z"/>
		</g>
		<g>
			<path d="M244.848,195.395l0.6-0.252l1.672,3.99l-0.602,0.252L244.848,195.395z"/>
		</g>
		<g>
			<path d="M243.709,195.871l0.598-0.252l1.676,3.991l-0.603,0.251L243.709,195.871z"/>
		</g>
		<g>
			<path d="M242.57,196.348l0.6-0.251l1.672,3.989l-0.601,0.253L242.57,196.348z"/>
		</g>
		<g>
			<path d="M241.432,196.824l0.6-0.252l1.674,3.991l-0.601,0.253L241.432,196.824z"/>
		</g>
		<g>
			<path d="M240.148,197.363l0.801-0.336l3.902,9.309l-0.803,0.336L240.148,197.363z"/>
		</g>
		<g>
			<path d="M239.064,197.816l0.603-0.251l1.669,3.99l-0.6,0.252L239.064,197.816z"/>
		</g>
		<g>
			<path d="M237.926,198.294l0.601-0.252l1.673,3.991l-0.6,0.252L237.926,198.294z"/>
		</g>
		<g>
			<path d="M236.787,198.77l0.601-0.25l1.673,3.99l-0.6,0.252L236.787,198.77z"/>
		</g>
		<g>
			<path d="M235.65,199.248l0.601-0.252l1.671,3.991l-0.6,0.251L235.65,199.248z"/>
		</g>
		<g>
			<path d="M234.365,199.786l0.801-0.336l2.23,5.321l-0.802,0.336L234.365,199.786z"/>
		</g>
		<g>
			<path d="M233.282,200.24l0.602-0.252l1.671,3.99l-0.601,0.252L233.282,200.24z"/>
		</g>
		<g>
			<path d="M232.146,200.717l0.598-0.252l1.672,3.99l-0.6,0.252L232.146,200.717z"/>
		</g>
		<g>
			<path d="M231.006,201.194l0.6-0.253l1.673,3.991l-0.601,0.252L231.006,201.194z"/>
		</g>
		<g>
			<path d="M229.867,201.671l0.602-0.253l1.674,3.991l-0.601,0.253L229.867,201.671z"/>
		</g>
		<g>
			<path d="M228.584,202.209l0.801-0.336l3.902,9.309l-0.8,0.336L228.584,202.209z"/>
		</g>
		<g>
			<path d="M227.5,202.663l0.602-0.253l1.674,3.99l-0.603,0.253L227.5,202.663z"/>
		</g>
		<g>
			<path d="M226.363,203.14l0.602-0.251l1.67,3.99l-0.6,0.252L226.363,203.14z"/>
		</g>
		<g>
			<path d="M225.224,203.616l0.603-0.252l1.672,3.991l-0.602,0.252L225.224,203.616z"/>
		</g>
		<g>
			<path d="M224.087,204.093l0.601-0.251l1.672,3.99l-0.6,0.252L224.087,204.093z"/>
		</g>
		<g>
			<path d="M222.803,204.631l0.801-0.336l2.231,5.321l-0.802,0.336L222.803,204.631z"/>
		</g>
		<g>
			<path d="M221.721,205.084l0.598-0.251l1.674,3.991l-0.6,0.251L221.721,205.084z"/>
		</g>
		<g>
			<path d="M220.58,205.563l0.604-0.252l1.67,3.99l-0.602,0.253L220.58,205.563z"/>
		</g>
		<g>
			<path d="M219.445,206.039l0.6-0.252l1.674,3.991l-0.604,0.251L219.445,206.039z"/>
		</g>
		<g>
			<path d="M218.305,206.516l0.6-0.252l1.672,3.991l-0.6,0.251L218.305,206.516z"/>
		</g>
		<g>
			<path d="M217.02,207.055l0.804-0.336l3.899,9.309l-0.803,0.336L217.02,207.055z"/>
		</g>
		<g>
			<path d="M215.938,207.508l0.602-0.252l1.672,3.991l-0.602,0.252L215.938,207.508z"/>
		</g>
		<g>
			<path d="M214.801,207.984l0.601-0.252l1.671,3.992l-0.6,0.251L214.801,207.984z"/>
		</g>
		<g>
			<path d="M213.66,208.462l0.602-0.251l1.671,3.99l-0.601,0.252L213.66,208.462z"/>
		</g>
		<g>
			<path d="M212.521,208.939l0.603-0.252l1.671,3.991l-0.6,0.252L212.521,208.939z"/>
		</g>
		<g>
			<path d="M211.24,209.477l0.801-0.336l2.229,5.321l-0.801,0.335L211.24,209.477z"/>
		</g>
		<g>
			<path d="M210.157,209.931l0.6-0.252l1.672,3.99l-0.604,0.252L210.157,209.931z"/>
		</g>
		<g>
			<path d="M209.018,210.407l0.602-0.251l1.673,3.99l-0.601,0.252L209.018,210.407z"/>
		</g>
		<g>
			<path d="M207.88,210.885l0.601-0.252l1.672,3.99l-0.602,0.252L207.88,210.885z"/>
		</g>
		<g>
			<path d="M206.742,211.361l0.6-0.252l1.673,3.991l-0.601,0.251L206.742,211.361z"/>
		</g>
		<g>
			<path d="M205.456,211.899l0.804-0.337l3.898,9.311l-0.801,0.336L205.456,211.899z"/>
		</g>
		<g>
			<path d="M204.375,212.353l0.598-0.251l1.674,3.991l-0.599,0.251L204.375,212.353z"/>
		</g>
		<g>
			<path d="M203.236,212.831l0.6-0.253l1.674,3.991l-0.601,0.251L203.236,212.831z"/>
		</g>
		<g>
			<path d="M202.099,213.307l0.601-0.251l1.672,3.991l-0.601,0.252L202.099,213.307z"/>
		</g>
		<g>
			<path d="M200.959,213.783l0.6-0.251l1.674,3.991l-0.603,0.252L200.959,213.783z"/>
		</g>
		<g>
			<path d="M199.674,214.322l0.803-0.336l2.232,5.321l-0.805,0.336L199.674,214.322z"/>
		</g>
		<g>
			<path d="M198.592,214.775l0.603-0.252l1.671,3.992l-0.6,0.251L198.592,214.775z"/>
		</g>
		<g>
			<path d="M197.455,215.253l0.601-0.252l1.673,3.991l-0.602,0.252L197.455,215.253z"/>
		</g>
		<g>
			<path d="M196.318,215.73l0.598-0.252l1.672,3.99l-0.598,0.252L196.318,215.73z"/>
		</g>
		<g>
			<path d="M195.178,216.207l0.601-0.252l1.673,3.99l-0.602,0.252L195.178,216.207z"/>
		</g>
		<g>
			<path d="M193.895,216.744l0.802-0.335l3.901,9.31l-0.803,0.336L193.895,216.744z"/>
		</g>
		<g>
			<path d="M192.811,217.197l0.602-0.251l1.672,3.991l-0.6,0.252L192.811,217.197z"/>
		</g>
		<g>
			<path d="M191.672,217.676l0.602-0.252l1.671,3.991l-0.601,0.252L191.672,217.676z"/>
		</g>
		<g>
			<path d="M190.535,218.153l0.602-0.252l1.671,3.991l-0.603,0.25L190.535,218.153z"/>
		</g>
		<g>
			<path d="M189.396,218.629l0.602-0.25l1.669,3.989l-0.599,0.252L189.396,218.629z"/>
		</g>
		<g>
			<path d="M188.11,219.168l0.804-0.336l2.229,5.322l-0.801,0.334L188.11,219.168z"/>
		</g>
		<g>
			<path d="M187.03,219.621l0.601-0.252l1.672,3.992l-0.602,0.251L187.03,219.621z"/>
		</g>
		<g>
			<path d="M185.89,220.099l0.603-0.252l1.672,3.991l-0.602,0.252L185.89,220.099z"/>
		</g>
		<g>
			<path d="M184.752,220.575l0.602-0.251l1.672,3.99l-0.602,0.252L184.752,220.575z"/>
		</g>
		<g>
			<path d="M183.612,221.053l0.603-0.252l1.672,3.99l-0.602,0.253L183.612,221.053z"/>
		</g>
		<g>
			<path d="M182.331,221.59l0.8-0.336l3.9,9.311l-0.799,0.336L182.331,221.59z"/>
		</g>
		<g>
			<path d="M181.248,222.045l0.6-0.252l1.672,3.99l-0.6,0.252L181.248,222.045z"/>
		</g>
		<g>
			<path d="M180.109,222.521l0.602-0.252l1.672,3.99l-0.6,0.252L180.109,222.521z"/>
		</g>
		<g>
			<path d="M178.973,222.997l0.598-0.25l1.672,3.991l-0.599,0.25L178.973,222.997z"/>
		</g>
		<g>
			<path d="M177.834,223.476l0.6-0.252l1.672,3.991l-0.599,0.252L177.834,223.476z"/>
		</g>
		<g>
			<path d="M176.549,224.014l0.803-0.336l2.229,5.321l-0.801,0.335L176.549,224.014z"/>
		</g>
		<g>
			<path d="M175.465,224.467l0.602-0.252l1.672,3.99l-0.6,0.253L175.465,224.467z"/>
		</g>
		<g>
			<path d="M174.328,224.943l0.6-0.252l1.671,3.99l-0.598,0.254L174.328,224.943z"/>
		</g>
		<g>
			<path d="M173.189,225.422l0.601-0.254l1.673,3.992l-0.602,0.252L173.189,225.422z"/>
		</g>
		<g>
			<path d="M172.049,225.898l0.602-0.251l1.674,3.99l-0.602,0.252L172.049,225.898z"/>
		</g>
		<g>
			<path d="M170.768,226.436l0.801-0.336l3.902,9.311l-0.803,0.335L170.768,226.436z"/>
		</g>
		<g>
			<path d="M169.686,226.891l0.6-0.253l1.673,3.991l-0.602,0.252L169.686,226.891z"/>
		</g>
		<g>
			<path d="M168.546,227.367l0.601-0.252l1.672,3.991l-0.604,0.251L168.546,227.367z"/>
		</g>
		<g>
			<path d="M167.408,227.844l0.602-0.252l1.671,3.991l-0.601,0.252L167.408,227.844z"/>
		</g>
		<g>
			<path d="M166.268,228.32l0.602-0.251l1.673,3.989l-0.601,0.253L166.268,228.32z"/>
		</g>
		<g>
			<path d="M164.984,228.859l0.803-0.336l2.23,5.32l-0.801,0.336L164.984,228.859z"/>
		</g>
		<g>
			<path d="M163.904,229.313l0.598-0.252l1.672,3.99l-0.599,0.252L163.904,229.313z"/>
		</g>
		<g>
			<path d="M162.766,229.79l0.6-0.252l1.674,3.989l-0.604,0.254L162.766,229.79z"/>
		</g>
		<g>
			<path d="M161.626,230.268l0.603-0.252l1.67,3.99l-0.602,0.251L161.626,230.268z"/>
		</g>
		<g>
			<path d="M160.487,230.744l0.601-0.253l1.674,3.991l-0.603,0.251L160.487,230.744z"/>
		</g>
		<g>
			<path d="M159.205,231.281l0.799-0.336l3.903,9.311l-0.802,0.335L159.205,231.281z"/>
		</g>
		<g>
			<path d="M158.121,231.735l0.602-0.252l1.672,3.991l-0.602,0.252L158.121,231.735z"/>
		</g>
		<g>
			<path d="M156.982,232.213l0.602-0.252l1.67,3.99l-0.598,0.252L156.982,232.213z"/>
		</g>
		<g>
			<path d="M155.844,232.689l0.601-0.252l1.673,3.99l-0.6,0.252L155.844,232.689z"/>
		</g>
		<g>
			<path d="M154.705,233.166l0.602-0.252l1.674,3.992l-0.602,0.25L154.705,233.166z"/>
		</g>
		<g>
			<path d="M153.422,233.704l0.805-0.335l2.229,5.32l-0.805,0.335L153.422,233.704z"/>
		</g>
	</g>
	<g>
		<path d="M166.45,247.504l-1.692-4.04l-0.676,0.282l-0.233-0.553c0.181-0.102,0.332-0.25,0.453-0.443
			c0.119-0.192,0.182-0.392,0.186-0.597l0.555-0.232l2.2,5.252L166.45,247.504z"/>
		<path d="M175.178,239.421c-0.206-0.497-0.232-0.933-0.076-1.308c0.136-0.33,0.395-0.572,0.77-0.73
			c0.344-0.145,0.695-0.139,1.049,0.02c0.354,0.156,0.6,0.408,0.746,0.754c0.148,0.358,0.215,0.736,0.195,1.135
			c-0.01,0.221-0.08,0.623-0.208,1.206c-0.036,0.158-0.083,0.403-0.146,0.733l-0.053,0.274c-0.035,0.179-0.059,0.317-0.07,0.419
			c-0.006,0.05-0.006,0.08-0.004,0.09l1.555-0.652l0.325,0.775l-2.519,1.055l-0.305-0.727c-0.005-0.016,0.014-0.137,0.053-0.361
			c0.021-0.104,0.043-0.219,0.067-0.344l0.083-0.383c0.053-0.215,0.129-0.557,0.236-1.028c0.1-0.442,0.15-0.827,0.156-1.153
			c0.004-0.268-0.037-0.5-0.119-0.695c-0.066-0.158-0.168-0.274-0.303-0.35c-0.146-0.074-0.298-0.082-0.453-0.018
			c-0.219,0.092-0.32,0.285-0.307,0.577c0.002,0.099,0.031,0.206,0.078,0.321l0.084,0.201l-0.779,0.326L175.178,239.421z"/>
		<path d="M189.205,237.02c0.363-0.152,0.473-0.399,0.33-0.736l-0.127-0.309c-0.225-0.537-0.621-0.688-1.184-0.453l-0.285-0.678
			c0.305-0.127,0.493-0.307,0.566-0.537c0.071-0.209,0.048-0.453-0.068-0.729l-0.051-0.121c-0.145-0.344-0.365-0.451-0.668-0.325
			c-0.166,0.07-0.263,0.186-0.287,0.345c-0.018,0.123,0.004,0.262,0.07,0.416l0.058,0.138l-0.776,0.325l-0.051-0.122
			c-0.156-0.373-0.188-0.718-0.098-1.031c0.102-0.359,0.352-0.62,0.741-0.784c0.372-0.154,0.72-0.154,1.05,0.004
			c0.295,0.143,0.514,0.381,0.656,0.719l0.092,0.223c0.137,0.326,0.158,0.65,0.061,0.969c-0.039,0.135-0.102,0.262-0.184,0.379
			c0.287,0.033,0.555,0.156,0.793,0.371c0.127,0.107,0.23,0.26,0.311,0.455l0.174,0.415c0.164,0.388,0.162,0.763,0.004,1.121
			c-0.154,0.347-0.411,0.596-0.766,0.745c-0.35,0.146-0.699,0.146-1.045,0.003c-0.346-0.144-0.59-0.388-0.734-0.73l-0.053-0.13
			l0.729-0.375l0.093,0.178c0.065,0.127,0.159,0.215,0.276,0.264C188.949,237.078,189.074,237.074,189.205,237.02z"/>
		<path d="M198.602,231.766l0.006-3.911l0.791-0.332l1.396,3.325l0.506-0.213l0.332,0.798l-0.506,0.212l0.473,1.13l-0.789,0.332
			l-0.477-1.131l-1.398,0.587L198.602,231.766z M200.002,231.18l-0.688-1.64l0.033,1.913L200.002,231.18z"/>
		<path d="M210.475,223.744l0.472,1.126c0.032-0.145,0.106-0.276,0.224-0.399c0.061-0.063,0.146-0.115,0.245-0.156
			c0.348-0.145,0.655-0.131,0.921,0.043c0.23,0.149,0.426,0.415,0.587,0.797l0.474,1.131c0.164,0.389,0.172,0.758,0.032,1.109
			c-0.134,0.339-0.38,0.583-0.737,0.732c-0.346,0.145-0.687,0.141-1.02-0.014c-0.324-0.148-0.557-0.396-0.701-0.742l-0.051-0.125
			l0.732-0.377l0.092,0.174c0.107,0.2,0.252,0.305,0.43,0.311c0.056,0.004,0.107-0.005,0.158-0.025
			c0.323-0.136,0.414-0.373,0.273-0.711l-0.539-1.285c-0.064-0.154-0.174-0.257-0.328-0.312c-0.074-0.024-0.158-0.016-0.252,0.024
			c-0.143,0.059-0.225,0.155-0.246,0.293c-0.016,0.118-0.002,0.23,0.043,0.337l0.061,0.143l-0.791,0.331l-1.203-2.869l2.317-0.971
			l0.334,0.795L210.475,223.744z"/>
		<path d="M222.977,219.109l-0.053-0.129c-0.057-0.129-0.135-0.223-0.238-0.281c-0.109-0.06-0.224-0.063-0.349-0.011
			c-0.124,0.053-0.205,0.139-0.235,0.255c-0.031,0.115-0.019,0.238,0.033,0.367l0.439,1.047c0.113-0.238,0.279-0.402,0.497-0.493
			c0.347-0.146,0.661-0.136,0.936,0.035c0.244,0.15,0.443,0.41,0.603,0.788l0.375,0.899l-0.005,0.002
			c0.125,0.343,0.122,0.673-0.009,0.994c-0.129,0.319-0.357,0.55-0.684,0.685c-0.35,0.148-0.69,0.144-1.02-0.01
			c-0.321-0.147-0.555-0.395-0.701-0.741l-1.199-2.865c-0.106-0.257-0.143-0.515-0.105-0.773c0.039-0.259,0.152-0.485,0.338-0.682
			c0.115-0.128,0.264-0.229,0.435-0.301c0.347-0.144,0.687-0.14,1.021,0.015c0.322,0.148,0.557,0.395,0.701,0.74l0.045,0.113
			L222.977,219.109z M223.337,222.18c0.056,0.129,0.132,0.221,0.232,0.277c0.107,0.063,0.225,0.067,0.354,0.015
			c0.124-0.053,0.203-0.141,0.234-0.263c0.032-0.111,0.023-0.23-0.031-0.36l-0.406-0.972c-0.063-0.15-0.174-0.25-0.326-0.306
			c-0.074-0.024-0.158-0.017-0.254,0.022c-0.141,0.059-0.219,0.154-0.242,0.294c-0.02,0.112-0.008,0.224,0.039,0.332L223.337,222.18
			z"/>
		<path d="M234.838,212.672l0.335,0.797l0.755,4.922l-0.777,0.325l-0.755-4.922l-1.601,0.672l-0.333-0.796L234.838,212.672z"/>
		<path d="M248.174,211.786c0.146,0.349,0.148,0.696,0.004,1.043c-0.145,0.347-0.389,0.591-0.736,0.736l-0.061,0.026
			c-0.351,0.146-0.698,0.146-1.044,0.003c-0.346-0.143-0.59-0.386-0.735-0.731l-0.198-0.477c-0.136-0.32-0.145-0.646-0.032-0.977
			c0.05-0.143,0.123-0.271,0.217-0.392c-0.26-0.02-0.498-0.131-0.721-0.337c-0.115-0.107-0.215-0.26-0.297-0.457l-0.119-0.285
			c-0.143-0.341-0.16-0.664-0.053-0.973c0.117-0.344,0.359-0.594,0.73-0.748l0.063-0.027c0.372-0.154,0.721-0.154,1.049,0.004
			c0.297,0.142,0.514,0.382,0.658,0.72l0.117,0.284c0.137,0.326,0.152,0.639,0.047,0.936c-0.047,0.131-0.111,0.247-0.193,0.349
			c0.289,0.032,0.555,0.155,0.795,0.37c0.125,0.108,0.227,0.26,0.309,0.455L248.174,211.786z M246.281,209.426
			c-0.152-0.357-0.361-0.535-0.619-0.535c-0.061-0.002-0.125,0.014-0.195,0.043c-0.137,0.057-0.23,0.141-0.287,0.252
			c-0.047,0.091-0.062,0.189-0.049,0.298c0.008,0.109,0.048,0.234,0.113,0.377c0.107,0.225,0.211,0.374,0.317,0.448
			c0.14,0.098,0.304,0.107,0.492,0.027c0.191-0.08,0.3-0.208,0.326-0.387C246.402,209.8,246.371,209.624,246.281,209.426z
			 M247.227,211.746c-0.133-0.313-0.291-0.492-0.479-0.539c-0.087-0.022-0.19-0.008-0.31,0.043c-0.21,0.088-0.315,0.235-0.317,0.447
			c0.002,0.126,0.041,0.281,0.117,0.463l0.104,0.251c0.072,0.173,0.186,0.291,0.338,0.352c0.126,0.052,0.256,0.052,0.393,0.003
			c0.211-0.102,0.316-0.27,0.314-0.507c0.004-0.078-0.016-0.167-0.056-0.262L247.227,211.746z"/>
		<path d="M256.727,203.359c0.347-0.146,0.686-0.141,1.021,0.014c0.321,0.148,0.552,0.396,0.698,0.741l1.201,2.865
			c0.145,0.349,0.154,0.692,0.029,1.03c-0.125,0.34-0.359,0.579-0.699,0.722c-0.348,0.147-0.688,0.143-1.018-0.011
			c-0.322-0.148-0.555-0.395-0.698-0.74l-0.048-0.114l0.818-0.344l0.057,0.13c0.053,0.129,0.133,0.223,0.236,0.279
			c0.105,0.058,0.221,0.061,0.346,0.008c0.127-0.052,0.205-0.136,0.235-0.252c0.034-0.115,0.021-0.236-0.03-0.364l-0.441-1.053
			c-0.116,0.243-0.28,0.409-0.496,0.499c-0.344,0.144-0.656,0.132-0.93-0.038c-0.244-0.148-0.443-0.411-0.603-0.791l-0.378-0.901
			l0.002-0.002c-0.09-0.246-0.111-0.494-0.066-0.741c0.045-0.247,0.158-0.465,0.337-0.65
			C256.416,203.524,256.559,203.43,256.727,203.359z M257.67,204.449c-0.055-0.129-0.131-0.221-0.24-0.281
			c-0.103-0.06-0.219-0.063-0.344-0.011c-0.127,0.054-0.205,0.138-0.237,0.255c-0.03,0.115-0.02,0.238,0.036,0.367l0.404,0.971
			c0.065,0.154,0.175,0.258,0.328,0.311c0.068,0.028,0.152,0.022,0.25-0.02c0.201-0.084,0.283-0.243,0.245-0.476
			c-0.015-0.07-0.026-0.122-0.041-0.155L257.67,204.449z"/>
		<path d="M268.894,204.577l-1.694-4.041l-0.674,0.282l-0.232-0.553c0.181-0.102,0.332-0.25,0.453-0.443
			c0.119-0.193,0.182-0.393,0.188-0.596l0.551-0.233l2.201,5.253L268.894,204.577z"/>
		<path d="M272.365,201.65c0.143,0.35,0.147,0.696,0.002,1.043c-0.145,0.346-0.389,0.591-0.732,0.733
			c-0.346,0.147-0.695,0.149-1.041,0.008c-0.348-0.143-0.594-0.387-0.738-0.733l-1.201-2.865c-0.146-0.348-0.147-0.695-0.005-1.043
			c0.144-0.348,0.388-0.594,0.733-0.738c0.352-0.146,0.697-0.149,1.043-0.004c0.35,0.144,0.592,0.389,0.738,0.734L272.365,201.65z
			 M270.337,199.113c-0.056-0.127-0.146-0.215-0.271-0.267c-0.127-0.052-0.252-0.053-0.379,0.001
			c-0.126,0.053-0.215,0.143-0.265,0.268c-0.052,0.127-0.048,0.252,0.003,0.379l1.201,2.869c0.054,0.125,0.143,0.213,0.27,0.268
			c0.123,0.051,0.251,0.053,0.376-0.001c0.124-0.054,0.214-0.143,0.266-0.268c0.052-0.128,0.052-0.254,0-0.379L270.337,199.113z"/>
		<path d="M280.832,199.574l-1.692-4.041l-0.675,0.283l-0.232-0.553c0.18-0.103,0.332-0.252,0.451-0.443
			c0.121-0.193,0.184-0.393,0.186-0.598l0.555-0.232l2.198,5.252L280.832,199.574z"/>
		<path d="M282.946,198.688l-1.692-4.04l-0.676,0.282l-0.232-0.553c0.182-0.102,0.332-0.25,0.453-0.443
			c0.121-0.193,0.182-0.393,0.186-0.598l0.555-0.23l2.198,5.251L282.946,198.688z"/>
		<path d="M292.686,194.607l-1.695-4.041l-0.676,0.283l-0.23-0.553c0.181-0.102,0.332-0.251,0.451-0.443
			c0.121-0.193,0.182-0.392,0.186-0.598l0.553-0.232l2.203,5.251L292.686,194.607z"/>
		<path d="M292.559,190.233c-0.207-0.496-0.232-0.933-0.074-1.307c0.135-0.329,0.389-0.572,0.768-0.732
			c0.346-0.145,0.694-0.139,1.049,0.02c0.353,0.157,0.602,0.408,0.747,0.754c0.151,0.358,0.214,0.736,0.196,1.136
			c-0.012,0.222-0.082,0.622-0.211,1.206c-0.033,0.158-0.084,0.402-0.145,0.734l-0.053,0.272c-0.035,0.179-0.059,0.317-0.07,0.42
			c-0.005,0.05-0.007,0.08-0.005,0.089l1.558-0.651l0.324,0.774l-2.518,1.055l-0.305-0.726c-0.008-0.017,0.008-0.137,0.049-0.361
			c0.021-0.104,0.045-0.218,0.07-0.343l0.082-0.385c0.053-0.214,0.129-0.558,0.234-1.027c0.102-0.443,0.154-0.827,0.157-1.154
			c0.003-0.268-0.036-0.498-0.117-0.693c-0.065-0.158-0.167-0.275-0.305-0.351c-0.146-0.075-0.298-0.082-0.449-0.019
			c-0.222,0.094-0.323,0.287-0.309,0.579c0.002,0.097,0.031,0.204,0.078,0.321l0.086,0.199l-0.779,0.326L292.559,190.233z"/>
		<path d="M304.264,189.755l-1.692-4.041l-0.674,0.283l-0.233-0.554c0.18-0.102,0.332-0.25,0.453-0.443
			c0.119-0.193,0.184-0.392,0.186-0.597l0.552-0.231l2.2,5.252L304.264,189.755z"/>
		<path d="M306.575,187.836c0.364-0.152,0.476-0.396,0.333-0.734l-0.128-0.31c-0.225-0.538-0.622-0.689-1.186-0.453l-0.283-0.678
			c0.307-0.127,0.495-0.306,0.568-0.538c0.067-0.209,0.045-0.452-0.07-0.728l-0.049-0.122c-0.145-0.343-0.367-0.451-0.67-0.324
			c-0.168,0.07-0.264,0.184-0.287,0.346c-0.02,0.122,0.005,0.26,0.069,0.414l0.059,0.139l-0.775,0.325l-0.05-0.122
			c-0.156-0.373-0.19-0.719-0.1-1.032c0.104-0.358,0.352-0.618,0.741-0.782c0.37-0.156,0.722-0.154,1.05,0.003
			c0.297,0.142,0.515,0.382,0.657,0.719l0.093,0.223c0.137,0.326,0.156,0.649,0.061,0.969c-0.043,0.136-0.105,0.261-0.188,0.378
			c0.291,0.033,0.557,0.156,0.795,0.371c0.127,0.109,0.228,0.261,0.31,0.457l0.174,0.414c0.162,0.389,0.164,0.762,0.002,1.121
			c-0.152,0.348-0.408,0.596-0.764,0.744c-0.352,0.146-0.701,0.148-1.045,0.004c-0.344-0.145-0.592-0.388-0.734-0.73l-0.053-0.13
			l0.727-0.375l0.095,0.177c0.065,0.127,0.159,0.216,0.276,0.265C306.32,187.893,306.445,187.891,306.575,187.836z"/>
		<path d="M315.359,185.105l-1.691-4.041l-0.676,0.282l-0.229-0.552c0.179-0.102,0.327-0.251,0.448-0.443
			c0.123-0.193,0.184-0.393,0.186-0.597l0.557-0.231l2.199,5.25L315.359,185.105z"/>
		<path d="M315.977,182.583l0.006-3.913l0.791-0.33l1.395,3.324l0.506-0.212l0.334,0.797l-0.506,0.212l0.471,1.129l-0.789,0.332
			l-0.475-1.129l-1.398,0.586L315.977,182.583z M317.376,181.996l-0.688-1.641l0.034,1.914L317.376,181.996z"/>
		<path d="M327.027,180.217l-1.693-4.041l-0.675,0.282l-0.231-0.554c0.184-0.102,0.331-0.25,0.453-0.441
			c0.119-0.194,0.183-0.393,0.185-0.598l0.554-0.232l2.199,5.252L327.027,180.217z"/>
		<path d="M327.465,174.721l0.473,1.126c0.033-0.145,0.108-0.277,0.225-0.4c0.063-0.062,0.145-0.114,0.246-0.155
			c0.346-0.145,0.654-0.133,0.92,0.043c0.231,0.148,0.428,0.416,0.584,0.797l0.477,1.131c0.162,0.389,0.172,0.758,0.029,1.109
			c-0.131,0.34-0.377,0.584-0.734,0.732c-0.347,0.145-0.689,0.141-1.021-0.015c-0.321-0.149-0.555-0.395-0.699-0.741l-0.052-0.125
			l0.732-0.377l0.093,0.172c0.107,0.201,0.252,0.307,0.43,0.313c0.053,0.003,0.106-0.006,0.156-0.027
			c0.324-0.135,0.416-0.372,0.276-0.709l-0.54-1.286c-0.064-0.153-0.172-0.257-0.33-0.312c-0.07-0.023-0.154-0.017-0.25,0.024
			c-0.142,0.058-0.223,0.156-0.244,0.294c-0.016,0.119-0.004,0.231,0.041,0.338l0.061,0.142l-0.792,0.331l-1.2-2.868l2.313-0.971
			l0.335,0.796L327.465,174.721z"/>
		<path d="M338.608,175.364l-1.694-4.042l-0.674,0.283l-0.232-0.553c0.18-0.103,0.331-0.25,0.45-0.443
			c0.121-0.193,0.184-0.392,0.188-0.598l0.555-0.23l2.199,5.251L338.608,175.364z"/>
		<path d="M339.984,170.08l-0.055-0.13c-0.055-0.128-0.135-0.223-0.239-0.282c-0.106-0.059-0.222-0.061-0.348-0.01
			c-0.126,0.053-0.203,0.139-0.233,0.254c-0.032,0.117-0.022,0.24,0.033,0.369l0.438,1.047c0.115-0.238,0.279-0.402,0.497-0.494
			c0.347-0.146,0.661-0.135,0.935,0.035c0.242,0.15,0.443,0.411,0.601,0.789l0.377,0.899l-0.003,0.001
			c0.123,0.343,0.119,0.674-0.009,0.994c-0.131,0.32-0.358,0.55-0.687,0.686c-0.347,0.148-0.688,0.144-1.018-0.011
			c-0.322-0.148-0.555-0.395-0.699-0.741l-1.203-2.865c-0.106-0.257-0.141-0.515-0.103-0.772c0.041-0.259,0.152-0.487,0.338-0.683
			c0.117-0.129,0.264-0.227,0.436-0.3c0.346-0.145,0.686-0.142,1.02,0.015c0.32,0.148,0.555,0.395,0.699,0.74l0.049,0.113
			L339.984,170.08z M340.344,173.148c0.054,0.129,0.133,0.223,0.23,0.278c0.107,0.063,0.227,0.067,0.352,0.015
			c0.125-0.053,0.206-0.141,0.238-0.262c0.031-0.111,0.023-0.23-0.034-0.36l-0.406-0.972c-0.062-0.15-0.171-0.252-0.326-0.306
			c-0.073-0.026-0.158-0.019-0.255,0.022c-0.137,0.058-0.217,0.155-0.24,0.293c-0.02,0.113-0.006,0.225,0.041,0.333L340.344,173.148
			z"/>
		<path d="M350.316,170.457l-1.693-4.04l-0.677,0.282l-0.231-0.552c0.182-0.103,0.333-0.251,0.453-0.443
			c0.121-0.192,0.184-0.392,0.184-0.598l0.555-0.232l2.201,5.252L350.316,170.457z"/>
		<path d="M351.829,163.65l0.333,0.795l0.758,4.921l-0.777,0.325l-0.758-4.92l-1.602,0.67l-0.332-0.795L351.829,163.65z"/>
	</g>
</g>
<g>
	<g>
		<path style="fill:#E4D6A7;" d="M254.674,364.293c0,0-5.178-17.952,0.68-37.248l93.724-28.975v35.279L254.674,364.293z"/>
		<linearGradient id="SVGID_1_" gradientUnits="userSpaceOnUse" x1="87.3402" y1="346.9009" x2="255.3536" y2="346.9009">
			<stop  offset="0.122" style="stop-color:#E4472E"/>
			<stop  offset="0.9707" style="stop-color:#700811"/>
		</linearGradient>
		<path style="fill:url(#SVGID_1_);" d="M93.464,327.045h161.89c0,0-6.2,18.911,0,39.712H93.464
			C93.464,366.757,79.686,349.196,93.464,327.045z"/>
		
			<linearGradient id="SVGID_00000071532627662194419680000007311620917302505605_" gradientUnits="userSpaceOnUse" x1="93.4639" y1="311.4985" x2="355.9287" y2="311.4985">
			<stop  offset="0.122" style="stop-color:#E4472E"/>
			<stop  offset="0.9707" style="stop-color:#700811"/>
		</linearGradient>
		<polygon style="fill:url(#SVGID_00000071532627662194419680000007311620917302505605_);" points="93.464,327.045 207.818,295.952 
			355.929,295.952 255.354,327.045 		"/>
		
			<linearGradient id="SVGID_00000145771208888027290660000003089960759015464592_" gradientUnits="userSpaceOnUse" x1="254.6739" y1="350.0533" x2="355.9287" y2="350.0533">
			<stop  offset="0.122" style="stop-color:#E4472E"/>
			<stop  offset="0.9707" style="stop-color:#700811"/>
		</linearGradient>
		<path style="fill:url(#SVGID_00000145771208888027290660000003089960759015464592_);" d="M255.354,366.757l100.575-33.407h-6.852
			l-94.403,30.943C254.674,364.293,255.008,365.934,255.354,366.757z"/>
		<g>
			<path style="fill:#CDB583;" d="M256.902,330.21c0,0,1.386-0.514,3.813-1.409c1.202-0.443,2.663-0.984,4.34-1.604
				c0.836-0.308,1.719-0.633,2.654-0.975c0.934-0.341,1.943-0.581,2.977-0.916c8.38-2.585,19.551-6.031,30.723-9.478
				c11.167-3.457,22.337-6.913,30.714-9.507c1.054-0.304,2.033-0.686,3.008-0.919c0.97-0.242,1.892-0.471,2.76-0.685
				c1.727-0.432,3.237-0.809,4.479-1.119c2.492-0.602,3.915-0.944,3.915-0.944s-1.368,0.523-3.762,1.436
				c-1.2,0.448-2.657,0.991-4.329,1.614c-0.838,0.311-1.725,0.643-2.662,0.991c-0.936,0.358-1.959,0.601-3.003,0.943
				c-8.376,2.593-19.545,6.05-30.715,9.507c-11.175,3.447-22.347,6.894-30.728,9.479c-1.062,0.306-2.058,0.683-3.037,0.927
				c-0.975,0.242-1.9,0.471-2.77,0.688c-1.732,0.42-3.242,0.789-4.485,1.091C258.319,329.891,256.902,330.21,256.902,330.21z"/>
			<path style="fill:#CDB583;" d="M256.902,334.343c0,0,1.386-0.511,3.813-1.408c1.202-0.445,2.663-0.986,4.34-1.605
				c0.836-0.306,1.719-0.631,2.654-0.973c0.934-0.341,1.943-0.581,2.977-0.916c8.38-2.586,19.551-6.031,30.723-9.478
				c11.167-3.457,22.337-6.915,30.714-9.506c1.054-0.306,2.033-0.687,3.008-0.92c0.97-0.241,1.892-0.472,2.76-0.687
				c1.727-0.433,3.237-0.809,4.479-1.117c2.492-0.602,3.915-0.945,3.915-0.945s-1.368,0.522-3.762,1.436
				c-1.2,0.447-2.657,0.991-4.329,1.614c-0.838,0.311-1.725,0.642-2.662,0.991c-0.936,0.358-1.959,0.598-3.003,0.943
				c-8.376,2.594-19.545,6.049-30.715,9.506c-11.175,3.447-22.347,6.895-30.728,9.48c-1.062,0.306-2.058,0.682-3.037,0.925
				c-0.975,0.243-1.9,0.474-2.77,0.689c-1.732,0.421-3.242,0.789-4.485,1.094C258.319,334.024,256.902,334.343,256.902,334.343z"/>
			<path style="fill:#CDB583;" d="M256.902,338.477c0,0,1.386-0.513,3.813-1.407c1.202-0.447,2.663-0.987,4.34-1.608
				c0.836-0.305,1.719-0.63,2.654-0.974c0.934-0.34,1.943-0.578,2.977-0.913c8.38-2.586,19.551-6.032,30.723-9.478
				c11.167-3.456,22.337-6.915,30.714-9.507c1.054-0.305,2.033-0.685,3.008-0.918c0.97-0.242,1.892-0.472,2.76-0.688
				c1.727-0.431,3.237-0.808,4.479-1.117c2.492-0.602,3.915-0.945,3.915-0.945s-1.368,0.522-3.762,1.436
				c-1.2,0.447-2.657,0.989-4.329,1.612c-0.838,0.312-1.725,0.644-2.662,0.992c-0.936,0.359-1.959,0.6-3.003,0.943
				c-8.376,2.593-19.545,6.051-30.715,9.507c-11.175,3.446-22.347,6.894-30.728,9.479c-1.062,0.307-2.058,0.681-3.037,0.927
				c-0.975,0.241-1.9,0.471-2.77,0.688c-1.732,0.421-3.242,0.789-4.485,1.093C258.319,338.157,256.902,338.477,256.902,338.477z"/>
			<path style="fill:#CDB583;" d="M256.902,342.61c0,0,1.386-0.512,3.813-1.408c1.202-0.446,2.663-0.986,4.34-1.607
				c0.836-0.306,1.719-0.631,2.654-0.974c0.934-0.341,1.943-0.579,2.977-0.916c8.38-2.584,19.551-6.03,30.723-9.477
				c11.167-3.457,22.337-6.914,30.714-9.507c1.054-0.304,2.033-0.685,3.008-0.919c0.97-0.243,1.892-0.471,2.76-0.687
				c1.727-0.433,3.237-0.809,4.479-1.118c2.492-0.602,3.915-0.944,3.915-0.944s-1.368,0.522-3.762,1.436
				c-1.2,0.447-2.657,0.99-4.329,1.614c-0.838,0.311-1.725,0.643-2.662,0.991c-0.936,0.358-1.959,0.599-3.003,0.943
				c-8.376,2.592-19.545,6.049-30.715,9.507c-11.175,3.446-22.347,6.895-30.728,9.479c-1.062,0.307-2.058,0.682-3.037,0.927
				c-0.975,0.243-1.9,0.472-2.77,0.688c-1.732,0.422-3.242,0.79-4.485,1.092C258.319,342.29,256.902,342.61,256.902,342.61z"/>
			<path style="fill:#CDB583;" d="M256.902,346.743c0,0,1.386-0.512,3.813-1.408c1.202-0.445,2.663-0.986,4.34-1.605
				c0.836-0.306,1.719-0.631,2.654-0.973c0.934-0.342,1.943-0.582,2.977-0.917c8.38-2.584,19.551-6.03,30.723-9.478
				c11.167-3.456,22.337-6.914,30.714-9.506c1.054-0.305,2.033-0.687,3.008-0.919c0.97-0.242,1.892-0.472,2.76-0.686
				c1.727-0.433,3.237-0.809,4.479-1.119c2.492-0.601,3.915-0.943,3.915-0.943s-1.368,0.522-3.762,1.435
				c-1.2,0.447-2.657,0.99-4.329,1.613c-0.838,0.311-1.725,0.643-2.662,0.992c-0.936,0.358-1.959,0.598-3.003,0.943
				c-8.376,2.592-19.545,6.048-30.715,9.506c-11.175,3.447-22.347,6.895-30.728,9.478c-1.062,0.308-2.058,0.684-3.037,0.927
				c-0.975,0.242-1.9,0.472-2.77,0.688c-1.732,0.422-3.242,0.79-4.485,1.094C258.319,346.424,256.902,346.743,256.902,346.743z"/>
			<path style="fill:#CDB583;" d="M256.902,350.877c0,0,1.386-0.513,3.813-1.408c1.202-0.445,2.663-0.986,4.34-1.607
				c0.836-0.307,1.719-0.631,2.654-0.975c0.934-0.34,1.943-0.578,2.977-0.915c8.38-2.585,19.551-6.03,30.723-9.477
				c11.167-3.458,22.337-6.914,30.714-9.506c1.054-0.306,2.033-0.688,3.008-0.92c0.97-0.242,1.892-0.472,2.76-0.688
				c1.727-0.431,3.237-0.808,4.479-1.116c2.492-0.602,3.915-0.945,3.915-0.945s-1.368,0.522-3.762,1.436
				c-1.2,0.446-2.657,0.99-4.329,1.613c-0.838,0.312-1.725,0.643-2.662,0.993c-0.936,0.357-1.959,0.598-3.003,0.941
				c-8.376,2.594-19.545,6.05-30.715,9.507c-11.175,3.447-22.347,6.895-30.728,9.479c-1.062,0.308-2.058,0.682-3.037,0.927
				c-0.975,0.242-1.9,0.472-2.77,0.688c-1.732,0.422-3.242,0.789-4.485,1.093C258.319,350.558,256.902,350.877,256.902,350.877z"/>
			<path style="fill:#CDB583;" d="M256.902,355.009c0,0,1.386-0.512,3.813-1.408c1.202-0.443,2.663-0.984,4.34-1.604
				c0.836-0.306,1.719-0.631,2.654-0.975c0.934-0.339,1.943-0.58,2.977-0.915c8.38-2.586,19.551-6.03,30.723-9.477
				c11.167-3.457,22.337-6.914,30.714-9.507c1.054-0.306,2.033-0.686,3.008-0.92c0.97-0.241,1.892-0.47,2.76-0.686
				c1.727-0.432,3.237-0.808,4.479-1.118c2.492-0.6,3.915-0.943,3.915-0.943s-1.368,0.522-3.762,1.435
				c-1.2,0.447-2.657,0.99-4.329,1.613c-0.838,0.311-1.725,0.643-2.662,0.992c-0.936,0.358-1.959,0.597-3.003,0.942
				c-8.376,2.594-19.545,6.05-30.715,9.508c-11.175,3.446-22.347,6.893-30.728,9.479c-1.062,0.307-2.058,0.682-3.037,0.927
				c-0.975,0.241-1.9,0.472-2.77,0.686c-1.732,0.423-3.242,0.791-4.485,1.092C258.319,354.69,256.902,355.009,256.902,355.009z"/>
			<path style="fill:#CDB583;" d="M256.902,359.144c0,0,1.386-0.512,3.813-1.409c1.202-0.446,2.663-0.985,4.34-1.606
				c0.836-0.304,1.719-0.631,2.654-0.973c0.934-0.34,1.943-0.58,2.977-0.916c8.38-2.583,19.551-6.029,30.723-9.477
				c11.167-3.457,22.337-6.914,30.714-9.506c1.054-0.306,2.033-0.686,3.008-0.92c0.97-0.242,1.892-0.471,2.76-0.688
				c1.727-0.432,3.237-0.808,4.479-1.117c2.492-0.6,3.915-0.944,3.915-0.944s-1.368,0.522-3.762,1.437
				c-1.2,0.446-2.657,0.99-4.329,1.613c-0.838,0.311-1.725,0.643-2.662,0.991c-0.936,0.357-1.959,0.598-3.003,0.942
				c-8.376,2.593-19.545,6.051-30.715,9.507c-11.175,3.448-22.347,6.895-30.728,9.479c-1.062,0.306-2.058,0.683-3.037,0.926
				c-0.975,0.243-1.9,0.473-2.77,0.689c-1.732,0.421-3.242,0.79-4.485,1.093C258.319,358.823,256.902,359.144,256.902,359.144z"/>
		</g>
		<defs>
			<filter id="Adobe_OpacityMaskFilter" filterUnits="userSpaceOnUse" x="90.613" y="331.412" width="161.469" height="27.907">
				<feFlood  style="flood-color:white;flood-opacity:1" result="back"/>
				<feBlend  in="SourceGraphic" in2="back" mode="normal"/>
			</filter>
		</defs>
		
			<mask maskUnits="userSpaceOnUse" x="90.613" y="331.412" width="161.469" height="27.907" id="SVGID_00000121260604329281027930000004396343775920204725_">
			<g style="filter:url(#Adobe_OpacityMaskFilter);">
				<defs>
					
						<filter id="Adobe_OpacityMaskFilter_00000181076745936227822540000005084546396502424213_" filterUnits="userSpaceOnUse" x="90.613" y="331.412" width="161.469" height="27.907">
						<feFlood  style="flood-color:white;flood-opacity:1" result="back"/>
						<feBlend  in="SourceGraphic" in2="back" mode="normal"/>
					</filter>
				</defs>
				
					<mask maskUnits="userSpaceOnUse" x="90.613" y="331.412" width="161.469" height="27.907" id="SVGID_00000121260604329281027930000004396343775920204725_">
					<g style="filter:url(#Adobe_OpacityMaskFilter_00000181076745936227822540000005084546396502424213_);">
					</g>
				</mask>
				
					<linearGradient id="SVGID_00000039093514226868683590000007809282999395849357_" gradientUnits="userSpaceOnUse" x1="171.3474" y1="320.227" x2="171.3474" y2="380.0209">
					<stop  offset="0" style="stop-color:#FFFFFF"/>
					<stop  offset="0.0074" style="stop-color:#F6F6F6"/>
					<stop  offset="0.0477" style="stop-color:#C8C8C8"/>
					<stop  offset="0.0931" style="stop-color:#9D9D9D"/>
					<stop  offset="0.1419" style="stop-color:#777777"/>
					<stop  offset="0.195" style="stop-color:#575757"/>
					<stop  offset="0.2537" style="stop-color:#3B3B3B"/>
					<stop  offset="0.32" style="stop-color:#252525"/>
					<stop  offset="0.3974" style="stop-color:#141414"/>
					<stop  offset="0.4931" style="stop-color:#090909"/>
					<stop  offset="0.6274" style="stop-color:#020202"/>
					<stop  offset="1" style="stop-color:#000000"/>
				</linearGradient>
				
					<path style="mask:url(#SVGID_00000121260604329281027930000004396343775920204725_);fill:url(#SVGID_00000039093514226868683590000007809282999395849357_);" d="
					M96.498,331.412h155.584c0,0-5.96,13.288,0,27.907H96.498C96.498,359.319,83.256,346.978,96.498,331.412z"/>
			</g>
		</mask>
		
			<linearGradient id="SVGID_00000054264591898778413050000000698869854486451079_" gradientUnits="userSpaceOnUse" x1="171.3474" y1="320.227" x2="171.3474" y2="380.0209">
			<stop  offset="0" style="stop-color:#FFFFFF"/>
			<stop  offset="0.1413" style="stop-color:#FFFFFF"/>
			<stop  offset="1" style="stop-color:#FFFFFF"/>
		</linearGradient>
		<path style="fill:url(#SVGID_00000054264591898778413050000000698869854486451079_);" d="M96.498,331.412h155.584
			c0,0-5.96,13.288,0,27.907H96.498C96.498,359.319,83.256,346.978,96.498,331.412z"/>
		
			<linearGradient id="SVGID_00000012461599806374639610000007597383998452489376_" gradientUnits="userSpaceOnUse" x1="87.3402" y1="346.9009" x2="255.3569" y2="346.9009">
			<stop  offset="0" style="stop-color:#BDBEC4"/>
			<stop  offset="1" style="stop-color:#FFFFFF"/>
		</linearGradient>
		<path style="fill:url(#SVGID_00000012461599806374639610000007597383998452489376_);" d="M166.975,365.183
			c-18.672-3.074-36.298-8.908-51.392-20.613c-6.328-4.906-12.461-10.749-16.346-17.525h-5.772c-13.778,22.151,0,39.712,0,39.712
			h84.176C174.064,366.29,170.51,365.765,166.975,365.183z"/>
		
			<linearGradient id="SVGID_00000092426857064397301700000008039246830228639637_" gradientUnits="userSpaceOnUse" x1="87.3379" y1="366.4536" x2="255.3536" y2="366.4536">
			<stop  offset="0" style="stop-color:#BDBEC4"/>
			<stop  offset="1" style="stop-color:#FFFFFF"/>
		</linearGradient>
		<path style="fill:url(#SVGID_00000092426857064397301700000008039246830228639637_);" d="M251.337,366.757h4.017
			c-0.061-0.202-0.113-0.404-0.172-0.607C253.901,366.364,252.623,366.566,251.337,366.757z"/>
		
			<linearGradient id="SVGID_00000086656809338372045450000000471053584569148299_" gradientUnits="userSpaceOnUse" x1="87.34" y1="346.9009" x2="255.354" y2="346.9009">
			<stop  offset="0" style="stop-color:#BDBEC4"/>
			<stop  offset="1" style="stop-color:#FFFFFF"/>
		</linearGradient>
		<path style="fill:url(#SVGID_00000086656809338372045450000000471053584569148299_);" d="M255.354,327.045H166.33
			c6.581,3.488,12.644,7.854,17.79,13.503c6.719,7.383,12.64,16.451,15.947,26.209h55.286
			C249.153,345.956,255.354,327.045,255.354,327.045z"/>
		
			<linearGradient id="SVGID_00000005230541128323052470000004841529897070320302_" gradientUnits="userSpaceOnUse" x1="93.4639" y1="311.4985" x2="355.9277" y2="311.4985">
			<stop  offset="0" style="stop-color:#BDBEC4"/>
			<stop  offset="1" style="stop-color:#FFFFFF"/>
		</linearGradient>
		<path style="fill:url(#SVGID_00000005230541128323052470000004841529897070320302_);" d="M233.365,325.302
			c-9.429-2.359-22.004-6.765-24.418-17.625c-0.955-4.297-0.183-8.282,1.713-11.725h-2.842L93.464,327.045H241.42
			C238.732,326.551,236.044,325.971,233.365,325.302z"/>
	</g>
	<g>
		<rect x="179.088" y="281.182" style="fill:#FFFFFF;" width="161.43" height="46.507"/>
		
			<linearGradient id="SVGID_00000157299457406068642010000013347387384207339430_" gradientUnits="userSpaceOnUse" x1="179.0879" y1="266.6617" x2="340.5176" y2="266.6617">
			<stop  offset="0.0634" style="stop-color:#F6B63E"/>
			<stop  offset="1" style="stop-color:#E65830"/>
		</linearGradient>
		<polygon style="fill:url(#SVGID_00000157299457406068642010000013347387384207339430_);" points="340.518,281.182 
			179.088,281.182 200.034,252.142 318.826,252.142 		"/>
		
			<linearGradient id="SVGID_00000164513735806318213150000011938628451079256747_" gradientUnits="userSpaceOnUse" x1="179.0879" y1="304.4351" x2="187.583" y2="304.4351">
			<stop  offset="0.0634" style="stop-color:#F6B63E"/>
			<stop  offset="1" style="stop-color:#E65830"/>
		</linearGradient>
		
			<rect x="179.088" y="281.182" style="fill:url(#SVGID_00000164513735806318213150000011938628451079256747_);" width="8.495" height="46.507"/>
		
			<linearGradient id="SVGID_00000127044326981331629130000013133713700341576335_" gradientUnits="userSpaceOnUse" x1="179.0879" y1="282.9708" x2="340.5176" y2="282.9708">
			<stop  offset="0.0634" style="stop-color:#F6B63E"/>
			<stop  offset="1" style="stop-color:#E65830"/>
		</linearGradient>
		
			<rect x="179.088" y="281.182" style="fill:url(#SVGID_00000127044326981331629130000013133713700341576335_);" width="161.43" height="3.578"/>
		
			<linearGradient id="SVGID_00000062178794721758005380000007327005366835011720_" gradientUnits="userSpaceOnUse" x1="179.0879" y1="325.9" x2="340.5176" y2="325.9">
			<stop  offset="0.0634" style="stop-color:#F6B63E"/>
			<stop  offset="1" style="stop-color:#E65830"/>
		</linearGradient>
		
			<rect x="179.088" y="324.111" style="fill:url(#SVGID_00000062178794721758005380000007327005366835011720_);" width="161.43" height="3.577"/>
		<g>
			<rect x="189.482" y="286.955" style="fill:#D8DADE;" width="148.018" height="1.177"/>
			<rect x="189.482" y="289.79" style="fill:#D8DADE;" width="148.018" height="1.177"/>
			<rect x="189.482" y="292.625" style="fill:#D8DADE;" width="148.018" height="1.178"/>
			<rect x="189.482" y="295.46" style="fill:#D8DADE;" width="148.018" height="1.178"/>
			<rect x="189.482" y="298.297" style="fill:#D8DADE;" width="148.018" height="1.176"/>
			<rect x="189.482" y="301.132" style="fill:#D8DADE;" width="148.018" height="1.177"/>
			<rect x="189.482" y="303.968" style="fill:#D8DADE;" width="148.018" height="1.176"/>
			<rect x="189.482" y="306.802" style="fill:#D8DADE;" width="148.018" height="1.178"/>
			<rect x="189.482" y="309.638" style="fill:#D8DADE;" width="148.018" height="1.178"/>
			<rect x="189.482" y="312.474" style="fill:#D8DADE;" width="148.018" height="1.177"/>
			<rect x="189.482" y="315.309" style="fill:#D8DADE;" width="148.018" height="1.177"/>
			<rect x="189.482" y="318.144" style="fill:#D8DADE;" width="148.018" height="1.178"/>
			<rect x="189.482" y="320.978" style="fill:#D8DADE;" width="148.018" height="1.178"/>
		</g>
	</g>
	<g>
		<path style="fill:#E4D6A7;" d="M236.6,284.847c0,0-5.177-17.951,0.679-37.248l93.726-28.976v35.278L236.6,284.847z"/>
		
			<linearGradient id="SVGID_00000171000473652389818550000018163707634343976587_" gradientUnits="userSpaceOnUse" x1="69.2679" y1="267.4551" x2="237.2784" y2="267.4551">
			<stop  offset="0" style="stop-color:#AAC501"/>
			<stop  offset="0.9951" style="stop-color:#5F7408"/>
		</linearGradient>
		<path style="fill:url(#SVGID_00000171000473652389818550000018163707634343976587_);" d="M75.392,247.599h161.887
			c0,0-6.201,18.912,0,39.713H75.392C75.392,287.311,61.613,269.75,75.392,247.599z"/>
		
			<linearGradient id="SVGID_00000011750081832078348380000000181695137046353555_" gradientUnits="userSpaceOnUse" x1="75.3916" y1="232.0518" x2="337.8545" y2="232.0518">
			<stop  offset="0" style="stop-color:#AAC501"/>
			<stop  offset="0.9951" style="stop-color:#5F7408"/>
		</linearGradient>
		<polygon style="fill:url(#SVGID_00000011750081832078348380000000181695137046353555_);" points="75.392,247.599 189.747,216.505 
			337.854,216.505 237.278,247.599 		"/>
		
			<linearGradient id="SVGID_00000034050647923639187060000010929873964109346712_" gradientUnits="userSpaceOnUse" x1="236.5996" y1="270.6064" x2="337.8545" y2="270.6064">
			<stop  offset="0" style="stop-color:#AAC501"/>
			<stop  offset="0.9951" style="stop-color:#5F7408"/>
		</linearGradient>
		<path style="fill:url(#SVGID_00000034050647923639187060000010929873964109346712_);" d="M237.278,287.311l100.576-33.41h-6.851
			L236.6,284.847C236.6,284.847,236.934,286.488,237.278,287.311z"/>
		<g>
			<path style="fill:#CDB583;" d="M238.828,250.764c0,0,1.389-0.513,3.813-1.409c1.203-0.445,2.664-0.984,4.339-1.606
				c0.833-0.304,1.721-0.629,2.654-0.973c0.934-0.341,1.944-0.579,2.98-0.915c8.376-2.584,19.547-6.03,30.72-9.477
				c11.169-3.459,22.336-6.915,30.711-9.507c1.057-0.306,2.038-0.686,3.011-0.919c0.97-0.242,1.894-0.472,2.76-0.688
				c1.728-0.431,3.237-0.807,4.479-1.116c2.493-0.602,3.917-0.945,3.917-0.945s-1.369,0.523-3.764,1.436
				c-1.199,0.447-2.658,0.991-4.328,1.613c-0.835,0.313-1.726,0.643-2.662,0.992c-0.936,0.358-1.959,0.6-3.001,0.943
				c-8.378,2.593-19.547,6.05-30.715,9.506c-11.173,3.448-22.346,6.895-30.728,9.48c-1.062,0.307-2.06,0.682-3.037,0.926
				c-0.975,0.242-1.901,0.473-2.772,0.688c-1.731,0.422-3.241,0.791-4.482,1.093C240.243,250.443,238.828,250.764,238.828,250.764z"
				/>
			<path style="fill:#CDB583;" d="M238.828,254.898c0,0,1.389-0.513,3.813-1.408c1.203-0.446,2.664-0.986,4.339-1.607
				c0.833-0.306,1.721-0.63,2.654-0.974c0.934-0.341,1.944-0.58,2.98-0.916c8.376-2.584,19.547-6.031,30.72-9.479
				c11.169-3.455,22.336-6.913,30.711-9.506c1.057-0.303,2.038-0.685,3.011-0.917c0.97-0.243,1.894-0.472,2.76-0.688
				c1.728-0.432,3.237-0.808,4.479-1.118c2.493-0.601,3.917-0.944,3.917-0.944s-1.369,0.521-3.764,1.437
				c-1.199,0.445-2.658,0.99-4.328,1.612c-0.835,0.311-1.726,0.643-2.662,0.993c-0.936,0.357-1.959,0.598-3.001,0.941
				c-8.378,2.594-19.547,6.05-30.715,9.507c-11.173,3.446-22.346,6.895-30.728,9.479c-1.062,0.308-2.06,0.682-3.037,0.926
				c-0.975,0.244-1.901,0.473-2.772,0.688c-1.731,0.422-3.241,0.79-4.482,1.092C240.243,254.578,238.828,254.898,238.828,254.898z"
				/>
			<path style="fill:#CDB583;" d="M238.828,259.03c0,0,1.389-0.512,3.813-1.408c1.203-0.445,2.664-0.985,4.339-1.607
				c0.833-0.305,1.721-0.63,2.654-0.974c0.934-0.34,1.944-0.58,2.98-0.915c8.376-2.585,19.547-6.031,30.72-9.478
				c11.169-3.457,22.336-6.914,30.711-9.506c1.057-0.305,2.038-0.686,3.011-0.92c0.97-0.24,1.894-0.47,2.76-0.688
				c1.728-0.432,3.237-0.807,4.479-1.116c2.493-0.601,3.917-0.945,3.917-0.945s-1.369,0.523-3.764,1.438
				c-1.199,0.445-2.658,0.989-4.328,1.612c-0.835,0.311-1.726,0.643-2.662,0.992c-0.936,0.359-1.959,0.598-3.001,0.942
				c-8.378,2.593-19.547,6.05-30.715,9.506c-11.173,3.448-22.346,6.895-30.728,9.481c-1.062,0.305-2.06,0.681-3.037,0.925
				c-0.975,0.242-1.901,0.473-2.772,0.688c-1.731,0.422-3.241,0.79-4.482,1.093C240.243,258.711,238.828,259.03,238.828,259.03z"/>
			<path style="fill:#CDB583;" d="M238.828,263.164c0,0,1.389-0.513,3.813-1.408c1.203-0.446,2.664-0.986,4.339-1.606
				c0.833-0.307,1.721-0.631,2.654-0.974c0.934-0.34,1.944-0.581,2.98-0.915c8.376-2.584,19.547-6.032,30.72-9.479
				c11.169-3.457,22.336-6.914,30.711-9.506c1.057-0.305,2.038-0.686,3.011-0.919c0.97-0.242,1.894-0.472,2.76-0.688
				c1.728-0.431,3.237-0.807,4.479-1.117c2.493-0.602,3.917-0.944,3.917-0.944s-1.369,0.521-3.764,1.436
				c-1.199,0.447-2.658,0.989-4.328,1.612c-0.835,0.313-1.726,0.643-2.662,0.994c-0.936,0.356-1.959,0.598-3.001,0.942
				c-8.378,2.593-19.547,6.049-30.715,9.506c-11.173,3.447-22.346,6.895-30.728,9.48c-1.062,0.306-2.06,0.682-3.037,0.926
				c-0.975,0.241-1.901,0.473-2.772,0.688c-1.731,0.422-3.241,0.789-4.482,1.092C240.243,262.845,238.828,263.164,238.828,263.164z"
				/>
			<path style="fill:#CDB583;" d="M238.828,267.297c0,0,1.389-0.513,3.813-1.409c1.203-0.444,2.664-0.984,4.339-1.604
				c0.833-0.306,1.721-0.63,2.654-0.974c0.934-0.34,1.944-0.582,2.98-0.916c8.376-2.585,19.547-6.031,30.72-9.478
				c11.169-3.457,22.336-6.912,30.711-9.506c1.057-0.304,2.038-0.686,3.011-0.918c0.97-0.244,1.894-0.473,2.76-0.688
				c1.728-0.433,3.237-0.807,4.479-1.117c2.493-0.601,3.917-0.943,3.917-0.943s-1.369,0.521-3.764,1.434
				c-1.199,0.447-2.658,0.991-4.328,1.613c-0.835,0.313-1.726,0.643-2.662,0.992c-0.936,0.358-1.959,0.599-3.001,0.943
				c-8.378,2.593-19.547,6.05-30.715,9.507c-11.173,3.447-22.346,6.895-30.728,9.478c-1.062,0.31-2.06,0.683-3.037,0.928
				c-0.975,0.243-1.901,0.473-2.772,0.686c-1.731,0.424-3.241,0.792-4.482,1.094C240.243,266.978,238.828,267.297,238.828,267.297z"
				/>
			<path style="fill:#CDB583;" d="M238.828,271.431c0,0,1.389-0.513,3.813-1.409c1.203-0.443,2.664-0.984,4.339-1.606
				c0.833-0.306,1.721-0.632,2.654-0.974c0.934-0.34,1.944-0.581,2.98-0.915c8.376-2.586,19.547-6.032,30.72-9.479
				c11.169-3.455,22.336-6.911,30.711-9.504c1.057-0.305,2.038-0.687,3.011-0.92c0.97-0.241,1.894-0.472,2.76-0.688
				c1.728-0.432,3.237-0.807,4.479-1.117c2.493-0.601,3.917-0.945,3.917-0.945s-1.369,0.524-3.764,1.438
				c-1.199,0.446-2.658,0.988-4.328,1.611c-0.835,0.313-1.726,0.645-2.662,0.993c-0.936,0.358-1.959,0.599-3.001,0.941
				c-8.378,2.594-19.547,6.051-30.715,9.508c-11.173,3.446-22.346,6.896-30.728,9.48c-1.062,0.305-2.06,0.681-3.037,0.925
				c-0.975,0.244-1.901,0.474-2.772,0.689c-1.731,0.422-3.241,0.789-4.482,1.094C240.243,271.111,238.828,271.431,238.828,271.431z"
				/>
			<path style="fill:#CDB583;" d="M238.828,275.564c0,0,1.389-0.513,3.813-1.408c1.203-0.445,2.664-0.985,4.339-1.605
				c0.833-0.307,1.721-0.631,2.654-0.974c0.934-0.34,1.944-0.581,2.98-0.917c8.376-2.584,19.547-6.03,30.72-9.477
				c11.169-3.456,22.336-6.914,30.711-9.506c1.057-0.305,2.038-0.686,3.011-0.919c0.97-0.241,1.894-0.472,2.76-0.688
				c1.728-0.432,3.237-0.808,4.479-1.117c2.493-0.602,3.917-0.945,3.917-0.945s-1.369,0.523-3.764,1.435
				c-1.199,0.449-2.658,0.991-4.328,1.614c-0.835,0.313-1.726,0.643-2.662,0.993c-0.936,0.357-1.959,0.598-3.001,0.942
				c-8.378,2.593-19.547,6.051-30.715,9.506c-11.173,3.447-22.346,6.893-30.728,9.481c-1.062,0.305-2.06,0.681-3.037,0.925
				c-0.975,0.242-1.901,0.472-2.772,0.689c-1.731,0.422-3.241,0.789-4.482,1.092C240.243,275.245,238.828,275.564,238.828,275.564z"
				/>
			<path style="fill:#CDB583;" d="M238.828,279.697c0,0,1.389-0.513,3.813-1.409c1.203-0.444,2.664-0.985,4.339-1.606
				c0.833-0.305,1.721-0.63,2.654-0.973c0.934-0.341,1.944-0.581,2.98-0.916c8.376-2.585,19.547-6.031,30.72-9.478
				c11.169-3.457,22.336-6.914,30.711-9.506c1.057-0.304,2.038-0.686,3.011-0.918c0.97-0.243,1.894-0.473,2.76-0.688
				c1.728-0.432,3.237-0.809,4.479-1.119c2.493-0.6,3.917-0.943,3.917-0.943s-1.369,0.521-3.764,1.435
				c-1.199,0.448-2.658,0.991-4.328,1.614c-0.835,0.313-1.726,0.642-2.662,0.992c-0.936,0.358-1.959,0.599-3.001,0.943
				c-8.378,2.592-19.547,6.049-30.715,9.507c-11.173,3.446-22.346,6.893-30.728,9.479c-1.062,0.307-2.06,0.682-3.037,0.927
				c-0.975,0.243-1.901,0.472-2.772,0.687c-1.731,0.423-3.241,0.791-4.482,1.093C240.243,279.378,238.828,279.697,238.828,279.697z"
				/>
		</g>
		<defs>
			
				<filter id="Adobe_OpacityMaskFilter_00000162325032290860762900000001154293045137192087_" filterUnits="userSpaceOnUse" x="72.539" y="251.966" width="161.467" height="27.908">
				<feFlood  style="flood-color:white;flood-opacity:1" result="back"/>
				<feBlend  in="SourceGraphic" in2="back" mode="normal"/>
			</filter>
		</defs>
		
			<mask maskUnits="userSpaceOnUse" x="72.539" y="251.966" width="161.467" height="27.908" id="SVGID_00000049216695534091879540000005501913643935818120_">
			<g style="filter:url(#Adobe_OpacityMaskFilter_00000162325032290860762900000001154293045137192087_);">
				<defs>
					
						<filter id="Adobe_OpacityMaskFilter_00000108987466011690527910000004018284090447042445_" filterUnits="userSpaceOnUse" x="72.539" y="251.966" width="161.467" height="27.908">
						<feFlood  style="flood-color:white;flood-opacity:1" result="back"/>
						<feBlend  in="SourceGraphic" in2="back" mode="normal"/>
					</filter>
				</defs>
				
					<mask maskUnits="userSpaceOnUse" x="72.539" y="251.966" width="161.467" height="27.908" id="SVGID_00000049216695534091879540000005501913643935818120_">
					<g style="filter:url(#Adobe_OpacityMaskFilter_00000108987466011690527910000004018284090447042445_);">
					</g>
				</mask>
				
					<linearGradient id="SVGID_00000133514295464253566080000002180817158389308551_" gradientUnits="userSpaceOnUse" x1="153.2726" y1="240.7804" x2="153.2726" y2="300.5762">
					<stop  offset="0" style="stop-color:#FFFFFF"/>
					<stop  offset="0.0074" style="stop-color:#F6F6F6"/>
					<stop  offset="0.0477" style="stop-color:#C8C8C8"/>
					<stop  offset="0.0931" style="stop-color:#9D9D9D"/>
					<stop  offset="0.1419" style="stop-color:#777777"/>
					<stop  offset="0.195" style="stop-color:#575757"/>
					<stop  offset="0.2537" style="stop-color:#3B3B3B"/>
					<stop  offset="0.32" style="stop-color:#252525"/>
					<stop  offset="0.3974" style="stop-color:#141414"/>
					<stop  offset="0.4931" style="stop-color:#090909"/>
					<stop  offset="0.6274" style="stop-color:#020202"/>
					<stop  offset="1" style="stop-color:#000000"/>
				</linearGradient>
				
					<path style="mask:url(#SVGID_00000049216695534091879540000005501913643935818120_);fill:url(#SVGID_00000133514295464253566080000002180817158389308551_);" d="
					M78.424,251.966h155.582c0,0-5.957,13.289,0,27.908H78.424C78.424,279.874,65.184,267.532,78.424,251.966z"/>
			</g>
		</mask>
		
			<linearGradient id="SVGID_00000132766940443161643990000002855744003868618927_" gradientUnits="userSpaceOnUse" x1="153.2726" y1="240.7804" x2="153.2726" y2="300.5762">
			<stop  offset="0" style="stop-color:#FFFFFF"/>
			<stop  offset="0.1413" style="stop-color:#FFFFFF"/>
			<stop  offset="1" style="stop-color:#FFFFFF"/>
		</linearGradient>
		<path style="fill:url(#SVGID_00000132766940443161643990000002855744003868618927_);" d="M78.424,251.966h155.582
			c0,0-5.957,13.289,0,27.908H78.424C78.424,279.874,65.184,267.532,78.424,251.966z"/>
		
			<linearGradient id="SVGID_00000120548531138970343860000005247887957438347670_" gradientUnits="userSpaceOnUse" x1="69.2679" y1="267.4551" x2="237.281" y2="267.4551">
			<stop  offset="0" style="stop-color:#BDBEC4"/>
			<stop  offset="1" style="stop-color:#FFFFFF"/>
		</linearGradient>
		<path style="fill:url(#SVGID_00000120548531138970343860000005247887957438347670_);" d="M148.9,285.735
			c-18.671-3.072-36.298-8.908-51.392-20.611c-6.329-4.908-12.462-10.751-16.347-17.525h-5.771c-13.778,22.151,0,39.713,0,39.713
			h84.174C155.99,286.845,152.438,286.318,148.9,285.735z"/>
		
			<linearGradient id="SVGID_00000029733593336596265470000004275989511654214017_" gradientUnits="userSpaceOnUse" x1="69.3463" y1="287.0078" x2="237.2784" y2="287.0078">
			<stop  offset="0" style="stop-color:#BDBEC4"/>
			<stop  offset="1" style="stop-color:#FFFFFF"/>
		</linearGradient>
		<path style="fill:url(#SVGID_00000029733593336596265470000004275989511654214017_);" d="M233.264,287.311h4.015
			c-0.06-0.203-0.111-0.405-0.171-0.607C235.829,286.917,234.545,287.121,233.264,287.311z"/>
		
			<linearGradient id="SVGID_00000033363892021348722040000003744124132200488626_" gradientUnits="userSpaceOnUse" x1="69.2703" y1="267.4551" x2="237.2788" y2="267.4551">
			<stop  offset="0" style="stop-color:#BDBEC4"/>
			<stop  offset="1" style="stop-color:#FFFFFF"/>
		</linearGradient>
		<path style="fill:url(#SVGID_00000033363892021348722040000003744124132200488626_);" d="M237.278,247.599h-89.021
			c6.577,3.488,12.643,7.854,17.786,13.504c6.719,7.38,12.643,16.449,15.949,26.209h55.285
			C231.077,266.511,237.278,247.599,237.278,247.599z"/>
		
			<linearGradient id="SVGID_00000166642610993336935270000002318943844953349773_" gradientUnits="userSpaceOnUse" x1="75.3916" y1="232.0518" x2="337.8554" y2="232.0518">
			<stop  offset="0" style="stop-color:#BDBEC4"/>
			<stop  offset="1" style="stop-color:#FFFFFF"/>
		</linearGradient>
		<path style="fill:url(#SVGID_00000166642610993336935270000002318943844953349773_);" d="M215.291,245.855
			c-9.429-2.358-22.002-6.766-24.418-17.626c-0.955-4.295-0.183-8.281,1.709-11.725h-2.835L75.392,247.599h147.956
			C220.657,247.105,217.971,246.524,215.291,245.855z"/>
	</g>
	<g>
		<rect x="122.086" y="204.257" style="fill:#FFFFFF;" width="161.434" height="46.507"/>
		
			<linearGradient id="SVGID_00000070840749407387870940000007904781092937431456_" gradientUnits="userSpaceOnUse" x1="122.086" y1="188.8965" x2="283.5196" y2="188.8965">
			<stop  offset="0.039" style="stop-color:#E0040B"/>
			<stop  offset="0.9951" style="stop-color:#7E1007"/>
		</linearGradient>
		<polygon style="fill:url(#SVGID_00000070840749407387870940000007904781092937431456_);" points="283.52,204.257 122.086,204.257 
			143.038,173.536 261.826,173.536 		"/>
		
			<linearGradient id="SVGID_00000109711355154205538930000001076823340366375097_" gradientUnits="userSpaceOnUse" x1="122.086" y1="227.5103" x2="130.5821" y2="227.5103">
			<stop  offset="0" style="stop-color:#7E1007"/>
			<stop  offset="1" style="stop-color:#E0040B"/>
		</linearGradient>
		
			<rect x="122.086" y="204.257" style="fill:url(#SVGID_00000109711355154205538930000001076823340366375097_);" width="8.496" height="46.507"/>
		
			<linearGradient id="SVGID_00000146501340485065075300000012502628370786557102_" gradientUnits="userSpaceOnUse" x1="122.086" y1="206.0455" x2="283.5196" y2="206.0455">
			<stop  offset="0" style="stop-color:#7E1007"/>
			<stop  offset="1" style="stop-color:#E0040B"/>
		</linearGradient>
		
			<rect x="122.086" y="204.257" style="fill:url(#SVGID_00000146501340485065075300000012502628370786557102_);" width="161.434" height="3.577"/>
		
			<linearGradient id="SVGID_00000109024554858447567040000000187321629732568704_" gradientUnits="userSpaceOnUse" x1="122.086" y1="248.9751" x2="283.5196" y2="248.9751">
			<stop  offset="0" style="stop-color:#7E1007"/>
			<stop  offset="1" style="stop-color:#E0040B"/>
		</linearGradient>
		
			<rect x="122.086" y="247.186" style="fill:url(#SVGID_00000109024554858447567040000000187321629732568704_);" width="161.434" height="3.577"/>
		<g>
			<rect x="132.483" y="210.029" style="fill:#D8DADE;" width="148.017" height="1.178"/>
			<rect x="132.483" y="212.864" style="fill:#D8DADE;" width="148.017" height="1.179"/>
			<rect x="132.483" y="215.7" style="fill:#D8DADE;" width="148.017" height="1.178"/>
			<rect x="132.483" y="218.536" style="fill:#D8DADE;" width="148.017" height="1.177"/>
			<rect x="132.483" y="221.371" style="fill:#D8DADE;" width="148.017" height="1.177"/>
			<rect x="132.483" y="224.206" style="fill:#D8DADE;" width="148.017" height="1.179"/>
			<rect x="132.483" y="227.041" style="fill:#D8DADE;" width="148.017" height="1.179"/>
			<rect x="132.483" y="229.877" style="fill:#D8DADE;" width="148.017" height="1.178"/>
			<rect x="132.483" y="232.712" style="fill:#D8DADE;" width="148.017" height="1.178"/>
			<rect x="132.483" y="235.548" style="fill:#D8DADE;" width="148.017" height="1.178"/>
			<rect x="132.483" y="238.384" style="fill:#D8DADE;" width="148.017" height="1.177"/>
			<rect x="132.483" y="241.219" style="fill:#D8DADE;" width="148.017" height="1.177"/>
			<rect x="132.483" y="244.054" style="fill:#D8DADE;" width="148.017" height="1.178"/>
		</g>
	</g>
</g>
<g>
	<g>
		<g>
			<path style="fill:#F3BA56;" d="M100.337,239.184l-5.489-1.488c3.567-13.155-2.358-22.314-9.219-32.919
				c-2.571-3.976-5.231-8.087-7.427-12.546c-5.283-10.736-7.441-23.119-6.414-36.805c1.54-20.52,10.184-31.115,25.69-31.489
				l0.138,5.687c-12.43,0.301-18.834,8.636-20.154,26.228c-0.951,12.661,1.016,24.055,5.846,33.867
				c2.047,4.162,4.615,8.13,7.098,11.968C97.369,212.45,104.569,223.58,100.337,239.184z"/>
		</g>
		<g>
			<g>
				<path style="fill:#F4BB48;" d="M90.593,277.428c-1.332,1.039-1.915,2.824-1.205,4.154l0,0c0.707,1.326,2.703,1.554,4.329,0.311
					c13.935-10.555,19.343-30.624,10.685-48.147c-1.005-2.027-3.123-3.049-4.439-2.314l0,0c-1.322,0.732-1.479,2.697-0.606,4.411
					C107.068,251.061,102.381,268.378,90.593,277.428z"/>
				<path style="fill:none;stroke:#FCED2B;stroke-width:0.675;stroke-miterlimit:10;" d="M90.593,277.428
					c-1.332,1.039-1.915,2.824-1.205,4.154l0,0c0.707,1.326,2.703,1.554,4.329,0.311c13.935-10.555,19.343-30.624,10.685-48.147
					c-1.005-2.027-3.123-3.049-4.439-2.314l0,0c-1.322,0.732-1.479,2.697-0.606,4.411
					C107.068,251.061,102.381,268.378,90.593,277.428z"/>
			</g>
			<g>
				<path style="fill:#F4BB48;" d="M82.403,275.766c-1.449,0.849-2.266,2.547-1.818,4.01l0,0c0.445,1.454,2.27,2.03,4.045,1.04
					c15.17-8.277,24.436-28.49,17.158-49.154c-0.839-2.375-3.05-4.047-4.583-3.679l0,0c-1.54,0.363-1.863,2.367-1.052,4.42
					C103.246,250.707,95.192,268.533,82.403,275.766z"/>
				<path style="fill:none;stroke:#FCED2B;stroke-width:0.675;stroke-miterlimit:10;" d="M82.403,275.766
					c-1.449,0.849-2.266,2.547-1.818,4.01l0,0c0.445,1.454,2.27,2.03,4.045,1.04c15.17-8.277,24.436-28.49,17.158-49.154
					c-0.839-2.375-3.05-4.047-4.583-3.679l0,0c-1.54,0.363-1.863,2.367-1.052,4.42C103.246,250.707,95.192,268.533,82.403,275.766z"
					/>
			</g>
			<g>
				<path style="fill:#F4BB48;" d="M71.994,270.033c-1.641,0.357-2.944,1.717-2.974,3.246l0,0c-0.027,1.522,1.528,2.635,3.523,2.245
					c16.988-3.163,32.07-19.503,31.562-41.406c-0.06-2.518-1.643-4.792-3.214-4.917l0,0c-1.577-0.133-2.507,1.671-2.372,3.874
					C99.583,252.677,86.396,267.126,71.994,270.033z"/>
				<path style="fill:none;stroke:#FCED2B;stroke-width:0.675;stroke-miterlimit:10;" d="M71.994,270.033
					c-1.641,0.357-2.944,1.717-2.974,3.246l0,0c-0.027,1.522,1.528,2.635,3.523,2.245c16.988-3.163,32.07-19.503,31.562-41.406
					c-0.06-2.518-1.643-4.792-3.214-4.917l0,0c-1.577-0.133-2.507,1.671-2.372,3.874C99.583,252.677,86.396,267.126,71.994,270.033z
					"/>
			</g>
			<g>
				<path style="fill:#F4BB48;" d="M108.241,277.095c-0.916,1.423-0.875,3.29,0.274,4.261l0,0c1.144,0.967,3.149,0.444,4.265-1.272
					c9.568-14.711,7.504-34.452-5.31-46.972c-1.491-1.459-3.617-1.568-4.54-0.388l0,0c-0.929,1.182-0.531,3.028,0.708,4.241
					C114.629,247.675,116.384,264.545,108.241,277.095z"/>
				<path style="fill:none;stroke:#FCED2B;stroke-width:0.675;stroke-miterlimit:10;" d="M108.241,277.095
					c-0.916,1.423-0.875,3.29,0.274,4.261l0,0c1.144,0.967,3.149,0.444,4.265-1.272c9.568-14.711,7.504-34.452-5.31-46.972
					c-1.491-1.459-3.617-1.568-4.54-0.388l0,0c-0.929,1.182-0.531,3.028,0.708,4.241
					C114.629,247.675,116.384,264.545,108.241,277.095z"/>
			</g>
			<g>
				<path style="fill:#F4BB48;" d="M99.944,277.574c-1.17,1.217-1.496,3.066-0.605,4.282l0,0c0.887,1.213,2.895,1.155,4.33-0.305
					c12.301-12.42,14.815-33.052,3.766-49.173c-1.28-1.866-3.521-2.577-4.721-1.665l0,0c-1.206,0.913-1.083,2.88,0.022,4.453
					C112.524,249.141,110.334,266.947,99.944,277.574z"/>
				<path style="fill:none;stroke:#FCED2B;stroke-width:0.675;stroke-miterlimit:10;" d="M99.944,277.574
					c-1.17,1.217-1.496,3.066-0.605,4.282l0,0c0.887,1.213,2.895,1.155,4.33-0.305c12.301-12.42,14.815-33.052,3.766-49.173
					c-1.28-1.866-3.521-2.577-4.721-1.665l0,0c-1.206,0.913-1.083,2.88,0.022,4.453C112.524,249.141,110.334,266.947,99.944,277.574
					z"/>
			</g>
		</g>
		<g>
			<path style="fill:#EFA358;" d="M110.507,231.316c0,6.022-4.881,10.904-10.902,10.904c-6.022,0-10.904-4.882-10.904-10.904
				c0-6.021,4.882-10.903,10.904-10.903C105.626,220.413,110.507,225.295,110.507,231.316z"/>
			<path style="fill:#F4BB48;" d="M107.567,231.316c0,4.399-3.564,7.965-7.963,7.965c-4.4,0-7.965-3.565-7.965-7.965
				c0-4.398,3.564-7.965,7.965-7.965C104.003,223.352,107.567,226.918,107.567,231.316z"/>
			<path style="opacity:0.2;fill:#FFFFFF;" d="M105.672,229.089c0,2.487-2.016,4.503-4.504,4.503c-2.487,0-4.503-2.016-4.503-4.503
				s2.016-4.504,4.503-4.504C103.656,224.585,105.672,226.602,105.672,229.089z"/>
		</g>
	</g>
	
		<linearGradient id="SVGID_00000093174923732780816220000013087947399869332898_" gradientUnits="userSpaceOnUse" x1="85.4566" y1="124.5615" x2="330.7647" y2="124.5615">
		<stop  offset="0" style="stop-color:#000000"/>
		<stop  offset="0.9902" style="stop-color:#464445"/>
	</linearGradient>
	<path style="fill:url(#SVGID_00000093174923732780816220000013087947399869332898_);" d="M149.608,164.365
		c0,0-65.829-30.024-64.119-30.024c1.708,0,126.99-49.583,126.99-49.583l118.285,54.949l-61.311,24.658H149.608z"/>
	<polygon points="85.489,134.607 85.489,125.741 213.014,73.818 330.765,129.241 330.765,139.975 212.48,85.025 	"/>
	<defs>
		
			<filter id="Adobe_OpacityMaskFilter_00000153672454934798869820000018356079170007625404_" filterUnits="userSpaceOnUse" x="97.846" y="88.262" width="119.49" height="72.599">
			<feFlood  style="flood-color:white;flood-opacity:1" result="back"/>
			<feBlend  in="SourceGraphic" in2="back" mode="normal"/>
		</filter>
	</defs>
	
		<mask maskUnits="userSpaceOnUse" x="97.846" y="88.262" width="119.49" height="72.599" id="SVGID_00000111876838251368804720000009111513094125008786_">
		<g style="filter:url(#Adobe_OpacityMaskFilter_00000153672454934798869820000018356079170007625404_);">
			<defs>
				
					<filter id="Adobe_OpacityMaskFilter_00000100352403584360314080000003268346856623160507_" filterUnits="userSpaceOnUse" x="97.846" y="88.262" width="119.49" height="72.599">
					<feFlood  style="flood-color:white;flood-opacity:1" result="back"/>
					<feBlend  in="SourceGraphic" in2="back" mode="normal"/>
				</filter>
			</defs>
			
				<mask maskUnits="userSpaceOnUse" x="97.846" y="88.262" width="119.49" height="72.599" id="SVGID_00000111876838251368804720000009111513094125008786_">
				<g style="filter:url(#Adobe_OpacityMaskFilter_00000100352403584360314080000003268346856623160507_);">
				</g>
			</mask>
			
				<linearGradient id="SVGID_00000098187463539090153170000001224815456822037937_" gradientUnits="userSpaceOnUse" x1="97.8462" y1="124.5611" x2="321.5562" y2="124.5611">
				<stop  offset="0" style="stop-color:#FFFFFF"/>
				<stop  offset="0.0074" style="stop-color:#F6F6F6"/>
				<stop  offset="0.0477" style="stop-color:#C8C8C8"/>
				<stop  offset="0.0931" style="stop-color:#9D9D9D"/>
				<stop  offset="0.1419" style="stop-color:#777777"/>
				<stop  offset="0.195" style="stop-color:#575757"/>
				<stop  offset="0.2537" style="stop-color:#3B3B3B"/>
				<stop  offset="0.32" style="stop-color:#252525"/>
				<stop  offset="0.3974" style="stop-color:#141414"/>
				<stop  offset="0.4931" style="stop-color:#090909"/>
				<stop  offset="0.6274" style="stop-color:#020202"/>
				<stop  offset="1" style="stop-color:#000000"/>
			</linearGradient>
			
				<path style="mask:url(#SVGID_00000111876838251368804720000009111513094125008786_);fill:url(#SVGID_00000098187463539090153170000001224815456822037937_);" d="
				M194.551,142.901c-2.106-11.665,1.271-22.173,6.876-32.328c3.939-7.138,9.012-15.437,15.909-20.616l-3.649-1.695
				c0,0-114.252,45.218-115.811,45.218s58.476,27.381,58.476,27.381h45.646C198.331,155.4,195.711,149.322,194.551,142.901z"/>
		</g>
	</mask>
	
		<linearGradient id="SVGID_00000147941491946583688280000003062907449838630834_" gradientUnits="userSpaceOnUse" x1="97.8462" y1="124.5611" x2="321.5562" y2="124.5611">
		<stop  offset="0" style="stop-color:#FFFFFF"/>
		<stop  offset="0.0074" style="stop-color:#FAFAFB"/>
		<stop  offset="0.0477" style="stop-color:#D5D7DB"/>
		<stop  offset="0.0931" style="stop-color:#B3B2B8"/>
		<stop  offset="0.1419" style="stop-color:#969499"/>
		<stop  offset="0.195" style="stop-color:#7C7B7F"/>
		<stop  offset="0.2537" style="stop-color:#636367"/>
		<stop  offset="0.32" style="stop-color:#4F4E50"/>
		<stop  offset="0.3974" style="stop-color:#3E3A3A"/>
		<stop  offset="0.4931" style="stop-color:#232121"/>
		<stop  offset="0.6274" style="stop-color:#0A0909"/>
		<stop  offset="1" style="stop-color:#000000"/>
	</linearGradient>
	<path style="fill:url(#SVGID_00000147941491946583688280000003062907449838630834_);" d="M194.551,142.901
		c-2.106-11.665,1.271-22.173,6.876-32.328c3.939-7.138,9.012-15.437,15.909-20.616l-3.649-1.695c0,0-114.252,45.218-115.811,45.218
		s58.476,27.381,58.476,27.381h45.646C198.331,155.4,195.711,149.322,194.551,142.901z"/>
	
		<linearGradient id="SVGID_00000182498349424749150140000013377631903522727056_" gradientUnits="userSpaceOnUse" x1="149.6084" y1="165.9605" x2="269.4541" y2="165.9605">
		<stop  offset="0" style="stop-color:#000000"/>
		<stop  offset="0.4878" style="stop-color:#464445"/>
		<stop  offset="1" style="stop-color:#000000"/>
	</linearGradient>
	<path style="fill:url(#SVGID_00000182498349424749150140000013377631903522727056_);" d="M149.608,144.165
		c0,0,53.834-25.421,119.846,0v48.066c0,0-49.607,16.04-119.846-1.068V144.165z"/>
	<path d="M144.282,139.975l5.326,4.191c0,0,54.461-25.651,119.846,0l5.568-4.191C275.022,139.975,216.274,106.896,144.282,139.975z"
		/>
</g>
</svg>
