<?xml version="1.0" encoding="utf-8"?>
<!-- Generator: Adobe Illustrator 27.5.0, SVG Export Plug-In . SVG Version: 6.00 Build 0)  -->
<svg version="1.1" xmlns="http://www.w3.org/2000/svg" xmlns:xlink="http://www.w3.org/1999/xlink" x="0px" y="0px"
	 viewBox="0 0 500 500" style="enable-background:new 0 0 500 500;" xml:space="preserve">
<g id="BACKGROUND">
	<rect style="fill:#20BECF;" width="500" height="500"/>
	<path style="fill:#1DACBB;" d="M230.64,131.879c-45.056,4.912-92.518,10.738-128.783,37.924
		c-29.808,22.348-48.743,57.673-54.113,94.539c-5.37,36.866,2.213,75.005,18.276,108.62c14.442,30.22,36.852,58.063,67.527,71.511
		c44.465,19.494,96.511,5.288,140.004-16.29c51.469-25.535,97.902-61.172,135.88-104.285
		c34.504-39.172,62.657-86.312,68.118-138.225c5.461-51.916-15.803-108.714-60.874-135.049
		c-24.103-14.083-53.633-18.587-80.838-12.329c-27.205,6.257-51.801,23.211-67.328,46.409
		C255.938,103.482,247.224,130.072,230.64,131.879z"/>
</g>
<g id="OBJECTS">
	<g>
		<path style="opacity:0.18;fill:#3B7375;" d="M316.821,84.629c-94.349,32.307-187.049,67.228-278.949,104.11
			c-2.64,1.06-3.97,4.019-3.012,6.697c0.018,0.05,0.035,0.099,0.053,0.149c1.011,2.825,4.167,4.245,6.951,3.128l0.045-0.018
			c6.207,8.133,9.658,17.263,10.561,26.621c-0.617,0.246-1.234,0.492-1.851,0.738c-2.016,0.803-2.924,3.183-1.904,5.099
			c0.035,0.065,0.07,0.13,0.106,0.195c0.875,1.592,2.835,2.237,4.523,1.567c91.876-36.48,184.765-70.326,278.759-101.046
			C335.609,114.917,329.591,96.315,316.821,84.629z"/>
		<g>
			<g>
				<g>
					<path style="fill:#FFFFFF;" d="M50.134,224.997c-0.957-11.094-5.458-21.857-13.832-30.996
						c35.932-15.29,71.863-30.581,107.794-45.871l12.532,32.893L50.134,224.997z"/>
					<path style="fill:#FFE9BD;" d="M144.096,148.129c-3.143,1.338-6.286,2.675-9.43,4.013c0.562,0.929,0.922,1.516,0.922,1.516
						c3.996,9.923,7.736,19.95,11.216,30.066c0,0,0.112,0.469,0.298,1.232l9.526-3.934L144.096,148.129z"/>
					<path style="opacity:0.18;fill:#3B7375;" d="M147.371,156.723l-3.776-6.965l-0.434-1.231
						c-35.619,15.158-71.239,30.315-106.858,45.473c1.594,1.74,3.046,3.54,4.362,5.389l37.472-15.769
						c-8.749,11.634-18.74,22.332-29.74,31.866c0.878,3.122,1.461,6.302,1.738,9.511l102.593-42.364l3.817-1.834L147.371,156.723z"
						/>
				</g>
				<g>
					
						<path style="fill:none;stroke:#302D38;stroke-width:1.5;stroke-linecap:round;stroke-linejoin:round;stroke-miterlimit:10;" d="
						M40.303,202.904c33.092-13.046,66.035-26.472,98.818-40.274"/>
					
						<path style="fill:none;stroke:#302D38;stroke-width:1.5;stroke-linecap:round;stroke-linejoin:round;stroke-miterlimit:10;" d="
						M44.368,209.992c32.122-14.377,64.243-28.753,96.364-43.13"/>
					
						<path style="fill:none;stroke:#302D38;stroke-width:1.5;stroke-linecap:round;stroke-linejoin:round;stroke-miterlimit:10;" d="
						M47.564,219.359c32.458-13.77,64.708-28.033,96.733-42.781"/>
				</g>
			</g>
			<g>
				<g>
					<path style="fill:#F8A500;" d="M311.062,76.687c13.031,11.395,19.467,29.856,16.344,46.882
						c-93.276,32.832-185.378,68.766-276.408,107.309c-1.673,0.708-3.647,0.107-4.557-1.464c-0.037-0.064-0.074-0.128-0.11-0.193
						c-1.062-1.893-0.209-4.292,1.789-5.141c34.079-14.479,68.146-28.96,101.8-43.469c0.585-9.822-2.802-19.825-9.234-27.272
						L38.749,196.944c-2.759,1.18-5.946-0.169-7.02-2.97c-0.019-0.049-0.038-0.098-0.057-0.148c-1.018-2.656,0.245-5.645,2.86-6.763
						C125.578,148.117,217.466,111.114,311.062,76.687z"/>
					<g>
						<defs>
							<path id="SVGID_1_" d="M311.062,76.687c13.031,11.395,19.467,29.856,16.344,46.882
								c-93.276,32.832-185.378,68.766-276.408,107.309c-1.673,0.708-3.647,0.107-4.557-1.464c-0.037-0.064-0.074-0.128-0.11-0.193
								c-1.062-1.893-0.209-4.292,1.789-5.141c34.079-14.479,68.146-28.96,101.8-43.469c0.585-9.822-2.802-19.825-9.234-27.272
								L38.749,196.944c-2.759,1.18-5.946-0.169-7.02-2.97c-0.019-0.049-0.038-0.098-0.057-0.148
								c-1.018-2.656,0.245-5.645,2.86-6.763C125.578,148.117,217.466,111.114,311.062,76.687z"/>
						</defs>
						<clipPath id="SVGID_00000037670025170976061550000000086826643028936857_">
							<use xlink:href="#SVGID_1_"  style="overflow:visible;"/>
						</clipPath>
						
							<path style="clip-path:url(#SVGID_00000037670025170976061550000000086826643028936857_);fill:none;stroke:#302D38;stroke-width:1.5;stroke-linecap:round;stroke-linejoin:round;stroke-miterlimit:10;" d="
							M290.49,81.783c12.12,14.876,18.202,34.531,16.601,53.653"/>
						
							<path style="clip-path:url(#SVGID_00000037670025170976061550000000086826643028936857_);fill:none;stroke:#302D38;stroke-width:1.5;stroke-linecap:round;stroke-linejoin:round;stroke-miterlimit:10;" d="
							M298.672,78.502c11.974,14.592,17.648,34.181,15.329,52.913"/>
						
							<path style="clip-path:url(#SVGID_00000037670025170976061550000000086826643028936857_);fill:none;stroke:#302D38;stroke-width:1.5;stroke-linecap:round;stroke-linejoin:round;stroke-miterlimit:10;" d="
							M233.655,120.261c-25.717,10.829-47.986,22.864-51.82,28.695c-1.08,1.643-1.913,3.756-1.075,5.535
							c1.271,2.695,5.1,2.566,8.02,1.967c27.707-5.678,54.531-15.639,79.228-29.42c4.614-2.575,9.211-5.325,12.916-9.091
							c2.095-2.129,3.957-5.35,2.482-7.946c-1.58-2.778-5.591-2.586-8.723-1.951C260.328,110.96,247.779,114.761,233.655,120.261z"
							/>
						
							<path style="clip-path:url(#SVGID_00000037670025170976061550000000086826643028936857_);fill:none;stroke:#302D38;stroke-width:1.5;stroke-linecap:round;stroke-linejoin:round;stroke-miterlimit:10;" d="
							M144.634,139.014c12.24,13.339,18.661,31.841,17.314,49.895"/>
						
							<path style="clip-path:url(#SVGID_00000037670025170976061550000000086826643028936857_);fill:none;stroke:#302D38;stroke-width:1.5;stroke-linecap:round;stroke-linejoin:round;stroke-miterlimit:10;" d="
							M152.718,136.863c12.376,12.371,19.111,30.18,18.016,47.645"/>
					</g>
				</g>
				<path style="opacity:0.3;fill:#FFFFFF;" d="M313.469,78.949c-0.776-0.781-1.577-1.536-2.407-2.262
					c-93.596,34.427-185.484,71.431-276.529,110.377c-1.897,0.811-3.068,2.609-3.187,4.548
					C125.386,154.057,219.427,116.503,313.469,78.949z"/>
				<path style="opacity:0.18;fill:#3B7375;" d="M46.44,229.414c0.911,1.572,2.885,2.172,4.557,1.464
					c91.03-38.543,183.132-74.477,276.408-107.309c2.268-12.367-0.527-25.478-7.208-36.101
					c-54.474,33.76-111.441,63.495-170.278,88.901c0.077,1.413,0.085,2.829,0.001,4.243c-33.654,14.509-67.721,28.99-101.8,43.469
					c-1.998,0.849-2.851,3.248-1.789,5.141C46.366,229.286,46.403,229.35,46.44,229.414z"/>
			</g>
		</g>
	</g>
	<g>
		<path style="opacity:0.18;fill:#3B7375;" d="M392.915,235.794c-113.211,1.059-225.025,1.753-336.814,2.44
			c-3.686,0.023-6.75,2.852-7.054,6.525c-0.005,0.066-0.011,0.131-0.016,0.197c-0.333,4.06,2.812,7.571,6.883,7.691
			c1.873,0.055,4.077,0.108,6.565,0.159c9.655,26.74,9.463,56.934-0.576,83.537c-2.112,0.03-4.224,0.066-6.336,0.095
			c-3.325,0.045-5.975,2.795-5.896,6.119c0.001,0.04,0.002,0.08,0.003,0.12c0.081,3.263,2.761,5.86,6.025,5.836
			c114.593-0.819,229.434-2.139,344.737-4.736C415.404,309.388,412.507,267.776,392.915,235.794z"/>
		<g>
			<g>
				<g>
					<path style="fill:#FFFFFF;" d="M58.354,242.268c11.146,28.368,10.958,61.012-0.514,89.25l210.231-1.157l1.072-91.216
						L58.354,242.268z"/>
					<path style="fill:#D6DDFF;" d="M241.592,242.813c1.774,29.189,2.228,58.458,1.367,87.687l25.111-0.138l1.072-91.216
						l-27.281,0.404L241.592,242.813z"/>
					<path style="opacity:0.18;fill:#3B7375;" d="M171.532,252.336c-28.774,30.721-67.001,52.525-108.119,61.552
						c-1.397,6.009-3.25,11.911-5.573,17.63l210.231-1.157l1.072-91.216l-210.788,3.122c1.27,3.232,2.385,6.521,3.361,9.851
						C78.827,252.1,122.784,252.084,171.532,252.336z"/>
				</g>
				<g>
					
						<path style="fill:none;stroke:#302D38;stroke-width:1.5;stroke-linecap:round;stroke-linejoin:round;stroke-miterlimit:10;" d="
						M62.152,258.724c60.148-0.222,120.301,0.796,180.407,3.051"/>
					
						<path style="fill:none;stroke:#302D38;stroke-width:1.5;stroke-linecap:round;stroke-linejoin:round;stroke-miterlimit:10;" d="
						M64.311,269.777c59.567,1.584,119.134,3.168,178.701,4.752"/>
					
						<path style="fill:none;stroke:#302D38;stroke-width:1.5;stroke-linecap:round;stroke-linejoin:round;stroke-miterlimit:10;" d="
						M64.793,278.636c59.436-0.164,118.872-0.329,178.308-0.494"/>
					
						<path style="fill:none;stroke:#302D38;stroke-width:1.5;stroke-linecap:round;stroke-linejoin:round;stroke-miterlimit:10;" d="
						M65.011,290.432c59.373,3.764,118.864,5.671,178.357,5.717"/>
					
						<path style="fill:none;stroke:#302D38;stroke-width:1.5;stroke-linecap:round;stroke-linejoin:round;stroke-miterlimit:10;" d="
						M63.619,307.789c59.899-1.927,119.84-2.559,179.766-1.894"/>
					
						<path style="fill:none;stroke:#302D38;stroke-width:1.5;stroke-linecap:round;stroke-linejoin:round;stroke-miterlimit:10;" d="
						M60.489,320.491c60.9,0.269,121.8,0.539,182.701,0.807"/>
				</g>
			</g>
			<g>
				<g>
					<path style="fill:#4766FF;" d="M390.222,230.695c19.416,32.089,22.084,73.717,6.927,108.023
						c-115.315,1.962-230.162,2.649-344.758,2.837c-3.264,0.005-5.929-2.606-5.993-5.869c-0.001-0.04-0.002-0.08-0.002-0.12
						c-0.061-3.325,2.604-6.059,5.93-6.086c67.603-0.552,135.188-1.833,202.307-3.725c6.922-12.478,10.137-26.983,9.135-41.218
						c-1.001-14.234-6.215-28.146-17.779-39.088c-57.915,2.316-163.979,1.25-192.855,0.243c-4.071-0.142-7.196-3.671-6.841-7.729
						c0.006-0.066,0.012-0.132,0.017-0.197c0.324-3.672,3.404-6.484,7.09-6.486C165.191,231.208,277.008,231.13,390.222,230.695z"/>
					<path style="fill:#6E86FF;" d="M375.75,258.018l1.575,45.1l-78.834-0.203c-0.718-14.804-1.434-29.609-2.148-44.952
						C322.694,257.537,349.046,257.11,375.75,258.018z"/>
					
						<path style="fill:none;stroke:#302D38;stroke-width:1.5;stroke-linecap:round;stroke-linejoin:round;stroke-miterlimit:10;" d="
						M387.395,311.361c-33.204,2.103-66.481,3.066-99.751,2.887c-1.645-22.968-3.084-44.293-4.795-65.737
						c34.064-0.643,68.13-1.287,101.759-1.188C385.621,269.031,386.634,290.74,387.395,311.361z"/>
				</g>
				<g>
					<path style="opacity:0.3;fill:#FFFFFF;" d="M53.4,231.28c-2.998,0.002-5.595,1.863-6.634,4.534
						c34.283,0.827,243.997,5.594,346.963,1.129c-1.101-2.118-2.269-4.203-3.506-6.248C277.008,231.13,165.191,231.208,53.4,231.28z
						"/>
				</g>
				<path style="opacity:0.18;fill:#3B7375;" d="M254.633,325.754c-67.12,1.893-134.705,3.174-202.307,3.725
					c-3.325,0.027-5.99,2.762-5.93,6.086c0.001,0.04,0.001,0.08,0.002,0.12c0.063,3.263,2.729,5.875,5.993,5.869
					c114.596-0.188,229.443-0.875,344.758-2.837c9.534-21.579,12.01-46.052,7.707-69.228
					c-45.693,18.999-94.118,30.904-143.159,38.291C260.13,314.044,257.766,320.108,254.633,325.754z"/>
			</g>
			<path style="fill:#F8A500;" d="M204.495,271.178c-5.598,7.971-5.543,18.471-5.2,28.206c0.342,9.734,0.567,20.19-4.105,28.62
				c4.569,4.41,10.002,7.922,16.259,10.045c5.293-4.703,8.719-11.451,9.391-18.499c0.672-7.043-1.302-14.073-1.364-21.148
				c-0.087-9.818,3.676-19.62,10.309-26.858L204.495,271.178z"/>
		</g>
	</g>
	<path style="fill:#1DACBB;" d="M89.915,417.749c-5.67-1.401-11.683-2.796-17.261-1.067c-5.58,1.729-10.234,7.854-8.188,13.324
		c2.004,5.361,8.665,6.983,14.331,7.79c65.843,9.385,132.488,9.663,200.952,9.663c63.809,0,122.188-1.68,181.962-13.363
		c4.259-0.832,8.695-1.806,12.034-4.578c3.339-2.772,5.124-7.921,2.781-11.574c-2.28-3.553-7.121-4.183-11.335-4.458
		c-18.548-1.214-37.095-2.427-55.642-3.641L89.915,417.749z"/>
	<g>
		<path style="opacity:0.18;fill:#3B7375;" d="M391.676,230.87c-1.164-0.023-2.66-0.053-4.416-0.087
			c-1.719-6.293-1.231-13.178,1.388-19.155c1.299,0.034,2.592,0.06,3.892,0.095c1.557,0.042,2.886-1.118,3.052-2.666
			c0.182-1.698-1.093-3.206-2.797-3.308c-89.683-5.369-179.628-6.378-269.409-3.022c-5.19,4.049-7.573,9.9-7.407,15.724
			c0.166,5.823,2.88,11.529,7.171,14.948c89.469,1.341,178.94,2.681,268.409,4.022c1.9,0.029,3.425-1.56,3.32-3.457
			C394.783,232.253,393.39,230.904,391.676,230.87z"/>
		<g>
			<g>
				<path style="fill:#FFFFFF;" d="M387.248,205.547c-3.55,7.133-3.924,15.777-1.006,23.19l-157.056-0.558l-2.815-23.528
					L387.248,205.547z"/>
				<path style="fill:#EDC0C5;" d="M229.186,228.179l7.421,0.026c-0.006-1.256-0.036-2.219-0.036-2.219
					c-0.336-7.095-0.673-14.189-1.008-21.284l-9.191-0.051L229.186,228.179z"/>
				<path style="opacity:0.18;fill:#3B7375;" d="M387.248,205.547l-160.877-0.896l2.815,23.528l157.056,0.558
					c-1.304-3.313-1.946-6.871-1.945-10.431c-33.484-1.123-66.896-4.354-99.972-9.691h101.63
					C386.326,207.569,386.753,206.542,387.248,205.547z"/>
			</g>
			<g>
				<path style="fill:none;stroke:#302D38;stroke-width:1.5;stroke-linecap:round;stroke-linejoin:round;stroke-miterlimit:10;" d="
					M236.009,214.123c49.753-1.945,99.581-1.966,149.334-0.06"/>
				<path style="fill:none;stroke:#302D38;stroke-width:1.5;stroke-linecap:round;stroke-linejoin:round;stroke-miterlimit:10;" d="
					M236.234,218.883c49.715-0.391,99.431-0.782,149.146-1.174"/>
				<path style="fill:none;stroke:#302D38;stroke-width:1.5;stroke-linecap:round;stroke-linejoin:round;stroke-miterlimit:10;" d="
					M236.465,223.743c49.757,0.121,99.515,0.241,149.272,0.36"/>
			</g>
		</g>
		<g>
			<g>
				<path style="fill:#E33C50;" d="M393.471,204.4L393.471,204.4c0.162-1.7-1.13-3.193-2.836-3.275
					c-89.74-4.306-179.691-4.249-269.426,0.17c-5.142,4.111-7.455,9.989-7.22,15.811c0.235,5.821,3.017,11.494,7.348,14.862
					c89.479,0.281,178.959,0.561,268.438,0.842c1.9,0.006,3.406-1.6,3.279-3.496l0,0c-0.115-1.71-1.525-3.042-3.238-3.056
					c-22.06-0.174-156.967-1.236-157.644-1.11c-3.962-5.743-4.104-13.871,0.13-19.283c52.553,0.222,105.106,0.444,158.15,1.237
					C392.008,207.126,393.324,205.95,393.471,204.4z"/>
				<g>
					<path style="fill:#E85A6B;" d="M139.635,200.454c-3.124,0.133-6.247,0.28-9.37,0.423c-3.098,4.411-4.797,9.8-4.743,15.193
						c0.059,5.751,2.131,11.441,5.723,15.929c2.928,0.009,5.856,0.018,8.785,0.028C134.649,222.463,134.52,210.15,139.635,200.454z"
						/>
					<path style="fill:#E85A6B;" d="M152.757,199.927c-2.678,0.101-5.355,0.213-8.032,0.322
						c-4.086,10.129-3.635,22.006,1.212,31.796c2.268,0.007,4.536,0.014,6.804,0.021C148.35,221.96,148.363,210.027,152.757,199.927
						z"/>
				</g>
				<g>
					<defs>
						<path id="SVGID_00000144312818828893101680000017886500347331896753_" d="M393.471,204.4L393.471,204.4
							c0.162-1.7-1.13-3.193-2.836-3.275c-89.74-4.306-179.691-4.249-269.426,0.17c-5.142,4.111-7.455,9.989-7.22,15.811
							c0.235,5.821,3.017,11.494,7.348,14.862c89.479,0.281,178.959,0.561,268.438,0.842c1.9,0.006,3.406-1.6,3.279-3.496l0,0
							c-0.115-1.71-1.525-3.042-3.238-3.056c-22.06-0.174-156.967-1.236-157.644-1.11c-3.962-5.743-4.104-13.871,0.13-19.283
							c52.553,0.222,105.106,0.444,158.15,1.237C392.008,207.126,393.324,205.95,393.471,204.4z"/>
					</defs>
					<clipPath id="SVGID_00000130646267675269799400000001974059026057913251_">
						<use xlink:href="#SVGID_00000144312818828893101680000017886500347331896753_"  style="overflow:visible;"/>
					</clipPath>
					
						<path style="clip-path:url(#SVGID_00000130646267675269799400000001974059026057913251_);fill:none;stroke:#302D38;stroke-width:1.5;stroke-linecap:round;stroke-linejoin:round;stroke-miterlimit:10;" d="
						M213.451,197.296c-5.656,11.114-4.523,25.36,2.82,35.44"/>
					
						<path style="clip-path:url(#SVGID_00000130646267675269799400000001974059026057913251_);fill:none;stroke:#302D38;stroke-width:1.5;stroke-linecap:round;stroke-linejoin:round;stroke-miterlimit:10;" d="
						M221.123,195.743c-5.669,11.997-4.135,27.076,3.834,37.685"/>
				</g>
			</g>
			<path style="opacity:0.3;fill:#FFFFFF;" d="M390.635,201.125c-89.74-4.306-179.691-4.249-269.426,0.17
				c-1.366,1.092-2.526,2.311-3.497,3.618c91.879-3.239,183.865-3.446,275.759-0.633C393.561,202.632,392.3,201.205,390.635,201.125
				z"/>
			<path style="opacity:0.18;fill:#3B7375;" d="M121.337,231.968c89.479,0.281,178.959,0.561,268.438,0.842
				c1.9,0.006,3.406-1.6,3.279-3.496c-0.115-1.71-1.525-3.042-3.238-3.056c-22.06-0.174-156.967-1.236-157.644-1.11
				c-0.92-1.334-1.624-2.799-2.125-4.326c-31.472-0.993-62.911-3.034-94.244-6.158c6.788-6.113,13.738-10.631,20.714-14.878
				c-11.772,0.429-23.541,0.929-35.307,1.509c-5.142,4.111-7.455,9.989-7.22,15.811
				C114.224,222.927,117.005,228.601,121.337,231.968z"/>
		</g>
	</g>
	<g>
		<path style="opacity:0.18;fill:#3B7375;" d="M476.138,406.323c-10.336,5.402-21.516,9.186-33.008,11.173
			c-30.246-85.137-54.872-170.828-74.98-255.718c9.991-5.813,21.13-9.644,33.741-9.267
			C429.627,235.735,454.884,319.787,476.138,406.323z"/>
		<g>
			<g>
				<path style="fill:#F8A500;" d="M476.154,407.331c-10.628,4.803-22.005,7.942-33.592,9.27
					c-25.336-86.725-45.028-173.682-60.256-259.583c10.306-5.233,21.646-8.421,34.215-7.325
					C439.46,234.366,459.876,319.722,476.154,407.331z"/>
				<path style="fill:none;stroke:#302D38;stroke-width:1.5;stroke-linecap:round;stroke-linejoin:round;stroke-miterlimit:10;" d="
					M461.157,373.752l-19.545,5.303c-19.018-61.765-33.872-124.812-43.71-188.667c6.999-1.737,13.998-3.474,19.687-4.174
					C432.096,248.838,446.605,311.463,461.157,373.752z"/>
				<g>
					<path style="fill:#FFBA30;" d="M472.077,385.934c-11.944,0.925-23.77,4.268-35.34,10.331c0.736,2.609,1.476,5.217,2.221,7.826
						c10.302-6.025,21.986-9.83,34.368-11.719C472.914,390.223,472.494,388.079,472.077,385.934z"/>
					<path style="fill:#FFBA30;" d="M420.594,164.841c-12.275-1.27-24.952,1.718-35.376,8.323c0.467,2.542,0.951,5.089,1.425,7.633
						c10.155-7.542,23.491-10.632,35.94-8.448C421.921,169.846,421.262,167.342,420.594,164.841z"/>
				</g>
			</g>
			<path style="opacity:0.18;fill:#3B7375;" d="M435.908,309.504c-15.299-36.997-30.597-73.994-45.896-110.992
				c14.011,72.352,31.286,145.301,52.55,218.088c11.587-1.327,22.965-4.467,33.592-9.27c-2.176-11.711-4.431-23.38-6.752-35.014
				C454.556,354.106,444.99,331.467,435.908,309.504z"/>
			<path style="opacity:0.3;fill:#FFFFFF;" d="M416.521,149.693c-12.57-1.096-23.909,2.092-34.215,7.325
				c0.334,1.883,0.682,3.77,1.02,5.655c10.174-6.24,21.852-10.002,33.752-10.909C416.891,151.074,416.708,150.383,416.521,149.693z"
				/>
		</g>
	</g>
	<g>
		<path style="opacity:0.18;fill:#3B7375;" d="M384.152,198.779c-1.189-0.033-2.769-0.076-4.658-0.128
			c-3.774-7.022-3.52-16.061,0.634-22.864c1.447-0.008,2.886-0.013,4.335-0.022c1.526-0.009,2.771-1.237,2.795-2.762
			c0.025-1.562-1.232-2.843-2.794-2.849c-56.17-0.222-112.34-0.443-168.509-0.666c-5.186,5.373-7.32,11.154-7.308,16.954
			c0.012,5.801,2.172,11.572,6.247,15.994c56.381,0.621,112.762,1.241,169.144,1.861c1.565,0.017,2.831-1.269,2.789-2.833
			C386.788,199.998,385.617,198.819,384.152,198.779z"/>
		<g>
			<g>
				<g>
					<path style="fill:#FFFFFF;" d="M377.861,170.972c-5.13,7.299-5.394,17.695-0.641,25.244l-113.798-1.203l-1.211-23.715
						L377.861,170.972z"/>
					<path style="fill:#DABFFF;" d="M271.704,194.563c-0.437-7.576-0.872-15.152-1.309-22.727l0.064-0.561l-8.248,0.023
						l1.211,23.715l8.165,0.086L271.704,194.563z"/>
					<path style="opacity:0.18;fill:#3B7375;" d="M263.422,195.013l113.798,1.203c-1.677-2.663-2.716-5.682-3.15-8.793
						c-19.141-1.986-38.11-5.608-56.631-10.834h57.613c0.667-1.992,1.597-3.893,2.809-5.617l-115.65,0.327L263.422,195.013z"/>
				</g>
				<g>
					
						<path style="fill:none;stroke:#302D38;stroke-width:1.5;stroke-linecap:round;stroke-linejoin:round;stroke-miterlimit:10;" d="
						M270.844,179.626c35.273-0.159,70.547,0.084,105.814,0.728"/>
					
						<path style="fill:none;stroke:#302D38;stroke-width:1.5;stroke-linecap:round;stroke-linejoin:round;stroke-miterlimit:10;" d="
						M271.134,184.667c34.889-0.209,69.778-0.419,104.667-0.628"/>
					
						<path style="fill:none;stroke:#302D38;stroke-width:1.5;stroke-linecap:round;stroke-linejoin:round;stroke-miterlimit:10;" d="
						M271.472,190.534c34.947-0.328,69.9,0.043,104.832,1.114"/>
				</g>
			</g>
			<g>
				<g>
					<path style="fill:#8229FF;" d="M384.163,169.393L384.163,169.393c0.014-1.562-1.251-2.835-2.813-2.83
						c-56.17,0.162-112.34,0.323-168.509,0.484c-5.149,5.409-7.244,11.204-7.192,17.003c0.052,5.8,2.251,11.557,6.356,15.951
						c56.384,0.236,112.768,0.471,169.153,0.707c1.565,0.007,2.822-1.288,2.769-2.852l0,0c-0.049-1.465-1.228-2.635-2.694-2.666
						c-17.007-0.352-111.537-2.301-112.359-2.071c-2.505-2.603-4.023-6.133-4.19-9.741c-0.167-3.608,1.018-7.264,3.394-10.346
						c37.489-0.183,74.978-0.366,113.309-0.857C382.913,172.155,384.149,170.919,384.163,169.393z"/>
					<g>
						<path style="fill:#984FFF;" d="M226.69,167.007c-2.624,0.008-5.249,0.015-7.873,0.023c-3.644,4.655-5.877,10.406-6.268,16.306
							c-0.383,5.782,1.006,11.655,3.883,16.684c2.209,0.009,4.417,0.018,6.626,0.028
							C217.956,189.539,219.436,176.158,226.69,167.007z"/>
						<path style="fill:#984FFF;" d="M231.105,166.994c-5.39,10.084-5.768,22.715-0.929,33.083c1.757,0.007,3.513,0.015,5.27,0.022
							c-4.185-10.618-3.441-23.043,1.895-33.122C235.263,166.982,233.184,166.988,231.105,166.994z"/>
					</g>
					<g>
						<defs>
							<path id="SVGID_00000121259254089781516640000016975847284660818080_" d="M384.138,172.139l0.05-5.584
								c-57.116,0.164-114.232,0.329-171.348,0.492c-5.149,5.409-7.244,11.204-7.192,17.003c0.052,5.8,2.251,11.557,6.356,15.951
								c57.339,0.24,114.679,0.479,172.019,0.719l-0.185-5.476c0,0-114.061-2.378-114.964-2.126
								c-2.505-2.603-4.023-6.133-4.19-9.741c-0.167-3.608,1.018-7.264,3.394-10.346
								C306.463,172.845,344.849,172.657,384.138,172.139z"/>
						</defs>
						<clipPath id="SVGID_00000127729624628969557160000000799669961882221716_">
							<use xlink:href="#SVGID_00000121259254089781516640000016975847284660818080_"  style="overflow:visible;"/>
						</clipPath>
						<g style="clip-path:url(#SVGID_00000127729624628969557160000000799669961882221716_);">
							
								<path style="fill:none;stroke:#302D38;stroke-width:1.5;stroke-linecap:round;stroke-linejoin:round;stroke-miterlimit:10;" d="
								M251.226,201.665c-4.659-12.211-3.947-26.364,1.913-38.045"/>
							
								<path style="fill:none;stroke:#302D38;stroke-width:1.5;stroke-linecap:round;stroke-linejoin:round;stroke-miterlimit:10;" d="
								M259.627,163.87c-4.604,11.862-5.389,25.172-2.21,37.493"/>
						</g>
					</g>
				</g>
				<path style="opacity:0.3;fill:#FFFFFF;" d="M381.35,166.563c-56.17,0.162-112.34,0.323-168.509,0.484
					c-1.29,1.355-2.387,2.733-3.308,4.131c58.118-3.689,116.435-4.227,174.611-1.607c0.004-0.06,0.019-0.117,0.019-0.177
					C384.177,167.831,382.912,166.559,381.35,166.563z"/>
				<path style="opacity:0.18;fill:#3B7375;" d="M381.157,200.708c1.565,0.007,2.822-1.288,2.769-2.852
					c-0.049-1.465-1.228-2.635-2.694-2.666c-17.007-0.352-111.537-2.301-112.359-2.071c-1.154-1.199-2.086-2.599-2.785-4.108
					c-20.2-1.672-40.323-4.258-60.29-7.747c-0.106,0.928-0.159,1.857-0.151,2.787c0.052,5.8,2.251,11.556,6.356,15.951
					C268.389,200.237,324.773,200.472,381.157,200.708z"/>
			</g>
		</g>
	</g>
	<g>
		<path style="opacity:0.18;fill:#3B7375;" d="M422.507,342.49c-113.214,0.248-225.955,0.993-338.854,1.858
			c-3.012,0.023-5.414,2.549-5.251,5.557c0.002,0.046,0.005,0.092,0.008,0.138c0.157,2.801,2.506,4.976,5.311,4.963
			c0.733-0.003,1.465-0.007,2.198-0.011c6.667,18.039,7.379,38.222,2.001,56.686c-1.341,0.042-2.681,0.076-4.021,0.12
			c-3.505,0.115-6.17,3.198-5.782,6.683c0.007,0.061,0.014,0.123,0.021,0.184c0.342,3.072,2.959,5.382,6.049,5.345
			c111.524-1.339,223.047-2.678,334.57-4.016C432.726,394.798,432.865,366.484,422.507,342.49z"/>
		<g>
			<g>
				<g>
					<path style="fill:#FFFFFF;" d="M81.891,348.633c7.974,19.531,8.8,41.89,2.29,61.957l174.08-2.853l-0.364-60.84L81.891,348.633z
						"/>
					<path style="fill:#EDC0C5;" d="M257.896,346.896l-12.576,0.124c0.941,20.155,1.227,40.341,0.856,60.514l0.458,0.392
						l11.626-0.191L257.896,346.896z"/>
					<path style="opacity:0.18;fill:#3B7375;" d="M81.891,348.633c0.889,2.178,1.675,4.396,2.387,6.638
						c11.917-0.228,66.545-1.251,116.313-1.811c-33.836,21.231-72.702,34.421-112.482,38.084
						c-0.619,6.466-1.922,12.865-3.927,19.045l174.079-2.853l-0.364-60.84L81.891,348.633z"/>
				</g>
				<g>
					
						<path style="fill:none;stroke:#302D38;stroke-width:1.5;stroke-linecap:round;stroke-linejoin:round;stroke-miterlimit:10;" d="
						M84.153,359.527c53.853-1.042,107.705-2.085,161.558-3.127"/>
					
						<path style="fill:none;stroke:#302D38;stroke-width:1.5;stroke-linecap:round;stroke-linejoin:round;stroke-miterlimit:10;" d="
						M86.262,367.929c53.279,0.549,106.558,1.099,159.837,1.648"/>
					
						<path style="fill:none;stroke:#302D38;stroke-width:1.5;stroke-linecap:round;stroke-linejoin:round;stroke-miterlimit:10;" d="
						M87.147,386.302c53.054,1.968,106.107,3.938,159.161,5.907"/>
					
						<path style="fill:none;stroke:#302D38;stroke-width:1.5;stroke-linecap:round;stroke-linejoin:round;stroke-miterlimit:10;" d="
						M86.206,396.536c53.368,0.261,106.735,0.522,160.102,0.784"/>
				</g>
			</g>
			<g>
				<g>
					<path style="fill:#E33C50;" d="M251.946,348.663c5.897,17.487,5.308,39.633-1.627,56.734
						c-55.803-0.676-112.542,0.167-169.262,2.339c-3.504,0.134-6.152,3.232-5.745,6.715c0.007,0.061,0.014,0.122,0.021,0.184
						c0.359,3.07,2.988,5.366,6.078,5.312c111.515-1.953,223.029-3.904,334.543-5.856c13.832-25.276,13.815-53.59,3.325-77.527
						c-113.211,0.871-225.946,2.235-338.839,3.721c-3.012,0.04-5.4,2.579-5.221,5.586c0.003,0.046,0.006,0.092,0.008,0.138
						c0.173,2.8,2.533,4.962,5.338,4.934C137.372,350.361,194.204,349.765,251.946,348.663z"/>
					<g>
						<path style="fill:#E85A6B;" d="M385.109,414.63c4.703-0.082,9.406-0.165,14.109-0.247c9.808-24.701,9.153-53.417-1.82-77.629
							c-4.673,0.039-9.342,0.082-14.013,0.122C394.152,361.201,394.756,389.85,385.109,414.63z"/>
						<path style="fill:#E85A6B;" d="M306.579,359.834c-6.361,5.324-8.769,14.876-5.691,22.578
							c3.078,7.703,11.407,12.966,19.684,12.439c8.278-0.526,15.873-6.802,17.95-14.832c2.078-8.031-1.521-17.202-8.506-21.676
							C322.824,353.736,312.94,354.511,306.579,359.834z"/>
					</g>
					<g>
						<defs>
							<path id="SVGID_00000132809419172935566290000009490438669094138271_" d="M251.946,348.663
								c5.897,17.487,5.308,39.633-1.627,56.734c-55.803-0.676-112.542,0.167-169.262,2.339c-3.504,0.134-6.152,3.232-5.745,6.715
								c0.007,0.061,0.014,0.122,0.021,0.184c0.359,3.07,2.988,5.366,6.078,5.312c111.515-1.953,223.029-3.904,334.543-5.856
								c13.832-25.276,13.815-53.59,3.325-77.527c-113.211,0.871-225.946,2.235-338.839,3.721c-3.012,0.04-5.4,2.579-5.221,5.586
								c0.003,0.046,0.006,0.092,0.008,0.138c0.173,2.8,2.533,4.962,5.338,4.934C137.372,350.361,194.204,349.765,251.946,348.663z"
								/>
						</defs>
						<clipPath id="SVGID_00000097462583220328785950000007785023195225945257_">
							<use xlink:href="#SVGID_00000132809419172935566290000009490438669094138271_"  style="overflow:visible;"/>
						</clipPath>
						
							<path style="clip-path:url(#SVGID_00000097462583220328785950000007785023195225945257_);fill:none;stroke:#302D38;stroke-width:1.5;stroke-linecap:round;stroke-linejoin:round;stroke-miterlimit:10;" d="
							M265.485,336.525c15.743,25.466,17.317,59.103,4.02,85.928"/>
						
							<path style="clip-path:url(#SVGID_00000097462583220328785950000007785023195225945257_);fill:none;stroke:#302D38;stroke-width:1.5;stroke-linecap:round;stroke-linejoin:round;stroke-miterlimit:10;" d="
							M373.598,336.245c10.56,26.05,9.692,56.502-2.333,81.907"/>
					</g>
				</g>
				<path style="opacity:0.18;fill:#3B7375;" d="M250.32,405.397c-55.803-0.676-112.542,0.167-169.262,2.339
					c-3.504,0.134-6.152,3.232-5.745,6.714c0.007,0.061,0.014,0.123,0.021,0.184c0.359,3.07,2.988,5.366,6.078,5.312
					c111.515-1.953,223.029-3.904,334.543-5.856c9.729-17.779,12.598-37.06,9.798-55.265
					c-56.227,16.847-113.874,28.929-172.126,36.136C252.761,398.581,251.663,402.085,250.32,405.397z"/>
				<path style="opacity:0.3;fill:#FFFFFF;" d="M422.147,344.001c-0.847-2.519-1.8-5.002-2.867-7.438
					c-113.211,0.871-225.946,2.235-338.839,3.722c-2.539,0.033-4.628,1.846-5.116,4.215
					C190.933,344.334,306.539,344.168,422.147,344.001z"/>
			</g>
		</g>
	</g>
	<g>
		<path style="opacity:0.6;fill:#FFFFFF;" d="M336.613,131.244c-6.429-5.313-16.312-5.945-23.367-1.495
			c-7.054,4.449-10.741,13.641-8.716,21.733c2.025,8.09,9.606,14.462,17.924,15.065c8.319,0.602,16.739-4.612,19.909-12.326
			C345.533,146.506,343.301,136.77,336.613,131.244z"/>
		<g>
			<path style="fill:#FF810A;" d="M322.261,165.785c6.154-4.207,10.458-11.243,10.7-18.693c0.24-7.45-3.425-14.68-9.295-19.276
				c0,0-1.335,10.662,1.488,18.985C327.976,155.123,322.261,165.785,322.261,165.785z"/>
			<path style="fill:#F8A500;" d="M323.666,127.816c-2.641,1.484-4.713,3.953-5.717,6.813c-1.003,2.859-0.928,6.082,0.207,8.891
				c1.199,2.969,3.484,5.383,4.828,8.289c1.942,4.198,1.704,9.335-0.723,13.977c3.597-2.464,5.515-6.835,6.006-11.167
				c0.49-4.331-0.267-8.698-1.029-12.99C326.475,137.336,325.701,132.975,323.666,127.816z"/>
		</g>
		<path style="opacity:0.18;fill:#3B7375;" d="M336.613,131.244c-0.059-0.049-0.123-0.09-0.183-0.139
			c-0.565,7.153-2.199,14.315-5.911,20.436c-3.639,6-9.481,10.885-16.103,12.532c2.47,1.381,5.208,2.267,8.038,2.473
			c8.319,0.602,16.739-4.612,19.909-12.326C345.533,146.506,343.301,136.77,336.613,131.244z"/>
		<path style="fill:none;stroke:#FFFFFF;stroke-width:2;stroke-linecap:round;stroke-linejoin:round;stroke-miterlimit:10;" d="
			M336.613,131.244c-6.429-5.313-16.312-5.945-23.367-1.495c-7.054,4.449-10.741,13.641-8.716,21.733
			c2.025,8.09,9.606,14.462,17.924,15.065c8.319,0.602,16.739-4.612,19.909-12.326C345.533,146.506,343.301,136.77,336.613,131.244z
			"/>
		<path style="fill:#FFFFFF;" d="M314.705,132.345c-3.673,1.9-6.44,5.469-7.366,9.5c-0.213,0.922-0.33,1.895-0.08,2.806
			c0.251,0.913,0.938,1.752,1.861,1.956c1.315,0.29,2.567-0.753,3.262-1.908c0.695-1.154,1.093-2.501,1.999-3.498
			c1.664-1.835,4.725-2.152,5.944-4.309c0.781-1.38,0.461-3.288-0.729-4.339C318.408,131.503,316.478,131.428,314.705,132.345z"/>
	</g>
	<g>
		<path style="opacity:0.6;fill:#FFFFFF;" d="M60.269,385.49c-6.152-5.084-15.609-5.689-22.36-1.431
			c-6.75,4.257-10.278,13.053-8.34,20.795c1.938,7.743,9.192,13.84,17.152,14.417c7.96,0.575,16.018-4.413,19.051-11.795
			C68.804,400.094,66.668,390.778,60.269,385.49z"/>
		<g>
			<path style="fill:#4766FF;" d="M51.214,382.932c-3.427,1.027-6.705,2.783-9.084,5.455c-2.378,2.673-3.769,6.332-3.259,9.873
				c0.481,3.347,2.53,6.222,4.008,9.265c1.477,3.042,2.352,6.834,0.645,10.55c5.385-2.184,10.282-6.898,10.498-12.705
				c0.146-3.931-1.822-7.58-3.056-11.315C49.732,390.321,49.417,385.698,51.214,382.932z"/>
			<path style="fill:#637EFF;" d="M54.022,405.37c0.146-3.931-1.822-7.58-3.056-11.315c-1.234-3.734-1.549-8.357,0.248-11.123
				c-4.892,2.624-7.984,8.453-6.183,13.704c0.833,2.43,2.436,4.532,3.329,6.941c2.024,5.456,0.088,11.396-4.836,14.498
				C48.909,415.891,53.806,411.177,54.022,405.37z"/>
		</g>
		<path style="opacity:0.18;fill:#3B7375;" d="M53.419,407.077c-4.727,4.534-11.119,7.607-17.469,7.721
			c3.04,2.535,6.818,4.186,10.772,4.472c7.96,0.575,16.018-4.413,19.051-11.795c2.32-5.648,1.605-12.423-1.721-17.665
			C61.641,396.209,58.34,402.356,53.419,407.077z"/>
		<path style="fill:none;stroke:#FFFFFF;stroke-width:2;stroke-linecap:round;stroke-linejoin:round;stroke-miterlimit:10;" d="
			M60.269,385.49c-6.152-5.084-15.609-5.689-22.36-1.431c-6.75,4.257-10.278,13.053-8.34,20.795
			c1.938,7.743,9.192,13.84,17.152,14.417c7.96,0.575,16.018-4.413,19.051-11.795C68.804,400.094,66.668,390.778,60.269,385.49z"/>
		<path style="fill:#FFFFFF;" d="M39.305,386.542c-3.514,1.819-6.162,5.233-7.048,9.091c-0.203,0.882-0.317,1.812-0.077,2.685
			c0.24,0.872,0.897,1.677,1.781,1.871c1.258,0.278,2.457-0.72,3.121-1.825c0.664-1.105,1.046-2.393,1.912-3.348
			c1.593-1.756,4.522-2.059,5.689-4.122c0.747-1.321,0.441-3.147-0.697-4.152C42.849,385.738,41.001,385.664,39.305,386.542z"/>
	</g>
	<g>
		<path style="opacity:0.6;fill:#FFFFFF;" d="M332.868,303.302c-6.152-5.084-15.609-5.689-22.36-1.431
			c-6.75,4.257-10.278,13.053-8.34,20.795c1.938,7.743,9.192,13.84,17.152,14.417c7.96,0.575,16.018-4.413,19.051-11.795
			C341.402,317.906,339.267,308.59,332.868,303.302z"/>
		<g>
			<path style="fill:#E33C50;" d="M311.506,301.708c-1.986,2.976-3.392,6.418-3.521,9.993c-0.128,3.576,1.132,7.281,3.782,9.684
				c2.504,2.272,5.915,3.181,8.994,4.584c3.077,1.402,6.168,3.766,7.223,7.717c2.757-5.115,3.525-11.869-0.01-16.481
				c-2.393-3.122-6.236-4.679-9.567-6.77C315.074,308.345,311.885,304.984,311.506,301.708z"/>
			<path style="fill:#F26F7F;" d="M327.973,317.205c-2.393-3.122-6.236-4.679-9.567-6.77c-3.332-2.09-6.521-5.451-6.9-8.728
				c-2.097,5.14-0.763,11.602,3.972,14.5c2.191,1.341,4.766,1.939,6.99,3.226c5.038,2.913,7.332,8.724,5.516,14.253
				C330.741,328.571,331.509,321.817,327.973,317.205z"/>
		</g>
		<path style="opacity:0.18;fill:#3B7375;" d="M326.017,324.889c-4.727,4.534-11.119,7.607-17.469,7.721
			c3.04,2.535,6.818,4.186,10.772,4.472c7.96,0.575,16.018-4.413,19.051-11.795c2.32-5.648,1.605-12.423-1.721-17.665
			C334.24,314.022,330.938,320.169,326.017,324.889z"/>
		<path style="fill:none;stroke:#FFFFFF;stroke-width:2;stroke-linecap:round;stroke-linejoin:round;stroke-miterlimit:10;" d="
			M332.868,303.302c-6.152-5.084-15.609-5.689-22.36-1.431c-6.75,4.257-10.278,13.053-8.34,20.795
			c1.938,7.743,9.192,13.84,17.152,14.417c7.96,0.575,16.018-4.413,19.051-11.795C341.402,317.906,339.267,308.59,332.868,303.302z"
			/>
		<path style="fill:#FFFFFF;" d="M311.904,304.355c-3.514,1.819-6.162,5.233-7.048,9.091c-0.203,0.882-0.317,1.812-0.077,2.685
			c0.24,0.872,0.897,1.677,1.781,1.871c1.258,0.278,2.457-0.72,3.121-1.825c0.664-1.105,1.046-2.393,1.912-3.348
			c1.593-1.756,4.522-2.059,5.689-4.122c0.747-1.321,0.441-3.147-0.697-4.151C315.447,303.55,313.6,303.477,311.904,304.355z"/>
	</g>
	<g>
		<path style="opacity:0.6;fill:#FFFFFF;" d="M302.933,302.858c-6.153-5.084-15.609-5.689-22.36-1.432
			c-6.75,4.258-10.277,13.054-8.34,20.796c1.937,7.742,9.192,13.84,17.152,14.417c7.961,0.575,16.018-4.413,19.051-11.795
			C311.467,317.461,309.332,308.145,302.933,302.858z"/>
		<g>
			<path style="fill:#20BECF;" d="M272.44,321.048c4.658,3.573,10.296,6.216,16.166,6.103c5.871-0.113,11.889-3.462,13.967-8.953
				c0.652-1.722,0.906-3.572,1.523-5.307c0.616-1.735,1.709-3.439,3.075-3.516c-1.997-2.559-5.724-3.255-8.866-2.444
				c-3.144,0.811-5.81,2.858-8.24,5.011c-2.429,2.153-4.753,4.485-7.586,6.069C279.273,319.8,275.492,320.538,272.44,321.048z"/>
			<path style="fill:#009DAD;" d="M302.573,318.197c0.652-1.722,0.906-3.572,1.523-5.307c0.616-1.735,1.709-3.439,3.075-3.516
				c-2.051-0.801-6.494-0.117-9.095,4.561c-1.07,1.924-2.359,3.746-3.924,5.295c-2.738,2.71-6.638,4.109-10.492,4.112
				c-3.852,0.003-7.991-0.192-11.22-2.295c4.658,3.574,10.296,6.216,16.166,6.103C294.477,327.037,300.495,323.689,302.573,318.197z
				"/>
		</g>
		<path style="opacity:0.18;fill:#3B7375;" d="M308.435,324.843c3.032-7.382,0.897-16.699-5.502-21.986
			c-0.094-0.078-0.196-0.145-0.291-0.22c-1.068,7.303-3.564,14.542-8.437,20.054c-4.285,4.845-10.648,8.1-16.824,8.358
			c3.218,3.163,7.497,5.262,12.004,5.589C297.345,337.214,305.402,332.225,308.435,324.843z"/>
		<path style="fill:none;stroke:#FFFFFF;stroke-width:2;stroke-linecap:round;stroke-linejoin:round;stroke-miterlimit:10;" d="
			M302.933,302.858c-6.153-5.084-15.609-5.689-22.36-1.432c-6.75,4.258-10.277,13.054-8.34,20.796
			c1.937,7.742,9.192,13.84,17.152,14.417c7.961,0.575,16.018-4.413,19.051-11.795C311.467,317.461,309.332,308.145,302.933,302.858
			z"/>
		<path style="fill:#FFFFFF;" d="M281.968,303.91c-3.515,1.819-6.162,5.233-7.048,9.09c-0.203,0.882-0.316,1.813-0.077,2.686
			c0.24,0.872,0.897,1.676,1.781,1.871c1.258,0.277,2.457-0.721,3.121-1.825c0.665-1.105,1.046-2.394,1.912-3.348
			c1.593-1.756,4.522-2.059,5.689-4.122c0.747-1.321,0.441-3.147-0.697-4.152C285.512,303.106,283.665,303.032,281.968,303.91z"/>
	</g>
	<g>
		<path style="fill:#1DACBB;" d="M476.67,296.197c-1.481-1.743-4.407-1.994-6.162-0.529c-1.757,1.465-2.035,4.387-0.586,6.156
			c1.449,1.77,4.369,2.074,6.152,0.641C477.856,301.034,478.254,298.061,476.67,296.197z"/>
		<path style="fill:#1DACBB;" d="M194.705,92.851c-1.481-1.743-4.407-1.994-6.162-0.529c-1.757,1.465-2.035,4.387-0.586,6.156
			c1.449,1.77,4.369,2.074,6.152,0.641C195.891,97.688,196.289,94.715,194.705,92.851z"/>
		<path style="fill:#20BECF;" d="M463.624,174.519c-1.284-1.193-3.5-1.203-4.777-0.002c-1.277,1.201-1.393,3.436-0.23,4.747
			c1.164,1.31,3.423,1.447,4.72,0.269C464.634,178.356,465.009,175.806,463.624,174.519z"/>
		<path style="fill:#20BECF;" d="M453.482,203.381c0.795,0.932,0.685,2.497-0.232,3.31c-0.918,0.812-2.483,0.733-3.313-0.169
			c-0.83-0.901-0.781-2.469,0.105-3.316C450.927,202.36,452.57,202.311,453.482,203.381z"/>
		<path style="fill:#20BECF;" d="M367.617,132.617c0.795,0.932,0.685,2.497-0.232,3.31c-0.918,0.812-2.483,0.733-3.313-0.169
			c-0.83-0.901-0.781-2.469,0.105-3.316C365.063,131.595,366.706,131.547,367.617,132.617z"/>
		<path style="fill:#20BECF;" d="M379.967,81.342c-1.226-1.737-3.921-2.205-5.661-0.982c-1.74,1.223-2.214,3.917-0.994,5.66
			c1.218,1.743,3.911,2.222,5.657,1.007C380.713,85.811,381.215,83.109,379.967,81.342z"/>
		<path style="fill:#1DACBB;" d="M40.915,147.359c-1.14-0.919-2.995-0.761-3.962,0.338c-0.968,1.098-0.891,2.96,0.164,3.974
			c1.056,1.015,2.917,1.02,3.977,0.009C42.154,150.67,42.444,148.591,40.915,147.359z"/>
		<path style="fill:#1DACBB;" d="M445.174,453.636c-1.14-0.919-2.996-0.761-3.962,0.338c-0.968,1.098-0.891,2.96,0.164,3.974
			c1.056,1.015,2.917,1.02,3.977,0.009C446.413,456.947,446.703,454.868,445.174,453.636z"/>
		<path style="fill:#1DACBB;" d="M107.1,450.798c-1.14-0.919-2.996-0.761-3.963,0.338c-0.968,1.098-0.891,2.96,0.164,3.974
			c1.056,1.015,2.917,1.02,3.977,0.009C108.34,454.11,108.629,452.031,107.1,450.798z"/>
		<path style="fill:#1DACBB;" d="M43.766,433.435c-1.14-0.919-2.996-0.761-3.963,0.338c-0.968,1.098-0.891,2.96,0.164,3.974
			c1.056,1.015,2.917,1.02,3.977,0.009C45.006,436.746,45.295,434.667,43.766,433.435z"/>
		<path style="fill:#1DACBB;" d="M177.049,105.783c-1.14-0.919-2.995-0.761-3.962,0.338c-0.968,1.098-0.891,2.96,0.164,3.974
			c1.056,1.015,2.917,1.02,3.977,0.009C178.288,109.094,178.578,107.015,177.049,105.783z"/>
		<path style="fill:#1DACBB;" d="M32.504,320.177c-1.2-1.72-3.813-2.265-5.582-1.138c-1.768,1.126-2.37,3.76-1.236,5.524
			c1.135,1.765,3.816,2.3,5.521,1.078C32.912,324.42,33.462,321.549,32.504,320.177z"/>
		<path style="fill:none;stroke:#302D38;stroke-width:1.5;stroke-linecap:round;stroke-linejoin:round;stroke-miterlimit:10;" d="
			M105.31,134.641c0,0.892-0.723,1.614-1.614,1.614c-0.892,0-1.614-0.723-1.614-1.614c0-0.891,0.723-1.614,1.614-1.614
			C104.587,133.027,105.31,133.75,105.31,134.641z"/>
		<path style="fill:none;stroke:#302D38;stroke-width:1.5;stroke-linecap:round;stroke-linejoin:round;stroke-miterlimit:10;" d="
			M153.454,63.522c0,0.891-0.723,1.614-1.614,1.614c-0.891,0-1.614-0.723-1.614-1.614c0-0.891,0.723-1.614,1.614-1.614
			C152.731,61.908,153.454,62.63,153.454,63.522z"/>
		<path style="fill:none;stroke:#302D38;stroke-width:1.5;stroke-linecap:round;stroke-linejoin:round;stroke-miterlimit:10;" d="
			M91.326,453.708c0,0.892-0.723,1.614-1.614,1.614c-0.892,0-1.614-0.723-1.614-1.614c0-0.891,0.723-1.614,1.614-1.614
			C90.604,452.094,91.326,452.816,91.326,453.708z"/>
		<path style="fill:none;stroke:#302D38;stroke-width:1.5;stroke-linecap:round;stroke-linejoin:round;stroke-miterlimit:10;" d="
			M473.456,327.154c0,0.892-0.723,1.614-1.614,1.614c-0.892,0-1.614-0.723-1.614-1.614c0-0.891,0.723-1.614,1.614-1.614
			C472.734,325.54,473.456,326.263,473.456,327.154z"/>
		<path style="fill:none;stroke:#302D38;stroke-width:1.5;stroke-linecap:round;stroke-linejoin:round;stroke-miterlimit:10;" d="
			M428.387,87.701c0,0.891-0.723,1.614-1.614,1.614c-0.891,0-1.614-0.723-1.614-1.614c0-0.892,0.723-1.614,1.614-1.614
			C427.665,86.087,428.387,86.81,428.387,87.701z"/>
		<path style="fill:none;stroke:#302D38;stroke-width:1.5;stroke-linecap:round;stroke-linejoin:round;stroke-miterlimit:10;" d="
			M426.773,453.708c0,0.892-0.723,1.614-1.614,1.614s-1.614-0.723-1.614-1.614c0-0.891,0.723-1.614,1.614-1.614
			S426.773,452.816,426.773,453.708z"/>
		<path style="fill:none;stroke:#302D38;stroke-width:1.5;stroke-linecap:round;stroke-linejoin:round;stroke-miterlimit:10;" d="
			M33.659,299.042c0,0.891-0.723,1.614-1.614,1.614c-0.892,0-1.614-0.723-1.614-1.614c0-0.892,0.723-1.614,1.614-1.614
			C32.936,297.428,33.659,298.151,33.659,299.042z"/>
		<path style="fill:none;stroke:#302D38;stroke-width:1.5;stroke-linecap:round;stroke-linejoin:round;stroke-miterlimit:10;" d="
			M402.92,123.564c0,1.783-1.445,3.228-3.228,3.228s-3.228-1.445-3.228-3.228c0-1.783,1.445-3.228,3.228-3.228
			S402.92,121.781,402.92,123.564z"/>
		<path style="fill:none;stroke:#302D38;stroke-width:1.5;stroke-linecap:round;stroke-linejoin:round;stroke-miterlimit:10;" d="
			M120.94,120.336c0,1.783-1.445,3.228-3.228,3.228c-1.783,0-3.228-1.445-3.228-3.228c0-1.783,1.445-3.228,3.228-3.228
			C119.494,117.108,120.94,118.553,120.94,120.336z"/>
		<path style="fill:none;stroke:#302D38;stroke-width:1.5;stroke-linecap:round;stroke-linejoin:round;stroke-miterlimit:10;" d="
			M484.048,316.882c0,1.783-1.445,3.228-3.228,3.228c-1.783,0-3.228-1.445-3.228-3.228s1.445-3.228,3.228-3.228
			C482.603,313.654,484.048,315.099,484.048,316.882z"/>
		<path style="fill:none;stroke:#302D38;stroke-width:1.5;stroke-linecap:round;stroke-linejoin:round;stroke-miterlimit:10;" d="
			M255.018,63.522c0,1.783-1.445,3.228-3.228,3.228s-3.228-1.445-3.228-3.228c0-1.783,1.445-3.228,3.228-3.228
			S255.018,61.739,255.018,63.522z"/>
	</g>
</g>
</svg>
