<?xml version="1.0" encoding="utf-8"?>
<!-- Generator: Adobe Illustrator 27.5.0, SVG Export Plug-In . SVG Version: 6.00 Build 0)  -->
<svg version="1.1" xmlns="http://www.w3.org/2000/svg" xmlns:xlink="http://www.w3.org/1999/xlink" x="0px" y="0px"
	 viewBox="0 0 600 500" style="enable-background:new 0 0 600 500;" xml:space="preserve">
<g id="BACKGROUND">
	
		<rect x="50" y="-50" transform="matrix(-1.836970e-16 1 -1 -1.836970e-16 550 -50)" style="fill:#A9CCFF;" width="500" height="600"/>
</g>
<g id="OBJECTS">
	<g>
		<g>
			<g>
				<g>
					<rect x="41.26" y="73.732" style="fill:#FFFFFF;" width="246.943" height="5.299"/>
					<rect x="41.26" y="103.799" style="fill:#FFFFFF;" width="246.943" height="5.299"/>
					<rect x="41.26" y="133.865" style="fill:#FFFFFF;" width="165.363" height="5.299"/>
					<rect x="41.26" y="163.931" style="fill:#FFFFFF;" width="246.943" height="5.299"/>
					<rect x="41.26" y="193.997" style="fill:#FFFFFF;" width="246.943" height="5.299"/>
					<rect x="41.26" y="224.063" style="fill:#FFFFFF;" width="246.943" height="5.299"/>
					<rect x="41.26" y="254.129" style="fill:#FFFFFF;" width="246.943" height="5.299"/>
					<rect x="41.26" y="284.195" style="fill:#FFFFFF;" width="246.943" height="5.299"/>
					<rect x="41.26" y="314.261" style="fill:#FFFFFF;" width="196.732" height="5.299"/>
					<rect x="41.26" y="344.327" style="fill:#FFFFFF;" width="246.943" height="5.299"/>
					<rect x="41.26" y="374.393" style="fill:#FFFFFF;" width="165.363" height="5.299"/>
					<rect x="41.26" y="404.459" style="fill:#FFFFFF;" width="246.943" height="5.299"/>
					<rect x="41.26" y="434.525" style="fill:#FFFFFF;" width="224.29" height="5.299"/>
				</g>
			</g>
		</g>
		<g>
			<g>
				<g>
					<rect x="314.264" y="73.732" style="fill:#FFFFFF;" width="246.943" height="5.299"/>
					<rect x="314.264" y="103.799" style="fill:#FFFFFF;" width="246.943" height="5.299"/>
					<rect x="314.264" y="133.865" style="fill:#FFFFFF;" width="165.363" height="5.299"/>
					<rect x="314.264" y="163.931" style="fill:#FFFFFF;" width="246.943" height="5.299"/>
					<rect x="314.264" y="193.997" style="fill:#FFFFFF;" width="246.943" height="5.299"/>
					<rect x="314.264" y="224.063" style="fill:#FFFFFF;" width="246.943" height="5.299"/>
					<rect x="314.264" y="254.129" style="fill:#FFFFFF;" width="246.943" height="5.299"/>
					<rect x="314.264" y="284.195" style="fill:#FFFFFF;" width="246.943" height="5.299"/>
					<rect x="314.264" y="314.261" style="fill:#FFFFFF;" width="196.732" height="5.299"/>
					<rect x="314.264" y="344.327" style="fill:#FFFFFF;" width="246.943" height="5.299"/>
					<rect x="314.264" y="374.393" style="fill:#FFFFFF;" width="165.363" height="5.299"/>
					<rect x="314.264" y="404.459" style="fill:#FFFFFF;" width="246.943" height="5.299"/>
					<rect x="314.264" y="434.525" style="fill:#FFFFFF;" width="224.289" height="5.299"/>
				</g>
			</g>
		</g>
	</g>
	<g>
		<g>
			
				<rect x="318.321" y="66.954" transform="matrix(0.9618 -0.2738 0.2738 0.9618 -43.879 123.602)" style="fill:#F0CADB;stroke:#000000;stroke-linecap:round;stroke-linejoin:round;stroke-miterlimit:10;" width="205.176" height="304.118"/>
			
				<rect x="113.533" y="125.247" transform="matrix(0.9618 -0.2738 0.2738 0.9618 -67.6623 69.7631)" style="fill:#F0CADB;stroke:#000000;stroke-linecap:round;stroke-linejoin:round;stroke-miterlimit:10;" width="205.176" height="304.118"/>
			
				<rect x="311.003" y="96.608" transform="matrix(0.9618 -0.2738 0.2738 0.9618 -55.9777 96.2136)" style="fill:#DA445A;stroke:#000000;stroke-linecap:round;stroke-linejoin:round;stroke-miterlimit:10;" width="11.457" height="304.118"/>
		</g>
		<g>
			<g>
				<g>
					
						<rect x="280.582" y="192.83" transform="matrix(0.28 -0.96 0.96 0.28 41.145 613.3641)" style="fill:#62A5F5;stroke:#000000;stroke-linecap:round;stroke-linejoin:round;stroke-miterlimit:10;" width="297.807" height="172.844"/>
					
						<rect x="312.289" y="202.078" transform="matrix(0.28 -0.96 0.96 0.28 55.0952 650.4606)" style="fill:#62A5F5;stroke:#000000;stroke-linecap:round;stroke-linejoin:round;stroke-miterlimit:10;" width="297.807" height="172.844"/>
				</g>
			</g>
			<g>
				<g>
					
						<rect x="289.837" y="152.085" transform="matrix(0.0949 -0.9955 0.9955 0.0949 146.4227 670.3415)" style="fill:#2726D6;stroke:#000000;stroke-linecap:round;stroke-linejoin:round;stroke-miterlimit:10;" width="304.042" height="205.124"/>
					
						<rect x="428.406" y="151.469" transform="matrix(0.0949 -0.9955 0.9955 0.0949 194.6387 634.2309)" style="fill:#EFC43D;" width="35.402" height="117.215"/>
					
						<rect x="182.037" y="238.643" transform="matrix(0.0949 -0.9955 0.9955 0.0949 59.085 553.7251)" style="fill:#EFC43D;stroke:#000000;stroke-linecap:round;stroke-linejoin:round;stroke-miterlimit:10;" width="304.042" height="11.454"/>
					
						<line style="fill:none;stroke:#000000;stroke-linecap:round;stroke-linejoin:round;stroke-miterlimit:10;" x1="404.816" y1="199.856" x2="491.993" y2="208.355"/>
					
						<line style="fill:none;stroke:#000000;stroke-linecap:round;stroke-linejoin:round;stroke-miterlimit:10;" x1="403.97" y1="212.154" x2="491.146" y2="220.653"/>
				</g>
			</g>
		</g>
	</g>
	<g>
		<g>
			<path style="stroke:#000000;stroke-linecap:round;stroke-linejoin:round;stroke-miterlimit:10;" d="M235.786,52.234
				c-0.32-1.815-1.339-3.329-2.731-4.319c0.43-1.653,0.237-3.468-0.684-5.064c-0.921-1.596-2.397-2.67-4.044-3.124
				c-0.161-1.7-0.963-3.34-2.375-4.525c-1.412-1.184-3.166-1.689-4.868-1.553c-0.733-1.542-2.048-2.809-3.779-3.44
				c-1.731-0.63-3.553-0.504-5.106,0.206c-1.217-1.198-2.885-1.94-4.728-1.94c-1.843,0-3.511,0.741-4.728,1.94
				c-1.553-0.71-3.374-0.836-5.106-0.206c-1.732,0.63-3.046,1.897-3.779,3.44c-1.702-0.136-3.457,0.368-4.868,1.553
				c-1.412,1.184-2.213,2.825-2.375,4.525c-1.646,0.454-3.122,1.529-4.043,3.124c-0.921,1.596-1.114,3.411-0.684,5.064
				c-1.392,0.99-2.411,2.504-2.731,4.319c-0.32,1.815,0.12,3.586,1.089,4.993c-0.969,1.406-1.409,3.178-1.089,4.993
				c0.32,1.815,1.339,3.329,2.731,4.319c-0.43,1.653-0.237,3.468,0.684,5.064c0.921,1.596,2.397,2.67,4.043,3.124
				c0.162,1.7,0.963,3.34,2.375,4.525c1.411,1.184,3.166,1.689,4.868,1.553c0.733,1.542,2.048,2.809,3.779,3.44
				c1.731,0.63,3.553,0.504,5.106-0.206c1.217,1.199,2.885,1.94,4.727,1.94c1.843,0,3.511-0.741,4.728-1.94
				c1.553,0.71,3.374,0.836,5.106,0.206c1.732-0.63,3.046-1.897,3.779-3.44c1.702,0.136,3.457-0.368,4.868-1.553
				c1.412-1.184,2.213-2.825,2.375-4.525c1.646-0.454,3.122-1.529,4.044-3.124c0.921-1.596,1.114-3.411,0.684-5.064
				c1.392-0.99,2.411-2.504,2.731-4.319c0.32-1.815-0.12-3.586-1.089-4.993C235.665,55.82,236.106,54.049,235.786,52.234z"/>
			<path style="fill:#1F286D;stroke:#000000;stroke-linecap:round;stroke-linejoin:round;stroke-miterlimit:10;" d="
				M104.968,420.729c0,0-11.01,18.686-13.242,22.803c-2.232,4.116,0.345,10.758,0.345,10.758l36.302-31.002l-11.134-13.038
				L104.968,420.729z"/>
			<path style="fill:#E7983E;stroke:#000000;stroke-linecap:round;stroke-linejoin:round;stroke-miterlimit:10;" d="
				M177.472,199.012c0,0-81.841,66.174-81.928,95.748c-0.087,29.574,3.396,126.996,3.396,126.996l28.113-2.974l10.355-115.943
				c0,0,77.233-42.814,86.048-64.821c8.815-22.007-6.97-43.133-6.97-43.133L177.472,199.012z"/>
			<path style="fill:#E277C5;stroke:#000000;stroke-linecap:round;stroke-linejoin:round;stroke-miterlimit:10;" d="
				M146.217,152.456l14.525-34.42c0.028-0.055,0.056-0.11,0.084-0.165c4.121-8.053,12.947-12.567,21.936-11.55l3.198,0.362
				c0,0,3.962,4.161,0.363,16.883c-5.995,21.193-22.795,59.227-32.5,59.335c-20.415,0.228-44.354-38.36-44.354-38.36l10.47-10.905
				L146.217,152.456z"/>
			<path style="fill:#1F286D;stroke:#000000;stroke-linecap:round;stroke-linejoin:round;stroke-miterlimit:10;" d="
				M214.902,442.264c0,0-15.34,15.333-18.531,18.759c-3.192,3.426-2.361,10.501-2.361,10.501l42.911-20.92l-7.513-15.412
				L214.902,442.264z"/>
			<path style="fill:#E7983E;stroke:#000000;stroke-linecap:round;stroke-linejoin:round;stroke-miterlimit:10;" d="M205.765,209.48
				c0,0-54.349,90.128-44.34,117.957c10.009,27.829,46.526,118.215,46.526,118.215l25.411-12.388l-29.829-112.517
				c0,0,42.252-59.587,43.029-83.281c0.777-23.694-5.534-45.177-5.534-45.177L205.765,209.48z"/>
			<polygon style="fill:#E277C5;stroke:#000000;stroke-linecap:round;stroke-linejoin:round;stroke-miterlimit:10;" points="
				195.56,97.934 207.807,102.069 220.055,97.934 246.563,106.767 243.218,202.258 173.548,202.258 169.052,106.767 			"/>
			<g>
				<defs>
					<path id="SVGID_1_" d="M214.547,111.877c-4.717,1.755-9.434,1.755-14.152,0c-3.125-1.162-5.172-4.182-5.172-7.517V79.554
						h24.495v24.806C219.719,107.695,217.673,110.714,214.547,111.877z"/>
				</defs>
				<use xlink:href="#SVGID_1_"  style="overflow:visible;fill:#95592D;"/>
				<clipPath id="SVGID_00000012431948473701199230000006107930419050271625_">
					<use xlink:href="#SVGID_1_"  style="overflow:visible;"/>
				</clipPath>
				
					<path style="clip-path:url(#SVGID_00000012431948473701199230000006107930419050271625_);stroke:#000000;stroke-linecap:round;stroke-linejoin:round;stroke-miterlimit:10;" d="
					M187.053,74.892c0-15.819,9.142-25.044,20.418-25.044c11.277,0,20.418,9.225,20.418,25.044c0,15.819-8.171,26.294-20.418,26.294
					C195.224,101.186,187.053,90.711,187.053,74.892z"/>
				
					<use xlink:href="#SVGID_1_"  style="overflow:visible;fill:none;stroke:#000000;stroke-linecap:round;stroke-linejoin:round;stroke-miterlimit:10;"/>
			</g>
			<path style="fill:#95592D;stroke:#000000;stroke-linecap:round;stroke-linejoin:round;stroke-miterlimit:10;" d="M224.844,70.704
				c0,0,3.402-8.514,8.968-4.152c5.567,4.362-0.309,17.784-8.968,14.764"/>
			<path style="fill:#95592D;stroke:#000000;stroke-linecap:round;stroke-linejoin:round;stroke-miterlimit:10;" d="M190.099,70.704
				c0,0-3.402-8.514-8.968-4.152c-5.567,4.362,0.309,17.784,8.968,14.764"/>
			<g>
				<defs>
					<path id="SVGID_00000140717526153325136460000005519206626233364407_" d="M227.89,70.079c0-15.819-9.142-25.044-20.418-25.044
						c-11.277,0-20.418,9.225-20.418,25.044s8.171,26.294,20.418,26.294C219.719,96.373,227.89,85.898,227.89,70.079z"/>
				</defs>
				<use xlink:href="#SVGID_00000140717526153325136460000005519206626233364407_"  style="overflow:visible;fill:#95592D;"/>
				<clipPath id="SVGID_00000154417702312407504020000006082014500349250954_">
					<use xlink:href="#SVGID_00000140717526153325136460000005519206626233364407_"  style="overflow:visible;"/>
				</clipPath>
				<path style="opacity:0.5;clip-path:url(#SVGID_00000154417702312407504020000006082014500349250954_);" d="M190.493,79.554
					c0,3.055,2.476,5.531,5.531,5.531s5.531-2.476,5.531-5.531s-2.476-5.531-5.531-5.531S190.493,76.499,190.493,79.554z"/>
				<path style="opacity:0.5;clip-path:url(#SVGID_00000154417702312407504020000006082014500349250954_);" d="M213.388,79.554
					c0,3.055,2.476,5.531,5.531,5.531c3.055,0,5.531-2.476,5.531-5.531s-2.476-5.531-5.531-5.531
					C215.864,74.023,213.388,76.499,213.388,79.554z"/>
				
					<use xlink:href="#SVGID_00000140717526153325136460000005519206626233364407_"  style="overflow:visible;fill:none;stroke:#000000;stroke-linecap:round;stroke-linejoin:round;stroke-miterlimit:10;"/>
			</g>
			<path style="stroke:#000000;stroke-linecap:round;stroke-linejoin:round;stroke-miterlimit:10;" d="M229.179,54.521
				c0.783,3.123,1.238,6.701,1.238,10.798l-2.527,4.76c0,0-0.453-21.311-20.418-21.311s-20.418,21.311-20.418,21.311l-2.527-4.76
				c0-4.097,0.455-7.675,1.238-10.798C191.383,32.099,223.561,32.099,229.179,54.521z"/>
			<g>
				<g>
					<defs>
						<path id="XMLID_00000044162504962393847000000013211595012495436714_" d="M344.383,394.797L127.318,31.279l-0.394,0.235h0
							c-17.929-0.141-33.469,9.139-41.85,24.989l0,0l-0.394,0.235l217.066,363.519L344.383,394.797z"/>
					</defs>
					<use xlink:href="#XMLID_00000044162504962393847000000013211595012495436714_"  style="overflow:visible;fill:#81D0D3;"/>
					<clipPath id="XMLID_00000128449220302880414750000011943083484766084030_">
						<use xlink:href="#XMLID_00000044162504962393847000000013211595012495436714_"  style="overflow:visible;"/>
					</clipPath>
					<path style="clip-path:url(#XMLID_00000128449220302880414750000011943083484766084030_);fill:#EFC43D;" d="M342.752,419.564
						L106.27,23.529l-0.166,0.099l0,0c-10.743-5.402-17.289-1.493-17.628,10.526l0,0l-0.166,0.099l236.481,396.034L342.752,419.564z
						"/>
					
						<use xlink:href="#XMLID_00000044162504962393847000000013211595012495436714_"  style="overflow:visible;fill:none;stroke:#000000;stroke-linecap:round;stroke-linejoin:round;stroke-miterlimit:10;"/>
				</g>
				<g>
					<defs>
						<path id="XMLID_00000124129536440423012120000006228375771387291544_" d="M344.383,394.797l-0.537-0.004
							c-17.929-0.141-33.469,9.139-41.849,24.989l-0.251,0.475l54.688,43.155L344.383,394.797z"/>
					</defs>
					<use xlink:href="#XMLID_00000124129536440423012120000006228375771387291544_"  style="overflow:visible;fill:#FFFFFF;"/>
					<clipPath id="XMLID_00000087370524560210277130000014625101008505659271_">
						<use xlink:href="#XMLID_00000124129536440423012120000006228375771387291544_"  style="overflow:visible;"/>
					</clipPath>
					
						<path style="clip-path:url(#XMLID_00000087370524560210277130000014625101008505659271_);fill:#1F286D;stroke:#000000;stroke-linecap:round;stroke-linejoin:round;stroke-miterlimit:10;" d="
						M353.304,432.272l-0.267-0.002c-8.918-0.07-16.647,4.545-20.815,12.429l-0.125,0.236l27.201,21.464L353.304,432.272z"/>
					
						<use xlink:href="#XMLID_00000124129536440423012120000006228375771387291544_"  style="overflow:visible;fill:none;stroke:#000000;stroke-linecap:round;stroke-linejoin:round;stroke-miterlimit:10;"/>
				</g>
			</g>
			<path style="fill:#95592D;stroke:#000000;stroke-linecap:round;stroke-linejoin:round;stroke-miterlimit:10;" d="
				M229.685,182.901L225,174.495c-2.245-1.364-4.825-1.976-7.325-1.862c-3.281,0.15-9.292,0.555-12.956,1.593
				c-7.858,2.101-11.956,2.746-10.356,5.125c1.708,2.54,12.505,0.743,12.505,0.743s-5.901,3.906-8.297,4.869
				c-2.396,0.963-7.307,0.146-7.674,2.178c-0.448,2.481,3.38,3.445,3.38,3.445s-0.745,2.285,2.709,3.568
				c0,0,0.111,2.539,3.237,2.849l1.231,0.222c0,0,1.315,1.721,4.066,2.518c2.751,0.796,8.565-1.939,14.181-5.086
				C225.318,191.51,230.803,188.992,229.685,182.901z"/>
			<path style="fill:#95592D;stroke:#000000;stroke-linecap:round;stroke-linejoin:round;stroke-miterlimit:10;" d="
				M118.426,146.094c-1.283,0.996-2.621,1.316-3.873,1.268c-2.932-0.112-5.386-2.266-6.174-5.092
				c-1.221-4.385-3.824-11.449-4.089-14.654c-0.648-7.845,0.247-8.37,4.523-14.884c4.276-6.514,5.43-6.576,6.967-5.346
				c1.538,1.229-2.4,7.517-2.4,7.517s3.333-2.547,5.542,1.958c0,0,3.247,0.367,3.91,4.502c0,0,2.932,1.108,2.411,3.921
				c-0.521,2.814-2.734,1.039-2.734,1.039l-0.943,1.176c0,0,4.535,12.358-2.951,18.444
				C118.553,145.994,118.49,146.044,118.426,146.094z"/>
			<g>
				<path style="fill:none;stroke:#000000;stroke-linecap:round;stroke-linejoin:round;stroke-miterlimit:10;" d="M204.477,76.81
					c1.996,1.996,3.993,1.996,5.989,0"/>
				<g>
					<defs>
						<path id="XMLID_00000183938515917794057500000013041085955191402682_" d="M200.759,79.979c4.475,1.524,8.95,1.524,13.426,0
							c0,0-0.286,5.999-6.713,5.999S200.759,79.979,200.759,79.979z"/>
					</defs>
					<use xlink:href="#XMLID_00000183938515917794057500000013041085955191402682_"  style="overflow:visible;fill:#DA445A;"/>
					<clipPath id="XMLID_00000028303291973182830730000011299748786230031793_">
						<use xlink:href="#XMLID_00000183938515917794057500000013041085955191402682_"  style="overflow:visible;"/>
					</clipPath>
					
						<path style="clip-path:url(#XMLID_00000028303291973182830730000011299748786230031793_);fill:#FFFFFF;stroke:#000000;stroke-linecap:round;stroke-linejoin:round;stroke-miterlimit:10;" d="
						M214.184,82.309c-4.475,1.523-8.95,1.523-13.426,0v-6.043h13.426V82.309"/>
					
						<use xlink:href="#XMLID_00000183938515917794057500000013041085955191402682_"  style="overflow:visible;fill:none;stroke:#000000;stroke-linecap:round;stroke-linejoin:round;stroke-miterlimit:10;"/>
				</g>
				<g>
					<path style="stroke:#000000;stroke-linecap:round;stroke-linejoin:round;stroke-miterlimit:10;" d="M201.366,70.987
						c0,1.079-0.875,1.954-1.954,1.954c-1.079,0-1.954-0.875-1.954-1.954s0.875-1.954,1.954-1.954
						C200.491,69.033,201.366,69.908,201.366,70.987z"/>
					<path style="stroke:#000000;stroke-linecap:round;stroke-linejoin:round;stroke-miterlimit:10;" d="M217.484,70.987
						c0,1.079-0.875,1.954-1.954,1.954c-1.079,0-1.954-0.875-1.954-1.954s0.875-1.954,1.954-1.954
						C216.61,69.033,217.484,69.908,217.484,70.987z"/>
					<path style="stroke:#000000;stroke-linecap:round;stroke-linejoin:round;stroke-miterlimit:10;" d="M196.837,66.528
						c1.078-0.725,2.651-1.436,4.824-1.655c0.791-0.079,1.391-0.751,1.391-1.546l0,0c0-0.985-0.9-1.724-1.865-1.529
						c-1.625,0.329-3.933,1.255-5.327,3.826C195.52,66.252,196.245,66.926,196.837,66.528z"/>
					<path style="stroke:#000000;stroke-linecap:round;stroke-linejoin:round;stroke-miterlimit:10;" d="M218.106,66.528
						c-1.078-0.725-2.651-1.436-4.824-1.655c-0.791-0.079-1.391-0.751-1.391-1.546l0,0c0-0.985,0.899-1.724,1.864-1.529
						c1.625,0.329,3.933,1.255,5.327,3.826C219.423,66.252,218.698,66.926,218.106,66.528z"/>
					<path style="fill:none;stroke:#000000;stroke-linecap:round;stroke-linejoin:round;stroke-miterlimit:10;" d="M183.031,71.452
						c0,0,3.535-0.109,4.454,4.065"/>
					<path style="fill:none;stroke:#000000;stroke-linecap:round;stroke-linejoin:round;stroke-miterlimit:10;" d="M231.912,71.452
						c0,0-3.535-0.109-4.455,4.065"/>
				</g>
			</g>
			<path style="fill:#E277C5;stroke:#000000;stroke-linecap:round;stroke-linejoin:round;stroke-miterlimit:10;" d="
				M252.308,167.113l-14.912-34.255c-0.021-0.058-0.041-0.116-0.062-0.174c-2.991-8.538-0.174-18.042,6.761-23.851l2.467-2.066
				c0,0,5.746,0,12.478,11.378c11.214,18.955,27.175,57.349,20.561,64.453c-13.912,14.942-49.917,8.794-49.917,8.794l-6.264-18.772
				L252.308,167.113z"/>
			
				<line style="fill:#E277C5;stroke:#000000;stroke-linecap:round;stroke-linejoin:round;stroke-miterlimit:10;" x1="252.308" y1="167.113" x2="266.54" y2="164.012"/>
			<path style="fill:#E277C5;stroke:#000000;stroke-linecap:round;stroke-linejoin:round;stroke-miterlimit:10;" d="
				M204.477,116.635c0,0,16.956,3.968,25.94-15.248c-2.27-7.259-10.698-7.962-10.698-7.962s-0.932,15.005-15.242,17.818"/>
			<path style="fill:#E277C5;stroke:#000000;stroke-linecap:round;stroke-linejoin:round;stroke-miterlimit:10;" d="
				M211.892,116.677c0,0-18.419,3.926-27.403-15.29c2.27-7.259,10.698-7.962,10.698-7.962s0.932,15.005,15.242,17.818"/>
			<path style="fill:none;stroke:#000000;stroke-linecap:round;stroke-linejoin:round;stroke-miterlimit:10;" d="M203.052,127.066
				c0,0-1.954-13.874,4.42-13.874c6.374,0,4.42,13.874,4.42,13.874"/>
			
				<circle style="fill:#E277C5;stroke:#000000;stroke-linecap:round;stroke-linejoin:round;stroke-miterlimit:10;" cx="203.052" cy="127.805" r="1.61"/>
			
				<circle style="fill:#E277C5;stroke:#000000;stroke-linecap:round;stroke-linejoin:round;stroke-miterlimit:10;" cx="211.892" cy="127.805" r="1.61"/>
			<g>
				<path style="fill:none;stroke:#EFC43D;stroke-linecap:round;stroke-linejoin:round;stroke-miterlimit:10;" d="M190.151,70.084
					c0,4.239,3.436,5.358,7.675,5.358c4.239,0,7.675-1.119,7.675-5.358c0-4.239-3.436-4.805-7.675-4.805
					C193.587,65.28,190.151,65.845,190.151,70.084z"/>
				<path style="fill:none;stroke:#EFC43D;stroke-linecap:round;stroke-linejoin:round;stroke-miterlimit:10;" d="M209.442,70.084
					c0,4.239,3.436,5.358,7.675,5.358c4.239,0,7.675-1.119,7.675-5.358c0-4.239-3.436-4.805-7.675-4.805
					C212.878,65.28,209.442,65.845,209.442,70.084z"/>
				
					<line style="fill:none;stroke:#EFC43D;stroke-linecap:round;stroke-linejoin:round;stroke-miterlimit:10;" x1="205.501" y1="70.084" x2="209.442" y2="70.084"/>
				
					<line style="fill:none;stroke:#EFC43D;stroke-linecap:round;stroke-linejoin:round;stroke-miterlimit:10;" x1="190.151" y1="70.084" x2="186.331" y2="68.335"/>
				
					<line style="fill:none;stroke:#EFC43D;stroke-linecap:round;stroke-linejoin:round;stroke-miterlimit:10;" x1="224.792" y1="70.084" x2="227.89" y2="68.977"/>
			</g>
			<path style="fill:#95592D;stroke:#000000;stroke-linecap:round;stroke-linejoin:round;stroke-miterlimit:10;" d="
				M108.378,123.861c0,0,1.175-5.819,5.985-10.669"/>
			<path style="fill:#95592D;stroke:#000000;stroke-linecap:round;stroke-linejoin:round;stroke-miterlimit:10;" d="
				M113.101,123.861c0,0,1.075-6.806,5.822-7.001"/>
			<path style="fill:#95592D;stroke:#000000;stroke-linecap:round;stroke-linejoin:round;stroke-miterlimit:10;" d="
				M117.824,124.986c0,0-0.102-4.999,5.009-3.624"/>
			<path style="fill:#95592D;stroke:#000000;stroke-linecap:round;stroke-linejoin:round;stroke-miterlimit:10;" d="
				M194.278,190.586c0,0,8.727-0.156,15.164-6.453"/>
			<path style="fill:#95592D;stroke:#000000;stroke-linecap:round;stroke-linejoin:round;stroke-miterlimit:10;" d="
				M196.987,194.154c0,0,7.994,0.774,14.905-5.523"/>
			<path style="fill:#95592D;stroke:#000000;stroke-linecap:round;stroke-linejoin:round;stroke-miterlimit:10;" d="
				M201.455,197.225c0,0,8.562,0.07,12.73-4.937"/>
			<g>
				
					<line style="fill:#DA445A;stroke:#000000;stroke-linecap:round;stroke-linejoin:round;stroke-miterlimit:10;" x1="134.13" y1="302.914" x2="120.689" y2="296.925"/>
				
					<line style="fill:#DA445A;stroke:#000000;stroke-linecap:round;stroke-linejoin:round;stroke-miterlimit:10;" x1="136.059" y1="299.386" x2="127.409" y2="287.25"/>
			</g>
			<g>
				
					<line style="fill:#DA445A;stroke:#000000;stroke-linecap:round;stroke-linejoin:round;stroke-miterlimit:10;" x1="201.149" y1="322.202" x2="186.676" y2="324.861"/>
				
					<line style="fill:#DA445A;stroke:#000000;stroke-linecap:round;stroke-linejoin:round;stroke-miterlimit:10;" x1="200.745" y1="318.202" x2="186.75" y2="313.081"/>
			</g>
		</g>
		<g>
			<path style="fill:none;stroke:#EFC43D;stroke-linecap:round;stroke-linejoin:round;stroke-miterlimit:10;" d="M100.836,427.765
				c0,0-12.458,2.775-10.019-3.972C93.256,417.046,100.836,427.765,100.836,427.765z"/>
			<path style="fill:none;stroke:#EFC43D;stroke-linecap:round;stroke-linejoin:round;stroke-miterlimit:10;" d="M101.401,427.669
				c0,0-2.775-12.458,3.972-10.019C112.12,420.089,101.401,427.669,101.401,427.669z"/>
			
				<line style="fill:none;stroke:#EFC43D;stroke-linecap:round;stroke-linejoin:round;stroke-miterlimit:10;" x1="99.402" y1="428.014" x2="107.509" y2="429.351"/>
			
				<line style="fill:none;stroke:#EFC43D;stroke-linecap:round;stroke-linejoin:round;stroke-miterlimit:10;" x1="97.372" y1="431.483" x2="104.642" y2="432.519"/>
			
				<line style="fill:none;stroke:#EFC43D;stroke-linecap:round;stroke-linejoin:round;stroke-miterlimit:10;" x1="96.499" y1="435.193" x2="101.007" y2="436.524"/>
		</g>
		<g>
			<path style="fill:none;stroke:#EFC43D;stroke-linecap:round;stroke-linejoin:round;stroke-miterlimit:10;" d="M209.548,448.605
				c0,0-12.596-2.06-7.821-7.415S209.548,448.605,209.548,448.605z"/>
			<path style="fill:none;stroke:#EFC43D;stroke-linecap:round;stroke-linejoin:round;stroke-miterlimit:10;" d="M210.108,448.726
				c0,0,2.06-12.596,7.415-7.821C222.878,445.68,210.108,448.726,210.108,448.726z"/>
			
				<line style="fill:none;stroke:#EFC43D;stroke-linecap:round;stroke-linejoin:round;stroke-miterlimit:10;" x1="208.124" y1="448.303" x2="215.152" y2="452.561"/>
			
				<line style="fill:none;stroke:#EFC43D;stroke-linecap:round;stroke-linejoin:round;stroke-miterlimit:10;" x1="204.95" y1="450.767" x2="211.312" y2="454.434"/>
			
				<line style="fill:none;stroke:#EFC43D;stroke-linecap:round;stroke-linejoin:round;stroke-miterlimit:10;" x1="202.758" y1="453.886" x2="206.447" y2="456.799"/>
		</g>
	</g>
</g>
</svg>
