<?xml version="1.0" encoding="utf-8"?>
<!-- Generator: Adobe Illustrator 27.5.0, SVG Export Plug-In . SVG Version: 6.00 Build 0)  -->
<svg version="1.1" id="Capa_1" xmlns="http://www.w3.org/2000/svg" xmlns:xlink="http://www.w3.org/1999/xlink" x="0px" y="0px"
	 viewBox="0 0 2275 1979" style="enable-background:new 0 0 2275 1979;" xml:space="preserve">
<g>
	<g>
		<g>
			
				<path style="fill:#92B545;stroke:#51222C;stroke-width:5.3482;stroke-linecap:round;stroke-linejoin:round;stroke-miterlimit:10;" d="
				M1876.157,1009.525c0,0,13.574,6.68,31.178,6.68c17.614,0,31.191-6.68,31.191-6.68V793.661c0,0-7.503-3.696-31.191-3.696
				c-23.686,0-31.178,3.696-31.178,3.696V1009.525z"/>
			
				<path style="fill:#BDC042;stroke:#51222C;stroke-width:5.3482;stroke-linecap:round;stroke-linejoin:round;stroke-miterlimit:10;" d="
				M1892.118,837.661c0,8.401,6.816,15.212,15.217,15.212c8.404,0,15.217-6.811,15.217-15.212c0-8.409-6.813-15.225-15.217-15.225
				C1898.934,822.436,1892.118,829.252,1892.118,837.661z"/>
			
				<path style="fill:#BDC042;stroke:#51222C;stroke-width:5.3482;stroke-linecap:round;stroke-linejoin:round;stroke-miterlimit:10;" d="
				M1907.335,800.078c23.688,0,31.191,3.677,31.191,3.677v14.749c0,0-7.503-3.688-31.191-3.688c-23.686,0-31.178,3.688-31.178,3.688
				v-14.749C1876.157,803.755,1883.649,800.078,1907.335,800.078z"/>
			
				<path style="fill:#BDC042;stroke:#51222C;stroke-width:5.3482;stroke-linecap:round;stroke-linejoin:round;stroke-miterlimit:10;" d="
				M1907.335,993.24c23.688,0,31.191-3.685,31.191-3.685v-14.736c0,0-7.503,3.688-31.191,3.688c-23.686,0-31.178-3.688-31.178-3.688
				v14.736C1876.157,989.555,1883.649,993.24,1907.335,993.24z"/>
			
				<path style="fill:#BDC042;stroke:#51222C;stroke-width:5.3482;stroke-linecap:round;stroke-linejoin:round;stroke-miterlimit:10;" d="
				M1907.335,1006.715c23.688,0,31.191-3.698,31.191-3.698v-7.359c0,0-7.503,3.688-31.191,3.688
				c-23.686,0-31.178-3.688-31.178-3.688v7.359C1876.157,1003.017,1883.649,1006.715,1907.335,1006.715z"/>
		</g>
		<g>
			
				<path style="fill:#999B9C;stroke:#51222C;stroke-width:5.3482;stroke-linecap:round;stroke-linejoin:round;stroke-miterlimit:10;" d="
				M1615.557,1008.334c0,0,15.995,7.871,36.751,7.871c20.745,0,36.74-7.871,36.74-7.871V753.929c0,0-8.835-4.345-36.74-4.345
				c-27.917,0-36.751,4.345-36.751,4.345V1008.334z"/>
			
				<path style="fill:#BBB9B8;stroke:#51222C;stroke-width:5.3482;stroke-linecap:round;stroke-linejoin:round;stroke-miterlimit:10;" d="
				M1615.557,784.631c0,0,2.496-1.23,9.067-2.379c3.975-6.644,14.875-11.417,27.684-11.417c12.809,0,23.688,4.774,27.683,11.417
				c6.549,1.149,9.057,2.379,9.057,2.379v17.371c0,0-3.818-1.883-14.363-3.162c-5.382,3.68-13.42,6.022-22.377,6.022
				c-8.981,0-16.993-2.342-22.377-6.022c-10.545,1.28-14.373,3.162-14.373,3.162V784.631z"/>
			
				<path style="fill:#BBB9B8;stroke:#51222C;stroke-width:5.3482;stroke-linecap:round;stroke-linejoin:round;stroke-miterlimit:10;" d="
				M1652.308,989.14c27.905,0,36.74-4.341,36.74-4.341v-17.366c0,0-8.835,4.34-36.74,4.34c-27.917,0-36.751-4.34-36.751-4.34V984.8
				C1615.557,984.8,1624.391,989.14,1652.308,989.14z"/>
			
				<path style="fill:#BBB9B8;stroke:#51222C;stroke-width:5.3482;stroke-linecap:round;stroke-linejoin:round;stroke-miterlimit:10;" d="
				M1652.308,1005.023c27.905,0,36.74-4.34,36.74-4.34v-8.691c0,0-8.835,4.35-36.74,4.35c-27.917,0-36.751-4.35-36.751-4.35v8.691
				C1615.557,1000.683,1624.391,1005.023,1652.308,1005.023z"/>
		</g>
		<g>
			
				<path style="fill:#24465E;stroke:#51222C;stroke-width:5.3482;stroke-linecap:round;stroke-linejoin:round;stroke-miterlimit:10;" d="
				M1813.775,1009.525c0,0,13.564,6.68,31.181,6.68c17.627,0,31.201-6.68,31.201-6.68V692.826c0,0-7.495-3.68-31.201-3.68
				c-23.686,0-31.181,3.68-31.181,3.68V1009.525z"/>
			
				<path style="fill:#376280;stroke:#51222C;stroke-width:5.3482;stroke-linecap:round;stroke-linejoin:round;stroke-miterlimit:10;" d="
				M1844.956,699.258c23.706,0,31.201,3.685,31.201,3.685v14.739c0,0-7.495-3.682-31.201-3.682c-23.686,0-31.181,3.682-31.181,3.682
				v-14.739C1813.775,702.943,1821.27,699.258,1844.956,699.258z"/>
			
				<path style="fill:#376280;stroke:#51222C;stroke-width:5.3482;stroke-linecap:round;stroke-linejoin:round;stroke-miterlimit:10;" d="
				M1844.956,993.229c23.706,0,31.201-3.688,31.201-3.688v-14.744c0,0-7.495,3.685-31.201,3.685
				c-23.686,0-31.181-3.685-31.181-3.685v14.744C1813.775,989.542,1821.27,993.229,1844.956,993.229z"/>
			
				<path style="fill:#376280;stroke:#51222C;stroke-width:5.3482;stroke-linecap:round;stroke-linejoin:round;stroke-miterlimit:10;" d="
				M1844.956,1006.715c23.706,0,31.201-3.698,31.201-3.698v-7.365c0,0-7.495,3.688-31.201,3.688
				c-23.686,0-31.181-3.688-31.181-3.688v7.365C1813.775,1003.017,1821.27,1006.715,1844.956,1006.715z"/>
		</g>
		<g>
			
				<path style="fill:#EC7029;stroke:#512224;stroke-width:5.3482;stroke-linecap:round;stroke-linejoin:round;stroke-miterlimit:10;" d="
				M1689.158,1009.525c0,0,13.564,6.68,31.181,6.68c17.604,0,31.17-6.68,31.17-6.68V793.661c0,0-7.495-3.696-31.17-3.696
				c-23.686,0-31.181,3.696-31.181,3.696V1009.525z"/>
			
				<path style="fill:#F5A582;stroke:#51222C;stroke-width:5.3482;stroke-linecap:round;stroke-linejoin:round;stroke-miterlimit:10;" d="
				M1720.338,816.028c23.675,0,31.17,3.682,31.17,3.682v14.736c0,0-7.495-3.69-31.17-3.69c-23.686,0-31.181,3.69-31.181,3.69V819.71
				C1689.158,819.71,1696.653,816.028,1720.338,816.028z"/>
			
				<path style="fill:#F5A582;stroke:#51222C;stroke-width:5.3482;stroke-linecap:round;stroke-linejoin:round;stroke-miterlimit:10;" d="
				M1720.338,872.179c23.675,0,31.17,3.692,31.17,3.692v69.235c0,0-7.495,2.548-31.17,2.548c-23.686,0-31.181-2.548-31.181-2.548
				v-69.235C1689.158,875.872,1696.653,872.179,1720.338,872.179z"/>
			
				<path style="fill:#F5A582;stroke:#51222C;stroke-width:5.3482;stroke-linecap:round;stroke-linejoin:round;stroke-miterlimit:10;" d="
				M1720.338,802.553c23.675,0,31.17,3.682,31.17,3.682v7.367c0,0-7.495-3.685-31.17-3.685c-23.686,0-31.181,3.685-31.181,3.685
				v-7.367C1689.158,806.235,1696.653,802.553,1720.338,802.553z"/>
		</g>
		<g>
			
				<path style="fill:#008587;stroke:#51222E;stroke-width:5.3482;stroke-linecap:round;stroke-linejoin:round;stroke-miterlimit:10;" d="
				M1751.43,1009.525c0,0,13.595,6.68,31.202,6.68c17.614,0,31.201-6.68,31.201-6.68V721.369c0,0-7.505-3.688-31.201-3.688
				c-23.698,0-31.202,3.688-31.202,3.688V1009.525z"/>
			
				<path style="fill:#76C5C1;stroke:#51222C;stroke-width:5.3482;stroke-linecap:round;stroke-linejoin:round;stroke-miterlimit:10;" d="
				M1782.631,727.795c23.696,0,31.201,3.68,31.201,3.68v14.749c0,0-7.505-3.682-31.201-3.682c-23.698,0-31.202,3.682-31.202,3.682
				v-14.749C1751.43,731.475,1758.933,727.795,1782.631,727.795z"/>
		</g>
		<g>
			
				<path style="fill:#F69F26;stroke:#51222C;stroke-width:5.3482;stroke-linecap:round;stroke-linejoin:round;stroke-miterlimit:10;" d="
				M1576.187,1087.998c0,0-8.427,17.105-8.427,39.305c0,22.184,8.427,39.299,8.427,39.299h398.98c0,0,4.661-9.448,4.661-39.299
				c0-29.86-4.661-39.305-4.661-39.305H1576.187z"/>
			
				<path style="fill:#F9B65A;stroke:#51222C;stroke-width:5.3482;stroke-linecap:round;stroke-linejoin:round;stroke-miterlimit:10;" d="
				M1967.087,1127.303c0,29.851-4.643,39.299-4.643,39.299h-18.578c0,0,4.648-9.448,4.648-39.299c0-29.86-4.648-39.305-4.648-39.305
				h18.578C1962.444,1087.998,1967.087,1097.444,1967.087,1127.303z"/>
			
				<path style="fill:#F9B65A;stroke:#51222C;stroke-width:5.3482;stroke-linecap:round;stroke-linejoin:round;stroke-miterlimit:10;" d="
				M1596.721,1127.303c0,29.851,4.651,39.299,4.651,39.299h18.559c0,0-4.63-9.448-4.63-39.299c0-29.86,4.63-39.305,4.63-39.305
				h-18.559C1601.372,1087.998,1596.721,1097.444,1596.721,1127.303z"/>
			
				<path style="fill:#F9B65A;stroke:#51222C;stroke-width:5.3482;stroke-linecap:round;stroke-linejoin:round;stroke-miterlimit:10;" d="
				M1579.726,1127.303c0,29.851,4.651,39.299,4.651,39.299h9.291c0,0-4.651-9.448-4.651-39.299c0-29.86,4.651-39.305,4.651-39.305
				h-9.291C1584.377,1087.998,1579.726,1097.444,1579.726,1127.303z"/>
		</g>
		<g>
			
				<path style="fill:#008587;stroke:#51222E;stroke-width:5.3482;stroke-linecap:round;stroke-linejoin:round;stroke-miterlimit:10;" d="
				M1594.167,1009.467c0,0-8.424,17.111-8.424,39.3s8.424,39.299,8.424,39.299h363.028c0,0,4.641-9.443,4.641-39.299
				c0-29.852-4.641-39.3-4.641-39.3H1594.167z"/>
			
				<path style="fill:#75C4B6;stroke:#51222C;stroke-width:5.3482;stroke-linecap:round;stroke-linejoin:round;stroke-miterlimit:10;" d="
				M1949.105,1048.767c0,29.856-4.653,39.299-4.653,39.299h-18.567c0,0,4.638-9.443,4.638-39.299c0-29.852-4.638-39.3-4.638-39.3
				h18.567C1944.451,1009.467,1949.105,1018.915,1949.105,1048.767z"/>
		</g>
		<g>
			
				<path style="fill:#E83B5F;stroke:#51222C;stroke-width:5.3482;stroke-linecap:round;stroke-linejoin:round;stroke-miterlimit:10;" d="
				M1968.051,1243.358h-342.549v0.01c-19.114,0-34.609-15.501-34.609-34.633c0-19.126,15.496-34.63,34.609-34.63v0.011h342.549
				c2.076,0,3.752-1.687,3.752-3.758c0-2.068-1.676-3.755-3.752-3.755h-342.549c-23.265,0-42.123,18.863-42.123,42.133
				c0,23.271,18.857,42.135,42.123,42.135l0,0h342.549c2.076,0,3.752-1.676,3.752-3.752
				C1971.803,1245.045,1970.127,1243.358,1968.051,1243.358z"/>
			<g>
				
					<path style="fill:#DDD6D5;stroke:#51222C;stroke-width:5.3482;stroke-linecap:round;stroke-linejoin:round;stroke-miterlimit:10;" d="
					M1966.176,1174.097h-331.584c-19.134,0-34.651,15.512-34.651,34.638c0,19.132,15.517,34.638,34.651,34.638h331.584V1174.097z"/>
				
					<path style="fill:#C6BCB7;stroke:#51222C;stroke-width:5.3482;stroke-linecap:round;stroke-linejoin:round;stroke-miterlimit:10;" d="
					M1966.176,1234.777H1629.62c-20.513,0-29.679-15.914-29.679-26.042c0-19.126,15.517-34.638,34.651-34.638h-9.046
					c-19.124,0-34.63,15.512-34.63,34.638c0,19.132,15.507,34.638,34.63,34.638h340.63V1234.777z"/>
			</g>
			<g>
				<line style="fill:#51222C;" x1="1645.959" y1="1187.619" x2="1879.965" y2="1187.619"/>
				<line style="fill:#51222C;" x1="1609.786" y1="1208.735" x2="1804.306" y2="1208.735"/>
				<line style="fill:#51222C;" x1="1746.724" y1="1227.35" x2="1966.176" y2="1227.35"/>
				<line style="fill:#51222C;" x1="1735.599" y1="1216.376" x2="1966.176" y2="1216.376"/>
				<line style="fill:#51222C;" x1="1735.599" y1="1196.937" x2="1966.176" y2="1196.937"/>
				<line style="fill:#51222C;" x1="1842.402" y1="1180.843" x2="1966.176" y2="1180.843"/>
				<line style="fill:#51222C;" x1="1642.162" y1="1237.164" x2="1900.167" y2="1237.164"/>
				<line style="fill:#51222C;" x1="1636.114" y1="1201.35" x2="1772.274" y2="1201.35"/>
			</g>
		</g>
		<g>
			
				<path style="fill:#DDD6D5;stroke:#51222C;stroke-width:5.3482;stroke-linecap:round;stroke-linejoin:round;stroke-miterlimit:10;" d="
				M1981.539,1264.223h-370.51c-14.342,0-25.973,11.705-25.973,26.146c0,14.436,11.631,26.146,25.973,26.146h370.51V1264.223z"/>
			
				<path style="fill:#008587;stroke:#51222E;stroke-width:5.3482;stroke-linecap:round;stroke-linejoin:round;stroke-miterlimit:10;" d="
				M1983.57,1316.515h-379.412c-14.297-0.152-25.874-11.822-25.874-26.146c0-14.332,11.577-25.994,25.874-26.146h379.412
				c3.672,0,6.67-2.992,6.67-6.674c0-3.682-2.998-6.678-6.67-6.678h-382.598c-20.157,1.758-36.03,18.886-36.03,39.498
				c0,20.607,15.872,37.73,36.03,39.493h382.598c3.672,0,6.67-3.001,6.67-6.678S1987.242,1316.515,1983.57,1316.515z"/>
			<g>
				<line style="fill:#51222C;" x1="1642.319" y1="1273.919" x2="1900.065" y2="1273.919"/>
				<line style="fill:#51222C;" x1="1611.395" y1="1290.369" x2="1813.389" y2="1290.369"/>
				<line style="fill:#51222C;" x1="1738.286" y1="1302.172" x2="1981.539" y2="1302.172"/>
				<line style="fill:#51222C;" x1="1728.773" y1="1295.169" x2="1981.539" y2="1295.169"/>
				<line style="fill:#51222C;" x1="1728.773" y1="1281.882" x2="1981.539" y2="1281.882"/>
				<line style="fill:#51222C;" x1="1867.942" y1="1268.13" x2="1981.539" y2="1268.13"/>
				<line style="fill:#51222C;" x1="1639.078" y1="1306.262" x2="1970.926" y2="1306.262"/>
				<line style="fill:#51222C;" x1="1633.905" y1="1285.657" x2="1785.982" y2="1285.657"/>
			</g>
			
				<path style="fill:#C6BCB7;stroke:#51222C;stroke-width:5.3482;stroke-linecap:round;stroke-linejoin:round;stroke-miterlimit:10;" d="
				M1609.906,1309.265c-19.045,0-24.85-13.486-24.85-18.896c0-14.441,11.631-26.146,25.973-26.146h-6.771
				c-14.352,0-25.974,11.705-25.974,26.146c0,14.436,11.621,26.146,25.974,26.146h377.281v-7.25H1609.906z"/>
		</g>
		<g>
			
				<path style="fill:#DDD6D5;stroke:#51222C;stroke-width:5.3482;stroke-linecap:round;stroke-linejoin:round;stroke-miterlimit:10;" d="
				M2018.788,1338.236H1575.73c-15.705,0-28.46,12.833-28.46,28.658c0,15.835,12.755,28.673,28.46,28.673h443.058V1338.236z"/>
			
				<path style="fill:#4A2681;stroke:#51222C;stroke-width:5.3482;stroke-linecap:round;stroke-linejoin:round;stroke-miterlimit:10;" d="
				M2019.553,1395.5h-451.38h-0.013h-0.021c-15.596-0.162-28.293-12.992-28.293-28.605c0-15.606,12.697-28.436,28.293-28.585h0.021
				h0.013h451.38c2.322,0,4.218-1.899,4.218-4.231c0-2.324-1.896-4.217-4.218-4.217h-454.457
				c-9.121,0.822-17.604,5.032-23.887,11.882c-6.315,6.904-9.801,15.828-9.801,25.151c0,9.325,3.486,18.267,9.801,25.158
				c6.283,6.842,14.765,11.067,23.887,11.887h454.457c2.322,0,4.218-1.896,4.218-4.228
				C2023.771,1397.393,2021.875,1395.5,2019.553,1395.5z"/>
			<g>
				<line style="fill:#51222C;" x1="1623.992" y1="1348.865" x2="1805.296" y2="1348.865"/>
				<line style="fill:#51222C;" x1="1576.142" y1="1366.894" x2="1776.314" y2="1366.894"/>
				<line style="fill:#51222C;" x1="1722.681" y1="1379.844" x2="2018.788" y2="1379.844"/>
				<line style="fill:#51222C;" x1="1644.559" y1="1372.169" x2="2018.788" y2="1372.169"/>
				<line style="fill:#51222C;" x1="1644.559" y1="1357.605" x2="2018.788" y2="1357.605"/>
				<line style="fill:#51222C;" x1="1770.076" y1="1342.527" x2="2018.788" y2="1342.527"/>
				<line style="fill:#51222C;" x1="1620.42" y1="1384.323" x2="1809.114" y2="1384.323"/>
				<line style="fill:#51222C;" x1="1614.758" y1="1361.744" x2="1746.291" y2="1361.744"/>
			</g>
			
				<path style="fill:#C6BCB7;stroke:#51222C;stroke-width:5.3482;stroke-linecap:round;stroke-linejoin:round;stroke-miterlimit:10;" d="
				M1574.521,1387.624c-20.889-0.005-27.25-14.792-27.25-20.73c0-15.825,12.755-28.658,28.46-28.658h-7.414
				c-15.729,0-28.47,12.833-28.47,28.658c0,15.835,12.741,28.673,28.47,28.673h450.472v-7.944H1574.521z"/>
		</g>
		<g>
			
				<path style="fill:#C53A19;stroke:#512224;stroke-width:5.3482;stroke-linecap:round;stroke-linejoin:round;stroke-miterlimit:10;" d="
				M1770.819,1410.962c-1.953,0-3.528-1.569-3.528-3.507s1.575-3.515,3.528-3.515h245.882c7.592,0.69,14.64,4.197,19.844,9.887
				c5.275,5.737,8.171,13.175,8.171,20.923c0,7.764-2.896,15.193-8.171,20.933c-5.204,5.687-12.253,9.203-19.844,9.879h-245.882
				c-1.953,0-3.528-1.575-3.528-3.512c0-1.928,1.575-3.505,3.528-3.505h0.622v-47.583H1770.819z"/>
			
				<path style="fill:#DDD6D5;stroke:#51222C;stroke-width:5.3482;stroke-linecap:round;stroke-linejoin:round;stroke-miterlimit:10;" d="
				M1554.496,1410.912h209.698c13.073,0,23.686,10.678,23.686,23.837c0,13.169-10.613,23.853-23.686,23.853h-209.698V1410.912z"/>
			
				<path style="fill:#E85811;stroke:#512224;stroke-width:5.3482;stroke-linecap:round;stroke-linejoin:round;stroke-miterlimit:10;" d="
				M1553.864,1458.545h216.624h0.011h0.01c12.987-0.13,23.542-10.803,23.542-23.795c0-12.982-10.555-23.659-23.542-23.788h-0.01
				h-0.011h-216.624c-1.932,0-3.517-1.569-3.517-3.507s1.585-3.515,3.517-3.515h219.175c7.602,0.69,14.663,4.197,19.881,9.887
				c5.249,5.737,8.158,13.175,8.158,20.923c0,7.764-2.91,15.193-8.158,20.933c-5.218,5.687-12.279,9.203-19.881,9.879h-219.175
				c-1.932,0-3.517-1.575-3.517-3.512C1550.347,1460.122,1551.932,1458.545,1553.864,1458.545z"/>
			<g>
				<line style="fill:#51222C;" x1="1724.067" y1="1419.747" x2="1602.67" y2="1419.747"/>
				<line style="fill:#51222C;" x1="1763.86" y1="1434.75" x2="1626.768" y2="1434.75"/>
				<line style="fill:#51222C;" x1="1630.586" y1="1445.514" x2="1554.496" y2="1445.514"/>
				<line style="fill:#51222C;" x1="1639.266" y1="1439.126" x2="1554.496" y2="1439.126"/>
				<line style="fill:#51222C;" x1="1639.266" y1="1427.017" x2="1554.496" y2="1427.017"/>
				<line style="fill:#51222C;" x1="1631.952" y1="1414.48" x2="1554.496" y2="1414.48"/>
				<line style="fill:#51222C;" x1="1727.031" y1="1449.251" x2="1599.494" y2="1449.251"/>
				<line style="fill:#51222C;" x1="1731.737" y1="1430.459" x2="1610.95" y2="1430.459"/>
			</g>
			
				<path style="fill:#C6BCB7;stroke:#51222C;stroke-width:5.3482;stroke-linecap:round;stroke-linejoin:round;stroke-miterlimit:10;" d="
				M1765.213,1451.99c17.371,0,22.667-12.307,22.667-17.24c0-13.159-10.613-23.837-23.686-23.837h6.181
				c13.076,0,23.676,10.678,23.676,23.837c0,13.169-10.6,23.853-23.676,23.853h-215.879v-6.613H1765.213z"/>
		</g>
	</g>
	<g>
		<g>
			
				<path style="fill:#4A2681;stroke:#51222C;stroke-width:5.3482;stroke-linecap:round;stroke-linejoin:round;stroke-miterlimit:10;" d="
				M1193.445,1133.907H716.901l0,0c-20.991,0-38.007-17.011-38.007-37.996c0-20.993,17.016-38.004,38.007-38.004l0,0h476.544
				c2.285,0,4.139-1.841,4.139-4.119c0-2.274-1.854-4.128-4.139-4.128H716.901c-25.563,0-46.264,20.706-46.264,46.251
				c0,25.535,20.701,46.233,46.264,46.243l0,0h476.544c2.285,0,4.139-1.844,4.139-4.131
				C1197.584,1135.751,1195.73,1133.907,1193.445,1133.907z"/>
			<g>
				
					<path style="fill:#DDD6D5;stroke:#51222C;stroke-width:5.3482;stroke-linecap:round;stroke-linejoin:round;stroke-miterlimit:10;" d="
					M1191.403,1057.888H726.855c-20.988,0-38.004,17.029-38.004,38.022c0,20.985,17.016,38.007,38.004,38.007h464.548V1057.888z"/>
				
					<path style="fill:#C6BCB7;stroke:#51222C;stroke-width:5.3482;stroke-linecap:round;stroke-linejoin:round;stroke-miterlimit:10;" d="
					M1191.403,1124.495H721.395c-22.5,0-32.544-17.47-32.544-28.585c0-20.993,17.016-38.022,38.004-38.022h-9.924
					c-20.977,0-38.015,17.029-38.015,38.022c0,20.985,17.037,38.007,38.015,38.007h474.471V1124.495z"/>
			</g>
			<g>
				<line style="fill:#51222C;" x1="739.343" y1="1072.732" x2="1028.458" y2="1072.732"/>
				<line style="fill:#51222C;" x1="699.639" y1="1095.911" x2="945.422" y2="1095.911"/>
				<line style="fill:#51222C;" x1="775.64" y1="1116.343" x2="1191.403" y2="1116.343"/>
				<line style="fill:#51222C;" x1="763.418" y1="1104.294" x2="1191.403" y2="1104.294"/>
				<line style="fill:#51222C;" x1="763.418" y1="1082.953" x2="1191.403" y2="1082.953"/>
				<line style="fill:#51222C;" x1="987.223" y1="1065.3" x2="1191.403" y2="1065.3"/>
				<line style="fill:#51222C;" x1="735.17" y1="1127.097" x2="1177.761" y2="1127.097"/>
				<line style="fill:#51222C;" x1="728.542" y1="1087.794" x2="910.256" y2="1087.794"/>
			</g>
		</g>
		<g>
			
				<path style="fill:#92B545;stroke:#51222C;stroke-width:5.3482;stroke-linecap:round;stroke-linejoin:round;stroke-miterlimit:10;" d="
				M801.015,825.174c0,0-8.004,16.248-8.004,37.343c0,21.1,8.004,37.359,8.004,37.359h258.644c0,0,4.395-8.981,4.395-37.359
				c0-28.376-4.395-37.343-4.395-37.343H801.015z"/>
			
				<path style="fill:#BDC042;stroke:#51222C;stroke-width:5.3482;stroke-linecap:round;stroke-linejoin:round;stroke-miterlimit:10;" d="
				M1006.924,844.281c-10.067,0-18.236,8.158-18.236,18.236c0,10.08,8.169,18.243,18.236,18.243c10.08,0,18.238-8.164,18.238-18.243
				C1025.162,852.439,1017.004,844.281,1006.924,844.281z"/>
			
				<path style="fill:#BDC042;stroke:#51222C;stroke-width:5.3482;stroke-linecap:round;stroke-linejoin:round;stroke-miterlimit:10;" d="
				M1051.958,862.517c0,28.378-4.419,37.359-4.419,37.359h-17.648c0,0,4.416-8.981,4.416-37.359c0-28.376-4.416-37.343-4.416-37.343
				h17.648C1047.539,825.174,1051.958,834.141,1051.958,862.517z"/>
			
				<path style="fill:#BDC042;stroke:#51222C;stroke-width:5.3482;stroke-linecap:round;stroke-linejoin:round;stroke-miterlimit:10;" d="
				M820.538,862.517c0,28.378,4.419,37.359,4.419,37.359h17.648c0,0-4.419-8.981-4.419-37.359c0-28.376,4.419-37.343,4.419-37.343
				h-17.648C824.956,825.174,820.538,834.141,820.538,862.517z"/>
			
				<path style="fill:#BDC042;stroke:#51222C;stroke-width:5.3482;stroke-linecap:round;stroke-linejoin:round;stroke-miterlimit:10;" d="
				M804.389,862.517c0,28.378,4.416,37.359,4.416,37.359h8.824c0,0-4.406-8.981-4.406-37.359c0-28.376,4.406-37.343,4.406-37.343
				h-8.824C808.805,825.174,804.389,834.141,804.389,862.517z"/>
		</g>
		<g>
			
				<path style="fill:#4A2681;stroke:#51222C;stroke-width:5.3482;stroke-linecap:round;stroke-linejoin:round;stroke-miterlimit:10;" d="
				M778.347,513.128c0,0-9.411,19.14-9.411,43.987c0,24.85,9.411,43.992,9.411,43.992h304.621c0,0,5.207-10.56,5.207-43.992
				c0-33.422-5.207-43.987-5.207-43.987H778.347z"/>
			
				<path style="fill:#664A98;stroke:#51222C;stroke-width:5.3482;stroke-linecap:round;stroke-linejoin:round;stroke-miterlimit:10;" d="
				M1046.197,513.128c0,0,1.475,2.987,2.852,10.838c7.957,4.779,13.663,17.815,13.663,33.15c0,15.339-5.706,28.375-13.663,33.155
				c-1.377,7.842-2.852,10.837-2.852,10.837h-20.792c0,0,2.254-4.572,3.786-17.204c-4.395-6.437-7.205-16.045-7.205-26.788
				c0-10.739,2.81-20.341,7.205-26.783c-1.533-12.634-3.786-17.204-3.786-17.204H1046.197z"/>
			
				<path style="fill:#664A98;stroke:#51222C;stroke-width:5.3482;stroke-linecap:round;stroke-linejoin:round;stroke-miterlimit:10;" d="
				M801.323,557.115c0,33.431,5.197,43.992,5.197,43.992h20.8c0,0-5.194-10.56-5.194-43.992c0-33.422,5.194-43.987,5.194-43.987
				h-20.8C806.52,513.128,801.323,523.694,801.323,557.115z"/>
			
				<path style="fill:#664A98;stroke:#51222C;stroke-width:5.3482;stroke-linecap:round;stroke-linejoin:round;stroke-miterlimit:10;" d="
				M782.311,557.115c0,33.431,5.194,43.992,5.194,43.992h10.388c0,0-5.183-10.56-5.183-43.992c0-33.422,5.183-43.987,5.183-43.987
				h-10.388C787.506,513.128,782.311,523.694,782.311,557.115z"/>
		</g>
		<g>
			
				<path style="fill:#24465E;stroke:#51222C;stroke-width:5.3482;stroke-linecap:round;stroke-linejoin:round;stroke-miterlimit:10;" d="
				M740.73,750.45c0,0-8.014,16.267-8.014,37.367c0,21.095,8.014,37.357,8.014,37.357h379.211c0,0,4.419-8.979,4.419-37.357
				c0-28.383-4.419-37.367-4.419-37.367H740.73z"/>
			
				<path style="fill:#376280;stroke:#51222C;stroke-width:5.3482;stroke-linecap:round;stroke-linejoin:round;stroke-miterlimit:10;" d="
				M1112.251,787.817c0,28.378-4.419,37.357-4.419,37.357h-17.648c0,0,4.418-8.979,4.418-37.357c0-28.383-4.418-37.367-4.418-37.367
				h17.648C1107.832,750.45,1112.251,759.433,1112.251,787.817z"/>
			
				<path style="fill:#376280;stroke:#51222C;stroke-width:5.3482;stroke-linecap:round;stroke-linejoin:round;stroke-miterlimit:10;" d="
				M760.245,787.817c0,28.378,4.416,37.357,4.416,37.357h17.65c0,0-4.418-8.979-4.418-37.357c0-28.383,4.418-37.367,4.418-37.367
				h-17.65C764.661,750.45,760.245,759.433,760.245,787.817z"/>
			
				<path style="fill:#376280;stroke:#51222C;stroke-width:5.3482;stroke-linecap:round;stroke-linejoin:round;stroke-miterlimit:10;" d="
				M744.094,787.817c0,28.378,4.418,37.357,4.418,37.357h8.835c0,0-4.419-8.979-4.419-37.357c0-28.383,4.419-37.367,4.419-37.367
				h-8.835C748.512,750.45,744.094,759.433,744.094,787.817z"/>
		</g>
		<g>
			
				<path style="fill:#AE1922;stroke:#51222C;stroke-width:5.3482;stroke-linecap:round;stroke-linejoin:round;stroke-miterlimit:10;" d="
				M801.015,601.107c0,0-8.004,16.265-8.004,37.357c0,21.09,8.004,37.357,8.004,37.357h258.644c0,0,4.395-8.973,4.395-37.357
				c0-28.371-4.395-37.357-4.395-37.357H801.015z"/>
			
				<path style="fill:#E83B5F;stroke:#51222C;stroke-width:5.3482;stroke-linecap:round;stroke-linejoin:round;stroke-miterlimit:10;" d="
				M1032.842,638.464c0,28.383-4.405,37.357-4.405,37.357h-17.661c0,0,4.419-8.973,4.419-37.357c0-28.371-4.419-37.357-4.419-37.357
				h17.661C1028.437,601.107,1032.842,610.093,1032.842,638.464z"/>
			
				<path style="fill:#E83B5F;stroke:#51222C;stroke-width:5.3482;stroke-linecap:round;stroke-linejoin:round;stroke-miterlimit:10;" d="
				M965.566,638.464c0,28.383-4.416,37.357-4.416,37.357h-82.95c0,0-3.063-8.973-3.063-37.357c0-28.371,3.063-37.357,3.063-37.357
				h82.95C961.15,601.107,965.566,610.093,965.566,638.464z"/>
			
				<path style="fill:#E83B5F;stroke:#51222C;stroke-width:5.3482;stroke-linecap:round;stroke-linejoin:round;stroke-miterlimit:10;" d="
				M1049.004,638.464c0,28.383-4.429,37.357-4.429,37.357h-8.813c0,0,4.408-8.973,4.408-37.357c0-28.371-4.408-37.357-4.408-37.357
				h8.813C1044.575,601.107,1049.004,610.093,1049.004,638.464z"/>
		</g>
		<g>
			
				<path style="fill:#008587;stroke:#51222E;stroke-width:5.3482;stroke-linecap:round;stroke-linejoin:round;stroke-miterlimit:10;" d="
				M757.814,675.82c0,0-8.004,16.248-8.004,37.351c0,21.105,8.004,37.351,8.004,37.351h345.046c0,0,4.419-8.975,4.419-37.351
				c0-28.379-4.419-37.351-4.419-37.351H757.814z"/>
			
				<path style="fill:#76C5C1;stroke:#51222C;stroke-width:5.3482;stroke-linecap:round;stroke-linejoin:round;stroke-miterlimit:10;" d="
				M1095.166,713.172c0,28.376-4.416,37.351-4.416,37.351H1073.1c0,0,4.398-8.975,4.398-37.351c0-28.379-4.398-37.351-4.398-37.351
				h17.651C1090.75,675.82,1095.166,684.793,1095.166,713.172z"/>
		</g>
		<g>
			
				<path style="fill:#24465E;stroke:#51222C;stroke-width:5.3482;stroke-linecap:round;stroke-linejoin:round;stroke-miterlimit:10;" d="
				M1130.387,1049.66c0,0,8.37-16.988,8.37-39.038c0-22.057-8.37-39.054-8.37-39.054H734.005c0,0-4.606,9.383-4.606,39.054
				c0,29.653,4.606,39.038,4.606,39.038H1130.387z"/>
			
				<path style="fill:#376280;stroke:#51222C;stroke-width:5.3482;stroke-linecap:round;stroke-linejoin:round;stroke-miterlimit:10;" d="
				M742.041,1010.622c0-29.671,4.627-39.054,4.627-39.054h18.46c0,0-4.63,9.383-4.63,39.054c0,29.653,4.63,39.038,4.63,39.038
				h-18.46C746.668,1049.66,742.041,1040.275,742.041,1010.622z"/>
			
				<path style="fill:#376280;stroke:#51222C;stroke-width:5.3482;stroke-linecap:round;stroke-linejoin:round;stroke-miterlimit:10;" d="
				M1109.997,1010.622c0-29.671-4.617-39.054-4.617-39.054h-18.447c0,0,4.617,9.383,4.617,39.054
				c0,29.653-4.617,39.038-4.617,39.038h18.447C1105.38,1049.66,1109.997,1040.275,1109.997,1010.622z"/>
			
				<path style="fill:#376280;stroke:#51222C;stroke-width:5.3482;stroke-linecap:round;stroke-linejoin:round;stroke-miterlimit:10;" d="
				M1126.87,1010.622c0-29.671-4.607-39.054-4.607-39.054h-9.224c0,0,4.606,9.383,4.606,39.054c0,29.653-4.606,39.038-4.606,39.038
				h9.224C1122.263,1049.66,1126.87,1040.275,1126.87,1010.622z"/>
		</g>
		<g>
			
				<path style="fill:#008587;stroke:#51222E;stroke-width:5.3482;stroke-linecap:round;stroke-linejoin:round;stroke-miterlimit:10;" d="
				M1090.074,971.568c0,0,7.68-15.595,7.68-35.847c0-20.244-7.68-35.845-7.68-35.845H758.9c0,0-4.238,8.607-4.238,35.845
				c0,27.24,4.238,35.847,4.238,35.847H1090.074z"/>
			
				<path style="fill:#76C5C1;stroke:#51222C;stroke-width:5.3482;stroke-linecap:round;stroke-linejoin:round;stroke-miterlimit:10;" d="
				M766.283,935.721c0-27.237,4.241-35.845,4.241-35.845h16.925c0,0-4.207,8.607-4.207,35.845c0,27.24,4.207,35.847,4.207,35.847
				h-16.925C770.523,971.568,766.283,962.96,766.283,935.721z"/>
		</g>
		<g>
			
				<path style="fill:#008587;stroke:#51222E;stroke-width:5.3482;stroke-linecap:round;stroke-linejoin:round;stroke-miterlimit:10;" d="
				M933.665,1217.442h1.833v-8.424v-59.504h-1.833c-2.042,0-3.685-1.642-3.685-3.68c0-2.032-20.756-3.68-18.734-3.68h239.442
				c22.821,0,41.313,18.505,41.313,41.328c0,22.824-18.491,41.326-41.313,41.326H913.609c-2.022,0,16.371-1.648,16.371-3.685
				C929.98,1219.082,931.623,1217.442,933.665,1217.442z"/>
			
				<path style="fill:#008587;stroke:#51222E;stroke-width:5.3482;stroke-linecap:round;stroke-linejoin:round;stroke-miterlimit:10;" d="
				M709.586,1217.442h217.02l0,0c18.758,0,33.954-15.204,33.954-33.959c0-18.763-15.196-33.969-33.954-33.969l0,0h-217.02
				c-2.032,0-3.688-1.642-3.688-3.68c0-2.032,1.656-3.68,3.688-3.68h217.02c22.821,0,41.326,18.505,41.326,41.328
				c0,22.824-18.505,41.326-41.326,41.326l0,0h-217.02c-2.032,0-3.688-1.648-3.688-3.685
				C705.898,1219.082,707.554,1217.442,709.586,1217.442z"/>
			<g>
				
					<path style="fill:#DDD6D5;stroke:#51222C;stroke-width:5.3482;stroke-linecap:round;stroke-linejoin:round;stroke-miterlimit:10;" d="
					M711.437,1149.508h206.256c18.771,0,33.978,15.211,33.978,33.974c0,18.756-15.206,33.972-33.978,33.972H711.437V1149.508z"/>
				
					<path style="fill:#C6BCB7;stroke:#51222C;stroke-width:5.3482;stroke-linecap:round;stroke-linejoin:round;stroke-miterlimit:10;" d="
					M711.437,1209.018h211.15c20.092,0,29.084-15.611,29.084-25.535c0-18.763-15.206-33.974-33.978-33.974h8.868
					c18.771,0,33.978,15.211,33.978,33.974c0,18.756-15.206,33.972-33.978,33.972H711.437V1209.018z"/>
			</g>
			<g>
				<line style="fill:#51222C;" x1="906.55" y1="1162.766" x2="743.427" y2="1162.766"/>
				<line style="fill:#51222C;" x1="942.014" y1="1183.483" x2="817.608" y2="1183.483"/>
				<line style="fill:#51222C;" x1="874.093" y1="1201.742" x2="711.437" y2="1201.742"/>
				<line style="fill:#51222C;" x1="885.017" y1="1190.983" x2="711.437" y2="1190.983"/>
				<line style="fill:#51222C;" x1="885.017" y1="1171.906" x2="711.437" y2="1171.906"/>
				<line style="fill:#51222C;" x1="780.267" y1="1156.123" x2="711.437" y2="1156.123"/>
				<line style="fill:#51222C;" x1="910.256" y1="1211.357" x2="723.604" y2="1211.357"/>
				<line style="fill:#51222C;" x1="916.195" y1="1176.231" x2="849.031" y2="1176.231"/>
			</g>
		</g>
		<g>
			
				<path style="fill:#08692F;stroke:#51222C;stroke-width:5.3482;stroke-linecap:round;stroke-linejoin:round;stroke-miterlimit:10;" d="
				M881.397,1289.183h1.977v-51.288h-1.977c-3.596,0-6.549-2.936-6.549-6.545c0-3.606,2.953-6.541,6.549-6.541h337.611
				c19.779,1.726,35.34,18.518,35.34,38.73c0,20.22-15.562,37.009-35.34,38.74H881.397c-3.596,0-6.549-2.948-6.549-6.554
				C874.848,1292.118,877.801,1289.183,881.397,1289.183z"/>
			<g>
				
					<path style="fill:#DDD6D5;stroke:#51222C;stroke-width:5.3482;stroke-linecap:round;stroke-linejoin:round;stroke-miterlimit:10;" d="
					M659.313,1237.895h244.441c14.063,0,25.472,11.482,25.472,25.644c0,14.159-11.409,25.644-25.472,25.644H659.313V1237.895z"/>
				
					<path style="fill:#2EA437;stroke:#51222C;stroke-width:5.3482;stroke-linecap:round;stroke-linejoin:round;stroke-miterlimit:10;" d="
					M657.316,1289.183h253.175c14.008-0.141,25.383-11.584,25.383-25.644c0-14.044-11.375-25.493-25.383-25.644H657.316
					c-3.596,0-6.537-2.936-6.537-6.545c0-3.606,2.94-6.541,6.537-6.541h256.294c19.779,1.726,35.353,18.518,35.353,38.73
					c0,20.22-15.574,37.009-35.353,38.74H657.316c-3.596,0-6.537-2.948-6.537-6.554
					C650.779,1292.118,653.719,1289.183,657.316,1289.183z"/>
				<g>
					<line style="fill:#51222C;" x1="873.061" y1="1247.395" x2="686.663" y2="1247.395"/>
					<line style="fill:#51222C;" x1="903.409" y1="1263.539" x2="771.665" y2="1263.539"/>
					<line style="fill:#51222C;" x1="845.312" y1="1275.113" x2="659.313" y2="1275.113"/>
					<line style="fill:#51222C;" x1="854.659" y1="1268.252" x2="659.313" y2="1268.252"/>
					<line style="fill:#51222C;" x1="854.659" y1="1255.227" x2="659.313" y2="1255.227"/>
					<line style="fill:#51222C;" x1="718.164" y1="1241.723" x2="659.313" y2="1241.723"/>
					<line style="fill:#51222C;" x1="876.237" y1="1279.124" x2="669.714" y2="1279.124"/>
					<line style="fill:#51222C;" x1="881.319" y1="1258.916" x2="798.526" y2="1258.916"/>
				</g>
				
					<path style="fill:#C6BCB7;stroke:#51222C;stroke-width:5.3482;stroke-linecap:round;stroke-linejoin:round;stroke-miterlimit:10;" d="
					M904.864,1282.072c18.669,0,24.362-13.227,24.362-18.533c0-14.162-11.409-25.644-25.472-25.644h6.648
					c14.052,0,25.472,11.482,25.472,25.644c0,14.159-11.419,25.644-25.472,25.644H659.313v-7.111H904.864z"/>
			</g>
		</g>
		<g>
			
				<path style="fill:#4A6F8A;stroke:#51222C;stroke-width:5.3482;stroke-linecap:round;stroke-linejoin:round;stroke-miterlimit:10;" d="
				M893.851,1310.55c-2.285,0-4.129-1.854-4.129-4.142c0-2.277,1.844-4.129,4.129-4.129h226.724
				c8.957,0.8,17.269,4.933,23.419,11.65c6.205,6.769,9.623,15.528,9.623,24.673c0,9.14-3.418,17.898-9.623,24.68
				c-6.15,6.703-14.462,10.84-23.419,11.649H893.851c-2.285,0-4.129-1.864-4.129-4.152c0-2.275,1.844-4.129,4.129-4.129h0.744
				v-56.102H893.851z"/>
			
				<path style="fill:#DDD6D5;stroke:#51222C;stroke-width:5.3482;stroke-linecap:round;stroke-linejoin:round;stroke-miterlimit:10;" d="
				M718.632,1310.492h167.416c15.428,0,27.927,12.582,27.927,28.11c0,15.527-12.498,28.115-27.927,28.115H718.632V1310.492z"/>
			
				<path style="fill:#5C8DB1;stroke:#51222C;stroke-width:5.3482;stroke-linecap:round;stroke-linejoin:round;stroke-miterlimit:10;" d="
				M717.864,1366.651h175.621l0,0h0.021c15.308-0.154,27.772-12.746,27.772-28.049c0-15.306-12.464-27.898-27.772-28.052h-0.021l0,0
				H717.864c-2.264,0-4.129-1.854-4.129-4.142c0-2.277,1.864-4.129,4.129-4.129h178.64c8.947,0.8,17.261,4.933,23.409,11.65
				c6.215,6.769,9.636,15.528,9.636,24.673c0,9.14-3.421,17.898-9.636,24.68c-6.148,6.703-14.462,10.84-23.409,11.649h-178.64
				c-2.264,0-4.129-1.864-4.129-4.152C713.736,1368.505,715.6,1366.651,717.864,1366.651z"/>
			<g>
				<line style="fill:#51222C;" x1="838.753" y1="1320.917" x2="775.407" y2="1320.917"/>
				<line style="fill:#51222C;" x1="885.672" y1="1338.602" x2="803.822" y2="1338.602"/>
				<line style="fill:#51222C;" x1="808.34" y1="1351.288" x2="718.632" y2="1351.288"/>
				<line style="fill:#51222C;" x1="818.561" y1="1343.765" x2="718.632" y2="1343.765"/>
				<line style="fill:#51222C;" x1="818.561" y1="1329.478" x2="718.632" y2="1329.478"/>
				<line style="fill:#51222C;" x1="809.959" y1="1314.694" x2="718.632" y2="1314.694"/>
				<line style="fill:#51222C;" x1="842.249" y1="1355.696" x2="771.655" y2="1355.696"/>
				<line style="fill:#51222C;" x1="847.809" y1="1333.541" x2="785.174" y2="1333.541"/>
			</g>
			
				<path style="fill:#C6BCB7;stroke:#51222C;stroke-width:5.3482;stroke-linecap:round;stroke-linejoin:round;stroke-miterlimit:10;" d="
				M887.27,1358.926c20.479,0,26.705-14.501,26.705-20.324c0-15.528-12.498-28.11-27.927-28.11h7.294
				c15.429,0,27.937,12.582,27.937,28.11c0,15.527-12.508,28.115-27.937,28.115h-174.71v-7.79H887.27z"/>
		</g>
	</g>
	<g>
		<g>
			
				<path style="fill:#008587;stroke:#51222E;stroke-width:5.3482;stroke-linecap:round;stroke-linejoin:round;stroke-miterlimit:10;" d="
				M299.406,896.826h309.572v0.013c26.748,0,48.439-21.683,48.439-48.445c0-26.762-21.691-48.445-48.439-48.445l0,0H299.406
				c-2.909,0-5.273-2.353-5.273-5.257c0-2.909,2.363-5.26,5.273-5.26h309.572c32.554,0,58.95,26.399,58.95,58.961
				c0,32.559-26.396,58.945-58.95,58.945l0,0H299.406c-2.909,0-5.273-2.355-5.273-5.257
				C294.133,899.176,296.496,896.826,299.406,896.826z"/>
			<g>
				
					<path style="fill:#DDD6D5;stroke:#51222C;stroke-width:5.3482;stroke-linecap:round;stroke-linejoin:round;stroke-miterlimit:10;" d="
					M302.035,799.942h294.233c26.762,0,48.45,21.69,48.45,48.452c0,26.762-21.688,48.455-48.45,48.455H302.035V799.942z"/>
				
					<path style="fill:#C6BCB7;stroke:#51222C;stroke-width:5.3482;stroke-linecap:round;stroke-linejoin:round;stroke-miterlimit:10;" d="
					M302.035,884.829h301.192c28.681,0,41.49-22.26,41.49-36.435c0-26.762-21.688-48.452-48.45-48.452h12.642
					c26.762,0,48.46,21.69,48.46,48.452c0,26.762-21.698,48.455-48.46,48.455H302.035V884.829z"/>
			</g>
			<g>
				<line style="fill:#51222C;" x1="580.351" y1="818.846" x2="347.667" y2="818.846"/>
				<line style="fill:#51222C;" x1="630.977" y1="848.394" x2="453.504" y2="848.394"/>
				<line style="fill:#51222C;" x1="534.077" y1="874.441" x2="302.035" y2="874.441"/>
				<line style="fill:#51222C;" x1="549.638" y1="859.088" x2="302.035" y2="859.088"/>
				<line style="fill:#51222C;" x1="549.638" y1="831.877" x2="302.035" y2="831.877"/>
				<line style="fill:#51222C;" x1="400.236" y1="809.374" x2="302.035" y2="809.374"/>
				<line style="fill:#51222C;" x1="585.668" y1="888.153" x2="319.406" y2="888.153"/>
				<line style="fill:#51222C;" x1="594.127" y1="838.048" x2="498.323" y2="838.048"/>
			</g>
		</g>
		<g>
			
				<path style="fill:#DDD6D5;stroke:#51222C;stroke-width:5.3482;stroke-linecap:round;stroke-linejoin:round;stroke-miterlimit:10;" d="
				M280.525,926.027h348.72c20.056,0,36.307,16.363,36.307,36.565c0,20.207-16.251,36.586-36.307,36.586h-348.72V926.027z"/>
			
				<path style="fill:#2EA437;stroke:#51222C;stroke-width:5.3482;stroke-linecap:round;stroke-linejoin:round;stroke-miterlimit:10;" d="
				M277.705,999.178h361.129c20.003-0.204,36.207-16.538,36.207-36.586c0-20.046-16.204-36.367-36.207-36.565H277.705
				c-5.161,0-9.334-4.197-9.334-9.344c0-5.15,4.173-9.344,9.334-9.344h365.592c28.203,2.47,50.413,26.423,50.413,55.253
				c0,28.838-22.21,52.803-50.413,55.255H277.705c-5.161,0-9.334-4.191-9.334-9.331
				C268.371,1003.362,272.544,999.178,277.705,999.178z"/>
			<g>
				<line style="fill:#51222C;" x1="585.433" y1="939.578" x2="319.54" y2="939.578"/>
				<line style="fill:#51222C;" x1="628.733" y1="962.592" x2="440.804" y2="962.592"/>
				<line style="fill:#51222C;" x1="545.875" y1="979.122" x2="280.525" y2="979.122"/>
				<line style="fill:#51222C;" x1="559.173" y1="969.314" x2="280.525" y2="969.314"/>
				<line style="fill:#51222C;" x1="559.173" y1="950.728" x2="280.525" y2="950.728"/>
				<line style="fill:#51222C;" x1="364.506" y1="931.492" x2="280.525" y2="931.492"/>
				<line style="fill:#51222C;" x1="589.985" y1="984.831" x2="295.387" y2="984.831"/>
				<line style="fill:#51222C;" x1="597.221" y1="956.022" x2="479.143" y2="956.022"/>
			</g>
			
				<path style="fill:#C6BCB7;stroke:#51222C;stroke-width:5.3482;stroke-linecap:round;stroke-linejoin:round;stroke-miterlimit:10;" d="
				M630.789,989.038c26.67,0,34.763-18.867,34.763-26.446c0-20.202-16.251-36.565-36.307-36.565h9.469
				c20.066,0,36.328,16.363,36.328,36.565c0,20.207-16.261,36.586-36.328,36.586H280.525v-10.14H630.789z"/>
		</g>
		<g>
			
				<path style="fill:#DDD6D5;stroke:#51222C;stroke-width:5.3482;stroke-linecap:round;stroke-linejoin:round;stroke-miterlimit:10;" d="
				M299.782,1029.575h307.452c22.012,0,39.827,17.949,39.827,40.091c0,22.15-17.815,40.104-39.827,40.104H299.782V1029.575z"/>
			
				<path style="fill:#E85811;stroke:#512224;stroke-width:5.3482;stroke-linecap:round;stroke-linejoin:round;stroke-miterlimit:10;" d="
				M298.706,1109.689h319.117h0.023h0.01c21.834-0.24,39.602-18.189,39.602-40.023c0-21.831-17.768-39.78-39.602-40.002h-0.01
				h-0.023H298.706c-3.251,0-5.894-2.659-5.894-5.912c0-3.256,2.642-5.904,5.894-5.904h323.424
				c12.765,1.149,24.62,7.043,33.41,16.622c8.848,9.663,13.708,22.15,13.708,35.197c0,13.042-4.86,25.553-13.708,35.21
				c-8.79,9.566-20.646,15.462-33.41,16.611H298.706c-3.251,0-5.894-2.643-5.894-5.896
				C292.812,1112.334,295.454,1109.689,298.706,1109.689z"/>
			<g>
				<line style="fill:#51222C;" x1="539.749" y1="1044.437" x2="380.778" y2="1044.437"/>
				<line style="fill:#51222C;" x1="606.68" y1="1069.666" x2="421.326" y2="1069.666"/>
				<line style="fill:#51222C;" x1="496.36" y1="1087.776" x2="299.782" y2="1087.776"/>
				<line style="fill:#51222C;" x1="510.955" y1="1077.043" x2="299.782" y2="1077.043"/>
				<line style="fill:#51222C;" x1="510.955" y1="1056.669" x2="299.782" y2="1056.669"/>
				<line style="fill:#51222C;" x1="430.061" y1="1035.563" x2="299.782" y2="1035.563"/>
				<line style="fill:#51222C;" x1="544.721" y1="1094.057" x2="375.427" y2="1094.057"/>
				<line style="fill:#51222C;" x1="552.668" y1="1062.453" x2="463.335" y2="1062.453"/>
			</g>
			
				<path style="fill:#C6BCB7;stroke:#51222C;stroke-width:5.3482;stroke-linecap:round;stroke-linejoin:round;stroke-miterlimit:10;" d="
				M608.965,1098.664c29.204,0,38.096-20.683,38.096-28.997c0-22.142-17.815-40.091-39.827-40.091h10.391
				c21.999,0,39.835,17.949,39.835,40.091c0,22.15-17.836,40.104-39.835,40.104H299.782v-11.106H608.965z"/>
		</g>
		<g>
			
				<path style="fill:#92B545;stroke:#51222C;stroke-width:5.3482;stroke-linecap:round;stroke-linejoin:round;stroke-miterlimit:10;" d="
				M317.132,1218.936c0,0-10.289-20.894-10.289-48.011c0-27.117,10.289-48.011,10.289-48.011h332.425c0,0,5.672,11.543,5.672,48.011
				c0,36.484-5.672,48.011-5.672,48.011H317.132z"/>
			
				<path style="fill:#BDC042;stroke:#51222C;stroke-width:5.3482;stroke-linecap:round;stroke-linejoin:round;stroke-miterlimit:10;" d="
				M581.793,1194.357c-12.943,0-23.43-10.49-23.43-23.432c0-12.942,10.487-23.437,23.43-23.437
				c12.931,0,23.432,10.495,23.432,23.437C605.225,1183.867,594.724,1194.357,581.793,1194.357z"/>
			
				<path style="fill:#BDC042;stroke:#51222C;stroke-width:5.3482;stroke-linecap:round;stroke-linejoin:round;stroke-miterlimit:10;" d="
				M639.657,1170.924c0-36.468-5.672-48.011-5.672-48.011h-22.699c0,0,5.672,11.543,5.672,48.011
				c0,36.484-5.672,48.011-5.672,48.011h22.699C633.985,1218.936,639.657,1207.409,639.657,1170.924z"/>
			
				<path style="fill:#BDC042;stroke:#51222C;stroke-width:5.3482;stroke-linecap:round;stroke-linejoin:round;stroke-miterlimit:10;" d="
				M342.207,1170.924c0-36.468,5.672-48.011,5.672-48.011h22.698c0,0-5.672,11.543-5.672,48.011c0,36.484,5.672,48.011,5.672,48.011
				h-22.698C347.879,1218.936,342.207,1207.409,342.207,1170.924z"/>
			
				<path style="fill:#BDC042;stroke:#51222C;stroke-width:5.3482;stroke-linecap:round;stroke-linejoin:round;stroke-miterlimit:10;" d="
				M321.473,1170.924c0-36.468,5.672-48.011,5.672-48.011h11.344c0,0-5.685,11.543-5.685,48.011c0,36.484,5.685,48.011,5.685,48.011
				h-11.344C327.144,1218.936,321.473,1207.409,321.473,1170.924z"/>
		</g>
		<g>
			
				<path style="fill:#24465E;stroke:#51222C;stroke-width:5.3482;stroke-linecap:round;stroke-linejoin:round;stroke-miterlimit:10;" d="
				M239.633,1314.956c0,0-10.289-20.894-10.289-48.006c0-27.117,10.289-48.014,10.289-48.014h487.411c0,0,5.672,11.537,5.672,48.014
				c0,36.471-5.672,48.006-5.672,48.006H239.633z"/>
			
				<path style="fill:#376280;stroke:#51222C;stroke-width:5.3482;stroke-linecap:round;stroke-linejoin:round;stroke-miterlimit:10;" d="
				M717.177,1266.949c0-36.477-5.695-48.014-5.695-48.014h-22.698c0,0,5.685,11.537,5.685,48.014
				c0,36.471-5.685,48.006-5.685,48.006h22.698C711.482,1314.956,717.177,1303.42,717.177,1266.949z"/>
			
				<path style="fill:#376280;stroke:#51222C;stroke-width:5.3482;stroke-linecap:round;stroke-linejoin:round;stroke-miterlimit:10;" d="
				M264.708,1266.949c0-36.477,5.682-48.014,5.682-48.014h22.698c0,0-5.693,11.537-5.693,48.014c0,36.471,5.693,48.006,5.693,48.006
				H270.39C270.39,1314.956,264.708,1303.42,264.708,1266.949z"/>
			
				<path style="fill:#376280;stroke:#51222C;stroke-width:5.3482;stroke-linecap:round;stroke-linejoin:round;stroke-miterlimit:10;" d="
				M243.973,1266.949c0-36.477,5.662-48.014,5.662-48.014h11.355c0,0-5.682,11.537-5.682,48.014c0,36.471,5.682,48.006,5.682,48.006
				h-11.355C249.634,1314.956,243.973,1303.42,243.973,1266.949z"/>
		</g>
		<g>
			
				<path style="fill:#008587;stroke:#51222E;stroke-width:5.3482;stroke-linecap:round;stroke-linejoin:round;stroke-miterlimit:10;" d="
				M261.611,1410.902c0,0-10.3-20.902-10.3-48.024c0-27.112,10.3-48.006,10.3-48.006h443.468c0,0,5.672,11.532,5.672,48.006
				c0,36.479-5.672,48.024-5.672,48.024H261.611z"/>
			
				<path style="fill:#76C5C1;stroke:#51222C;stroke-width:5.3482;stroke-linecap:round;stroke-linejoin:round;stroke-miterlimit:10;" d="
				M695.2,1362.878c0-36.474-5.672-48.006-5.672-48.006h-22.698c0,0,5.662,11.532,5.662,48.006c0,36.479-5.662,48.024-5.662,48.024
				h22.698C689.527,1410.902,695.2,1399.357,695.2,1362.878z"/>
		</g>
	</g>
	<g>
		<g>
			
				<path style="fill:#F19E90;stroke:#51222C;stroke-width:11.3661;stroke-linecap:round;stroke-linejoin:round;stroke-miterlimit:10;" d="
				M1500.709,798.106c-47.254-16.877-39.383-103.081-39.383-103.081h-109.733c0,0,7.827,86.203-39.404,103.081
				c-4.539,1.611-8.79,76.889,89.22,76.889C1499.432,874.994,1504.159,799.333,1500.709,798.106z"/>
		</g>
		
			<path style="fill:#784E51;stroke:#51222C;stroke-width:11.3661;stroke-linecap:round;stroke-linejoin:round;stroke-miterlimit:10;" d="
			M1243.981,477.19c3.786-71.715,22.046-66.613,22.046-66.613c17.737-101.146,138.544-118.371,203.446-71.639
			c51.957,37.401,51.769,49.698,68.184,38.211c10.866-7.625,42.269,3.857,32.646,48.987c-1.666,7.827-6.171,15.418-12.276,22.688
			c4.518,30.977,6.315,79.004-3.852,149.481c-11.678,80.957-93.194,103.102-93.194,103.102c0.023-0.063,0.034-0.112,0.055-0.172
			c-19.957,13.475-45.551,20.455-88.93,20.455c-27.849,0-51.438-9.633-78.876-56.148c0,0,0,0.029,0,0.039
			C1293.23,665.581,1236.589,617.136,1243.981,477.19z"/>
		
			<path style="fill:#F19E90;stroke:#51222C;stroke-width:11.3661;stroke-linecap:round;stroke-linejoin:round;stroke-miterlimit:10;" d="
			M1626.922,1201.658l-20.011-234.609l-85.224,3.374c11.986,71.073-14.253,345.401-7.837,384.286
			C1541.366,1390.133,1626.28,1234.954,1626.922,1201.658z"/>
		
			<path style="fill:#0F585E;stroke:#512322;stroke-width:11.3661;stroke-linecap:round;stroke-linejoin:round;stroke-miterlimit:10;" d="
			M1115.979,1378.306c-38.937-19.09-38.393-29.326-38.393-29.337c30.522,4.508,60.559,13.47,81.615,18.63
			c10.746,2.648,26.738,6.785,45.697,11.783C1179.004,1386.976,1147.912,1388.767,1115.979,1378.306z"/>
		
			<path style="fill:#156B71;stroke:#512322;stroke-width:11.3661;stroke-linecap:round;stroke-linejoin:round;stroke-miterlimit:10;" d="
			M1574.9,1359.819h-91.452h-237.134c-28.561,20.268-78.421,35.497-130.334,18.487c-38.97-19.118-38.393-29.337-38.393-29.337
			c-58.185-8.602-118.047-1.021-120.256,79.808c-0.721,26.791,12.689,50.353,34.076,70.832v0.024
			c0.023,0.011,0.034,0.011,0.068,0.021c39.947,38.226,107.766,65.704,163.854,83.3c91.946,35.876,197.388,59.873,257.524,22.989
			c44.29-3.306,91.092-14.745,127.558-43.875C1608.075,1507.99,1594.668,1446.109,1574.9,1359.819z"/>
		<g>
			
				<path style="fill:#E5C5BE;stroke:#51222C;stroke-width:11.3661;stroke-linecap:round;stroke-linejoin:round;stroke-miterlimit:10;" d="
				M1532.464,1106.017l-15.706-116.013c0,0-45.198-188.59,15.24-184.284c67.796,4.834,93.048,42.196,103.682,149.554
				c2.941,29.483,16.562,144.151,16.562,144.151L1532.464,1106.017z"/>
		</g>
		
			<path style="fill:#DCBEB6;stroke:#51222C;stroke-width:11.3661;stroke-linecap:round;stroke-linejoin:round;stroke-miterlimit:10;" d="
			M1590.038,1376.436c0,0-8.623-81.373-8.623-213.725c0-132.358-2.444-305.282-25.253-338.387
			c-7.683-11.112-20.58-29.959-60.716-27.276h-188.485c0,0-30.99,3.228-42.123,17.93c-42.47,56.088-10.203,495.676-57.741,559.554
			c0,0,13.198,85.707,196.965,92.622C1587.819,1474.099,1590.038,1376.436,1590.038,1376.436z"/>
		
			<path style="fill:#0F585E;stroke:#512322;stroke-width:11.3661;stroke-linecap:round;stroke-linejoin:round;stroke-miterlimit:10;" d="
			M1583.59,1399.552c6.192-13.237,6.448-23.116,6.448-23.116s-1.322-12.449-2.909-35.281c22.923,8.628,40.25,28.788,45.745,68.041
			c5.604,40.153-17.86,74.324-51.793,102.167C1595.222,1478.731,1592.135,1442.312,1583.59,1399.552z"/>
		
			<path style="fill:#F19E90;stroke:#51222C;stroke-width:11.3661;stroke-linecap:round;stroke-linejoin:round;stroke-miterlimit:10;" d="
			M1296.007,1004.213l-89.797-3.243l-21.468,205.585c-57.559,30.253-153.02,91.52-193.301,126.354
			c-13.229,9.213-40.292,30.546-49.328,52.511c-16.084,39.19,7.96,55.801,20.635,30.449c16.371-32.711,15.583-26.096,37.161-38.806
			c7.004-4.142,16.815-17.617,20.291-19.936c58.217-33.599,193.257-66.999,215.757-77.614c10.391-4.91,17.656-11.832,22.372-19.674
			c1.413-1.1,2.807-2.269,4.158-3.596C1281.999,1211.068,1290.591,1118.889,1296.007,1004.213z"/>
		<g>
			
				<path style="fill:#E5C5BE;stroke:#51222C;stroke-width:11.3661;stroke-linecap:round;stroke-linejoin:round;stroke-miterlimit:10;" d="
				M1183,1098.82l6.771-116.88c0,0-6.771-160.402,76.345-175c64.165-11.276,57.107,56.221,47.029,163.651
				c-2.776,29.509-11.313,144.65-11.313,144.65L1183,1098.82z"/>
		</g>
	</g>
</g>
</svg>
