<?xml version="1.0" encoding="utf-8"?>
<!-- Generator: Adobe Illustrator 27.5.0, SVG Export Plug-In . SVG Version: 6.00 Build 0)  -->
<svg version="1.1" xmlns="http://www.w3.org/2000/svg" xmlns:xlink="http://www.w3.org/1999/xlink" x="0px" y="0px"
	 viewBox="0 0 500 500" style="enable-background:new 0 0 500 500;" xml:space="preserve">
<g id="Background_Simple">
	<g>
		<path style="fill:#C6FF00;" d="M420.782,139.146c0,0-25.621-48.136-82.2-55.267c-56.579-7.132-96.077,27.633-137.712,45.462
			c-21.803,9.336-46.706,5.71-69.852,10.229c-74.01,14.45-101.89,104.98-71.061,156.464c26.688,44.57,73.66,67.747,145.184,73.095
			c71.525,5.348,121.699,11.588,185.751-32.091C454.943,293.36,450.673,202.436,420.782,139.146z"/>
		<path style="opacity:0.85;fill:#FFFFFF;" d="M420.782,139.146c0,0-25.621-48.136-82.2-55.267
			c-56.579-7.132-96.077,27.633-137.712,45.462c-21.803,9.336-46.706,5.71-69.852,10.229c-74.01,14.45-101.89,104.98-71.061,156.464
			c26.688,44.57,73.66,67.747,145.184,73.095c71.525,5.348,121.699,11.588,185.751-32.091
			C454.943,293.36,450.673,202.436,420.782,139.146z"/>
	</g>
</g>
<g id="Bookshelf">
	<g>
		<g>
			<g>
				<polygon style="fill:#C6FF00;" points="104.762,86.941 102.732,71.105 106.386,84.505 106.386,61.765 108.823,79.226 
					111.259,67.45 111.259,78.82 112.477,56.081 113.695,79.226 118.162,69.075 116.132,81.662 121.004,76.384 114.101,88.971 				
					"/>
				<polygon style="opacity:0.7;fill:#FFFFFF;" points="104.762,86.941 102.732,71.105 106.386,84.505 106.386,61.765 
					108.823,79.226 111.259,67.45 111.259,78.82 112.477,56.081 113.695,79.226 118.162,69.075 116.132,81.662 121.004,76.384 
					114.101,88.971 				"/>
			</g>
			<polygon style="fill:#C6FF00;" points="117.688,103.996 104.15,103.996 102.458,83.508 119.38,83.508 			"/>
		</g>
		<g>
			<polygon style="fill:#C6FF00;" points="167.529,84.005 176.351,104.455 163.519,104.455 159.108,96.035 			"/>
			<polygon style="fill:#C6FF00;" points="172.686,70.772 149.829,70.772 136.308,104.856 159.164,104.856 			"/>
			<polygon style="fill:#FFFFFF;" points="167.978,75.183 151.037,75.183 141.016,100.446 157.956,100.446 			"/>
		</g>
		<g>
			<g>
				<rect x="91.822" y="110.797" style="fill:#263238;" width="325.216" height="260.667"/>
				<rect x="91.822" y="110.797" style="opacity:0.75;fill:#FFFFFF;" width="325.216" height="260.667"/>
			</g>
			<g>
				<rect x="100.904" y="115.54" style="fill:#C6FF00;" width="15.153" height="46.068"/>
				<rect x="101.894" y="118.247" style="fill:#FFFFFF;" width="13.106" height="2.828"/>
				<rect x="101.894" y="155.191" style="fill:#FFFFFF;" width="13.106" height="2.828"/>
			</g>
			<g>
				<rect x="117.021" y="115.54" style="fill:#C6FF00;" width="15.153" height="46.068"/>
				<rect x="118.012" y="118.247" style="fill:#FFFFFF;" width="13.106" height="2.828"/>
				<rect x="118.012" y="155.191" style="fill:#FFFFFF;" width="13.106" height="2.828"/>
			</g>
			<g>
				<rect x="133.139" y="115.54" style="fill:#C6FF00;" width="15.153" height="46.068"/>
				<rect x="134.129" y="118.247" style="fill:#FFFFFF;" width="13.106" height="2.828"/>
				<rect x="134.129" y="155.191" style="fill:#FFFFFF;" width="13.106" height="2.828"/>
			</g>
			<g>
				<rect x="149.256" y="115.54" style="fill:#C6FF00;" width="15.153" height="46.068"/>
				<rect x="150.247" y="118.247" style="fill:#FFFFFF;" width="13.106" height="2.828"/>
				<rect x="150.247" y="155.191" style="fill:#FFFFFF;" width="13.106" height="2.828"/>
			</g>
			<g>
				<rect x="165.374" y="115.54" style="fill:#C6FF00;" width="15.153" height="46.068"/>
				<rect x="166.365" y="118.247" style="fill:#FFFFFF;" width="13.106" height="2.828"/>
				<rect x="166.365" y="155.191" style="fill:#FFFFFF;" width="13.106" height="2.828"/>
			</g>
			<g>
				<rect x="181.491" y="115.54" style="fill:#C6FF00;" width="15.153" height="46.068"/>
				<rect x="182.482" y="118.247" style="fill:#FFFFFF;" width="13.106" height="2.828"/>
				<rect x="182.482" y="155.191" style="fill:#FFFFFF;" width="13.106" height="2.828"/>
			</g>
			<g>
				<rect x="187.627" y="163.966" style="fill:#C6FF00;" width="15.153" height="46.068"/>
				<rect x="188.618" y="166.673" style="fill:#FFFFFF;" width="13.106" height="2.828"/>
				<rect x="188.618" y="203.618" style="fill:#FFFFFF;" width="13.106" height="2.828"/>
			</g>
			<g>
				<rect x="203.744" y="163.966" style="fill:#C6FF00;" width="15.153" height="46.068"/>
				<rect x="204.735" y="166.673" style="fill:#FFFFFF;" width="13.106" height="2.828"/>
				<rect x="204.735" y="203.618" style="fill:#FFFFFF;" width="13.106" height="2.828"/>
			</g>
			<g>
				<rect x="219.862" y="163.966" style="fill:#C6FF00;" width="15.153" height="46.068"/>
				<rect x="220.853" y="166.673" style="fill:#FFFFFF;" width="13.106" height="2.828"/>
				<rect x="220.853" y="203.618" style="fill:#FFFFFF;" width="13.106" height="2.828"/>
			</g>
			<g>
				<rect x="235.979" y="163.966" style="fill:#C6FF00;" width="15.153" height="46.068"/>
				<rect x="236.97" y="166.673" style="fill:#FFFFFF;" width="13.106" height="2.828"/>
				<rect x="236.97" y="203.618" style="fill:#FFFFFF;" width="13.106" height="2.828"/>
			</g>
			<g>
				<rect x="252.097" y="163.966" style="fill:#C6FF00;" width="15.153" height="46.068"/>
				<rect x="253.088" y="166.673" style="fill:#FFFFFF;" width="13.106" height="2.828"/>
				<rect x="253.088" y="203.618" style="fill:#FFFFFF;" width="13.106" height="2.828"/>
			</g>
			<g>
				<rect x="268.215" y="163.966" style="fill:#C6FF00;" width="15.153" height="46.068"/>
				<rect x="269.205" y="166.673" style="fill:#FFFFFF;" width="13.106" height="2.828"/>
				<rect x="269.205" y="203.618" style="fill:#FFFFFF;" width="13.106" height="2.828"/>
			</g>
			<g>
				<rect x="303.938" y="163.966" style="fill:#C6FF00;" width="15.153" height="46.068"/>
				<rect x="304.929" y="166.673" style="fill:#FFFFFF;" width="13.106" height="2.828"/>
				<rect x="304.929" y="203.618" style="fill:#FFFFFF;" width="13.106" height="2.828"/>
			</g>
			<g>
				<rect x="320.056" y="163.966" style="fill:#C6FF00;" width="15.153" height="46.068"/>
				<rect x="321.046" y="166.673" style="fill:#FFFFFF;" width="13.106" height="2.828"/>
				<rect x="321.046" y="203.618" style="fill:#FFFFFF;" width="13.106" height="2.828"/>
			</g>
			<g>
				<rect x="336.173" y="163.966" style="fill:#C6FF00;" width="15.153" height="46.068"/>
				<rect x="337.164" y="166.673" style="fill:#FFFFFF;" width="13.106" height="2.828"/>
				<rect x="337.164" y="203.618" style="fill:#FFFFFF;" width="13.106" height="2.828"/>
			</g>
			<g>
				<rect x="352.291" y="163.966" style="fill:#C6FF00;" width="15.153" height="46.068"/>
				<rect x="353.281" y="166.673" style="fill:#FFFFFF;" width="13.106" height="2.828"/>
				<rect x="353.281" y="203.618" style="fill:#FFFFFF;" width="13.106" height="2.828"/>
			</g>
			<g>
				<rect x="368.408" y="163.966" style="fill:#C6FF00;" width="15.153" height="46.068"/>
				<rect x="369.399" y="166.673" style="fill:#FFFFFF;" width="13.106" height="2.828"/>
				<rect x="369.399" y="203.618" style="fill:#FFFFFF;" width="13.106" height="2.828"/>
			</g>
			<g>
				<polygon style="fill:#C6FF00;" points="398.775,214.064 384.438,209.5 400.461,165.912 414.798,170.477 				"/>
				<polygon style="fill:#FFFFFF;" points="411.873,175.396 399.473,171.448 400.456,168.771 412.857,172.72 				"/>
				<polygon style="fill:#FFFFFF;" points="399.023,210.351 386.623,206.403 387.607,203.727 400.007,207.675 				"/>
			</g>
			<g>
				<polygon style="fill:#C6FF00;" points="348.125,354.189 333.788,349.624 349.81,306.036 364.148,310.601 				"/>
				<polygon style="fill:#FFFFFF;" points="361.223,315.52 348.822,311.572 349.806,308.896 362.206,312.844 				"/>
				<polygon style="fill:#FFFFFF;" points="348.373,350.475 335.973,346.527 336.957,343.851 349.357,347.799 				"/>
			</g>
			<g>
				<rect x="197.609" y="115.54" style="fill:#C6FF00;" width="15.153" height="46.068"/>
				<rect x="198.6" y="118.247" style="fill:#FFFFFF;" width="13.106" height="2.828"/>
				<rect x="198.6" y="155.191" style="fill:#FFFFFF;" width="13.106" height="2.828"/>
			</g>
			<g>
				<rect x="99.373" y="213.342" style="fill:#C6FF00;" width="15.153" height="46.068"/>
				<rect x="100.364" y="216.049" style="fill:#FFFFFF;" width="13.106" height="2.828"/>
				<rect x="100.364" y="252.993" style="fill:#FFFFFF;" width="13.106" height="2.828"/>
			</g>
			<g>
				<rect x="115.491" y="213.342" style="fill:#C6FF00;" width="15.153" height="46.068"/>
				<rect x="116.481" y="216.049" style="fill:#FFFFFF;" width="13.106" height="2.828"/>
				<rect x="116.481" y="252.993" style="fill:#FFFFFF;" width="13.106" height="2.828"/>
			</g>
			<g>
				<rect x="131.608" y="213.342" style="fill:#C6FF00;" width="15.153" height="46.068"/>
				<rect x="132.599" y="216.049" style="fill:#FFFFFF;" width="13.106" height="2.828"/>
				<rect x="132.599" y="252.993" style="fill:#FFFFFF;" width="13.106" height="2.828"/>
			</g>
			<g>
				<rect x="147.726" y="213.342" style="fill:#C6FF00;" width="15.153" height="46.068"/>
				<rect x="148.716" y="216.049" style="fill:#FFFFFF;" width="13.106" height="2.828"/>
				<rect x="148.716" y="252.993" style="fill:#FFFFFF;" width="13.106" height="2.828"/>
			</g>
			<g>
				<rect x="163.843" y="213.342" style="fill:#C6FF00;" width="15.153" height="46.068"/>
				<rect x="164.834" y="216.049" style="fill:#FFFFFF;" width="13.106" height="2.828"/>
				<rect x="164.834" y="252.993" style="fill:#FFFFFF;" width="13.106" height="2.828"/>
			</g>
			<g>
				<rect x="148.857" y="309.245" style="fill:#C6FF00;" width="15.153" height="46.068"/>
				<rect x="149.847" y="311.951" style="fill:#FFFFFF;" width="13.106" height="2.828"/>
				<rect x="149.847" y="348.896" style="fill:#FFFFFF;" width="13.106" height="2.828"/>
			</g>
			<g>
				<rect x="164.974" y="309.245" style="fill:#C6FF00;" width="15.153" height="46.068"/>
				<rect x="165.965" y="311.951" style="fill:#FFFFFF;" width="13.106" height="2.828"/>
				<rect x="165.965" y="348.896" style="fill:#FFFFFF;" width="13.106" height="2.828"/>
			</g>
			<g>
				<rect x="181.092" y="309.245" style="fill:#C6FF00;" width="15.153" height="46.068"/>
				<rect x="182.082" y="311.951" style="fill:#FFFFFF;" width="13.106" height="2.828"/>
				<rect x="182.082" y="348.896" style="fill:#FFFFFF;" width="13.106" height="2.828"/>
			</g>
			<g>
				<rect x="197.209" y="309.245" style="fill:#C6FF00;" width="15.153" height="46.068"/>
				<rect x="198.2" y="311.951" style="fill:#FFFFFF;" width="13.106" height="2.828"/>
				<rect x="198.2" y="348.896" style="fill:#FFFFFF;" width="13.106" height="2.828"/>
			</g>
			<g>
				<rect x="213.327" y="309.245" style="fill:#C6FF00;" width="15.153" height="46.068"/>
				<rect x="214.317" y="311.951" style="fill:#FFFFFF;" width="13.106" height="2.828"/>
				<rect x="214.317" y="348.896" style="fill:#FFFFFF;" width="13.106" height="2.828"/>
			</g>
			<g>
				<rect x="179.961" y="213.342" style="fill:#C6FF00;" width="15.153" height="46.068"/>
				<rect x="180.951" y="216.049" style="fill:#FFFFFF;" width="13.106" height="2.828"/>
				<rect x="180.951" y="252.993" style="fill:#FFFFFF;" width="13.106" height="2.828"/>
			</g>
			<g>
				<rect x="196.078" y="213.342" style="fill:#C6FF00;" width="15.153" height="46.068"/>
				<rect x="197.069" y="216.049" style="fill:#FFFFFF;" width="13.106" height="2.828"/>
				<rect x="197.069" y="252.993" style="fill:#FFFFFF;" width="13.106" height="2.828"/>
			</g>
			<g>
				<rect x="212.05" y="213.342" style="fill:#C6FF00;" width="15.153" height="46.068"/>
				<rect x="213.041" y="216.049" style="fill:#FFFFFF;" width="13.106" height="2.828"/>
				<rect x="213.041" y="252.993" style="fill:#FFFFFF;" width="13.106" height="2.828"/>
			</g>
			<g>
				<rect x="228.021" y="213.342" style="fill:#C6FF00;" width="15.153" height="46.068"/>
				<rect x="229.012" y="216.049" style="fill:#FFFFFF;" width="13.106" height="2.828"/>
				<rect x="229.012" y="252.993" style="fill:#FFFFFF;" width="13.106" height="2.828"/>
			</g>
			<g>
				<polygon style="fill:#C6FF00;" points="285.743,256.412 271.229,260.464 257.006,216.339 271.52,212.287 				"/>
				<polygon style="fill:#FFFFFF;" points="272.217,217.871 259.664,221.376 258.79,218.667 271.344,215.162 				"/>
				<polygon style="fill:#FFFFFF;" points="283.623,253.258 271.07,256.763 270.197,254.054 282.75,250.549 				"/>
			</g>
			<g>
				<rect x="243.993" y="213.342" style="fill:#C6FF00;" width="15.153" height="46.068"/>
				<rect x="244.984" y="216.049" style="fill:#FFFFFF;" width="13.106" height="2.828"/>
				<rect x="244.984" y="252.993" style="fill:#FFFFFF;" width="13.106" height="2.828"/>
			</g>
			<g>
				<rect x="147.326" y="261.293" style="fill:#C6FF00;" width="15.153" height="46.068"/>
				<rect x="148.317" y="264" style="fill:#FFFFFF;" width="13.106" height="2.828"/>
				<rect x="148.317" y="300.945" style="fill:#FFFFFF;" width="13.106" height="2.828"/>
			</g>
			<g>
				<rect x="163.444" y="261.293" style="fill:#C6FF00;" width="15.153" height="46.068"/>
				<rect x="164.434" y="264" style="fill:#FFFFFF;" width="13.106" height="2.828"/>
				<rect x="164.434" y="300.945" style="fill:#FFFFFF;" width="13.106" height="2.828"/>
			</g>
			<g>
				<rect x="179.561" y="261.293" style="fill:#C6FF00;" width="15.153" height="46.068"/>
				<rect x="180.552" y="264" style="fill:#FFFFFF;" width="13.106" height="2.828"/>
				<rect x="180.552" y="300.945" style="fill:#FFFFFF;" width="13.106" height="2.828"/>
			</g>
			<g>
				<rect x="195.679" y="261.293" style="fill:#C6FF00;" width="15.153" height="46.068"/>
				<rect x="196.669" y="264" style="fill:#FFFFFF;" width="13.106" height="2.828"/>
				<rect x="196.669" y="300.945" style="fill:#FFFFFF;" width="13.106" height="2.828"/>
			</g>
			<g>
				<rect x="211.796" y="261.293" style="fill:#C6FF00;" width="15.153" height="46.068"/>
				<rect x="212.787" y="264" style="fill:#FFFFFF;" width="13.106" height="2.828"/>
				<rect x="212.787" y="300.945" style="fill:#FFFFFF;" width="13.106" height="2.828"/>
			</g>
			<g>
				<rect x="227.914" y="261.293" style="fill:#C6FF00;" width="15.153" height="46.068"/>
				<rect x="228.904" y="264" style="fill:#FFFFFF;" width="13.106" height="2.828"/>
				<rect x="228.904" y="300.945" style="fill:#FFFFFF;" width="13.106" height="2.828"/>
			</g>
			<g>
				<rect x="244.031" y="261.293" style="fill:#C6FF00;" width="15.153" height="46.068"/>
				<rect x="245.022" y="264" style="fill:#FFFFFF;" width="13.106" height="2.828"/>
				<rect x="245.022" y="300.945" style="fill:#FFFFFF;" width="13.106" height="2.828"/>
			</g>
			<g>
				<rect x="300.367" y="261.293" style="fill:#C6FF00;" width="15.153" height="46.068"/>
				<rect x="301.358" y="264" style="fill:#FFFFFF;" width="13.106" height="2.828"/>
				<rect x="301.358" y="300.945" style="fill:#FFFFFF;" width="13.106" height="2.828"/>
			</g>
			<g>
				<rect x="316.485" y="261.293" style="fill:#C6FF00;" width="15.153" height="46.068"/>
				<rect x="317.475" y="264" style="fill:#FFFFFF;" width="13.106" height="2.828"/>
				<rect x="317.475" y="300.945" style="fill:#FFFFFF;" width="13.106" height="2.828"/>
			</g>
			<g>
				<rect x="332.602" y="261.293" style="fill:#C6FF00;" width="15.153" height="46.068"/>
				<rect x="333.593" y="264" style="fill:#FFFFFF;" width="13.106" height="2.828"/>
				<rect x="333.593" y="300.945" style="fill:#FFFFFF;" width="13.106" height="2.828"/>
			</g>
			<g>
				<rect x="348.72" y="261.293" style="fill:#C6FF00;" width="15.153" height="46.068"/>
				<rect x="349.71" y="264" style="fill:#FFFFFF;" width="13.106" height="2.828"/>
				<rect x="349.71" y="300.945" style="fill:#FFFFFF;" width="13.106" height="2.828"/>
			</g>
			<g>
				<rect x="364.837" y="261.293" style="fill:#C6FF00;" width="15.153" height="46.068"/>
				<rect x="365.828" y="264" style="fill:#FFFFFF;" width="13.106" height="2.828"/>
				<rect x="365.828" y="300.945" style="fill:#FFFFFF;" width="13.106" height="2.828"/>
			</g>
			<g>
				<rect x="380.955" y="261.293" style="fill:#C6FF00;" width="15.153" height="46.068"/>
				<rect x="381.945" y="264" style="fill:#FFFFFF;" width="13.106" height="2.828"/>
				<rect x="381.945" y="300.945" style="fill:#FFFFFF;" width="13.106" height="2.828"/>
			</g>
			<g>
				<rect x="397.072" y="261.293" style="fill:#C6FF00;" width="15.153" height="46.068"/>
				<rect x="398.063" y="264" style="fill:#FFFFFF;" width="13.106" height="2.828"/>
				<rect x="398.063" y="300.945" style="fill:#FFFFFF;" width="13.106" height="2.828"/>
			</g>
			<g>
				<rect x="221.248" y="115.54" style="fill:#C6FF00;" width="15.153" height="46.068"/>
				<rect x="222.238" y="118.247" style="fill:#FFFFFF;" width="13.106" height="2.828"/>
				<rect x="222.238" y="155.191" style="fill:#FFFFFF;" width="13.106" height="2.828"/>
			</g>
			<g>
				<rect x="238.44" y="115.54" style="fill:#C6FF00;" width="15.153" height="46.068"/>
				<rect x="239.431" y="118.247" style="fill:#FFFFFF;" width="13.106" height="2.828"/>
				<rect x="239.431" y="155.191" style="fill:#FFFFFF;" width="13.106" height="2.828"/>
			</g>
			<g>
				<rect x="255.632" y="115.54" style="fill:#C6FF00;" width="15.153" height="46.068"/>
				<rect x="256.623" y="118.247" style="fill:#FFFFFF;" width="13.106" height="2.828"/>
				<rect x="256.623" y="155.191" style="fill:#FFFFFF;" width="13.106" height="2.828"/>
			</g>
			<g>
				<rect x="272.824" y="115.54" style="fill:#C6FF00;" width="15.153" height="46.068"/>
				<rect x="273.815" y="118.247" style="fill:#FFFFFF;" width="13.106" height="2.828"/>
				<rect x="273.815" y="155.191" style="fill:#FFFFFF;" width="13.106" height="2.828"/>
			</g>
			<g>
				<polygon style="fill:#C6FF00;" points="167.508,209.406 161.404,210.929 148.785,167.131 154.889,165.608 				"/>
				<polygon style="fill:#FFFFFF;" points="155.98,170.977 150.701,172.294 149.926,169.605 155.205,168.288 				"/>
				<polygon style="fill:#FFFFFF;" points="166.1,206.101 160.82,207.418 160.046,204.729 165.325,203.412 				"/>
			</g>
			<g>
				<rect x="166.807" y="165.596" style="fill:#C6FF00;" width="6.319" height="45.345"/>
				<rect x="167.22" y="168.26" style="fill:#FFFFFF;" width="5.465" height="2.784"/>
				<rect x="167.22" y="204.626" style="fill:#FFFFFF;" width="5.465" height="2.784"/>
			</g>
			<g>
				<rect x="173.612" y="165.596" style="fill:#C6FF00;" width="6.319" height="45.345"/>
				<rect x="174.025" y="168.26" style="fill:#FFFFFF;" width="5.465" height="2.784"/>
				<rect x="174.025" y="204.626" style="fill:#FFFFFF;" width="5.465" height="2.784"/>
			</g>
			<g>
				<g>
					<g>
						<path style="fill:#FFFFFF;" d="M102.161,194.631c0,0,2.908,6.034,0,13.19h43.892c0,0,5.42-1.403,5.42-6.595
							c0,0-0.925-4.631-5.288-6.455L102.161,194.631z"/>
						<path style="opacity:0.25;" d="M148.151,195.751c-1.913-1.102-3.662-0.984-5.863-0.992c-1.383-0.004-2.766-0.009-4.149-0.013
							c-3.602-0.012-7.203-0.023-10.805-0.034c-7.005-0.022-14.01-0.045-21.015-0.067c-0.343-0.001-3.747,0.3-3.898-0.013
							c0,0,0.488,1.014,0.864,2.702h43.826V207.4c0,0,3.966-1.263,4.363-6.174c0.185-2.286-1.175-4.076-2.917-5.225
							C148.42,195.911,148.285,195.828,148.151,195.751z"/>
					</g>
					<g>
						<path style="fill:#C6FF00;" d="M144.401,209.646h-44.09c-0.73,0-1.322-0.628-1.322-1.403c0-0.775,0.592-1.403,1.322-1.403
							h44.09c3.025,0,5.487-2.423,5.487-5.402c0-2.979-2.461-5.402-5.487-5.402h-43.693c-0.73,0-1.322-0.628-1.322-1.403
							c0-0.775,0.592-1.403,1.322-1.403h43.693c4.483,0,8.131,3.682,8.131,8.209C152.531,205.963,148.884,209.646,144.401,209.646z"
							/>
					</g>
				</g>
				<g>
					<g>
						<path style="fill:#FFFFFF;" d="M149.358,178.383c0,0-2.908,6.034,0,13.19h-43.892c0,0-5.42-1.403-5.42-6.595
							c0,0,0.925-4.631,5.288-6.455L149.358,178.383z"/>
						<path style="opacity:0.25;" d="M103.369,179.503c1.913-1.102,3.662-0.985,5.863-0.992c1.383-0.004,2.766-0.009,4.149-0.013
							c3.602-0.011,7.203-0.023,10.805-0.035c7.005-0.022,14.01-0.045,21.015-0.067c0.343-0.001,3.747,0.3,3.898-0.013
							c0,0-0.488,1.014-0.864,2.702h-43.826v10.068c0,0-3.966-1.263-4.363-6.174c-0.185-2.286,1.175-4.076,2.917-5.225
							C103.099,179.664,103.235,179.58,103.369,179.503z"/>
					</g>
					<g>
						<path style="fill:#C6FF00;" d="M107.119,193.398h44.09c0.73,0,1.322-0.628,1.322-1.403c0-0.775-0.592-1.403-1.322-1.403
							h-44.09c-3.025,0-5.487-2.423-5.487-5.402c0-2.979,2.461-5.402,5.487-5.402h43.693c0.73,0,1.322-0.628,1.322-1.403
							c0-0.775-0.592-1.403-1.322-1.403h-43.693c-4.483,0-8.131,3.682-8.131,8.209C98.989,189.715,102.636,193.398,107.119,193.398z
							"/>
					</g>
				</g>
			</g>
			<g>
				<g>
					<g>
						<path style="fill:#FFFFFF;" d="M362.841,243.532c0,0,2.909,6.034,0,13.19h43.892c0,0,5.42-1.403,5.42-6.595
							c0,0-0.925-4.631-5.288-6.455L362.841,243.532z"/>
						<path style="opacity:0.25;" d="M408.83,244.652c-1.913-1.102-3.662-0.984-5.863-0.992c-1.383-0.004-2.766-0.009-4.149-0.013
							c-3.602-0.011-7.203-0.023-10.805-0.034c-7.005-0.022-14.01-0.045-21.015-0.067c-0.343-0.001-3.747,0.3-3.898-0.013
							c0,0,0.488,1.014,0.864,2.702h43.826v10.068c0,0,3.966-1.263,4.363-6.174c0.185-2.286-1.175-4.076-2.917-5.225
							C409.1,244.812,408.965,244.729,408.83,244.652z"/>
					</g>
					<g>
						<path style="fill:#C6FF00;" d="M405.08,258.547h-44.09c-0.73,0-1.322-0.628-1.322-1.403c0-0.775,0.592-1.403,1.322-1.403
							h44.09c3.025,0,5.486-2.423,5.486-5.402c0-2.979-2.461-5.402-5.486-5.402h-43.693c-0.73,0-1.322-0.628-1.322-1.403
							c0-0.775,0.592-1.403,1.322-1.403h43.693c4.483,0,8.131,3.682,8.131,8.209C413.211,254.864,409.563,258.547,405.08,258.547z"
							/>
					</g>
				</g>
				<g>
					<g>
						<path style="fill:#FFFFFF;" d="M410.038,227.284c0,0-2.909,6.034,0,13.19h-43.892c0,0-5.42-1.403-5.42-6.595
							c0,0,0.925-4.631,5.288-6.455L410.038,227.284z"/>
						<path style="opacity:0.25;" d="M364.049,228.404c1.913-1.101,3.662-0.985,5.863-0.992c1.383-0.004,2.766-0.009,4.149-0.013
							c3.602-0.012,7.203-0.023,10.805-0.035c7.005-0.022,14.01-0.045,21.015-0.067c0.343-0.001,3.747,0.3,3.898-0.013
							c0,0-0.488,1.014-0.864,2.702h-43.826v10.068c0,0-3.966-1.263-4.363-6.174c-0.185-2.286,1.175-4.076,2.917-5.225
							C363.779,228.564,363.914,228.481,364.049,228.404z"/>
					</g>
					<g>
						<path style="fill:#C6FF00;" d="M367.799,242.299h44.09c0.73,0,1.322-0.628,1.322-1.403c0-0.775-0.592-1.403-1.322-1.403
							h-44.09c-3.025,0-5.487-2.423-5.487-5.402c0-2.979,2.461-5.402,5.487-5.402h43.694c0.73,0,1.322-0.628,1.322-1.403
							s-0.592-1.403-1.322-1.403h-43.694c-4.483,0-8.131,3.682-8.131,8.209C359.668,238.616,363.316,242.299,367.799,242.299z"/>
					</g>
				</g>
			</g>
			<g>
				<g>
					<g>
						<path style="fill:#FFFFFF;" d="M361.821,337.061c0,0,2.908,6.034,0,13.19h43.892c0,0,5.42-1.403,5.42-6.595
							c0,0-0.925-4.631-5.288-6.455L361.821,337.061z"/>
						<path style="opacity:0.25;" d="M407.81,338.181c-1.913-1.102-3.662-0.985-5.863-0.992c-1.383-0.004-2.766-0.009-4.149-0.013
							c-3.602-0.011-7.203-0.023-10.805-0.034c-7.005-0.022-14.01-0.045-21.015-0.067c-0.343-0.001-3.747,0.299-3.898-0.013
							c0,0,0.488,1.014,0.864,2.702h43.826v10.068c0,0,3.966-1.263,4.363-6.174c0.185-2.286-1.175-4.076-2.917-5.225
							C408.08,338.341,407.945,338.258,407.81,338.181z"/>
					</g>
					<g>
						<path style="fill:#C6FF00;" d="M404.06,352.075h-44.09c-0.73,0-1.322-0.628-1.322-1.403c0-0.775,0.592-1.403,1.322-1.403
							h44.09c3.025,0,5.487-2.423,5.487-5.402s-2.461-5.402-5.487-5.402h-43.693c-0.73,0-1.322-0.628-1.322-1.403
							c0-0.775,0.592-1.403,1.322-1.403h43.693c4.483,0,8.131,3.682,8.131,8.209C412.191,348.393,408.543,352.075,404.06,352.075z"
							/>
					</g>
				</g>
				<g>
					<g>
						<path style="fill:#FFFFFF;" d="M409.018,320.813c0,0-2.908,6.034,0,13.19h-43.892c0,0-5.42-1.403-5.42-6.595
							c0,0,0.925-4.631,5.288-6.455L409.018,320.813z"/>
						<path style="opacity:0.25;" d="M363.029,321.933c1.913-1.102,3.662-0.984,5.863-0.992c1.383-0.004,2.766-0.009,4.149-0.013
							c3.602-0.011,7.203-0.023,10.805-0.034c7.005-0.022,14.01-0.045,21.015-0.067c0.343-0.001,3.747,0.3,3.898-0.013
							c0,0-0.488,1.014-0.864,2.702h-43.826v10.068c0,0-3.966-1.263-4.363-6.174c-0.185-2.286,1.175-4.076,2.917-5.225
							C362.759,322.093,362.894,322.01,363.029,321.933z"/>
					</g>
					<g>
						<path style="fill:#C6FF00;" d="M366.779,335.828h44.09c0.73,0,1.322-0.628,1.322-1.403c0-0.775-0.592-1.403-1.322-1.403
							h-44.09c-3.025,0-5.487-2.423-5.487-5.402s2.461-5.402,5.487-5.402h43.693c0.73,0,1.322-0.628,1.322-1.403
							c0-0.775-0.592-1.403-1.322-1.403h-43.693c-4.483,0-8.13,3.682-8.13,8.209C358.648,332.145,362.296,335.828,366.779,335.828z"
							/>
					</g>
				</g>
			</g>
			<g>
				<g>
					<g>
						<path style="fill:#FFFFFF;" d="M283.88,337.061c0,0,2.909,6.034,0,13.19h43.892c0,0,5.42-1.403,5.42-6.595
							c0,0-0.925-4.631-5.288-6.455L283.88,337.061z"/>
						<path style="opacity:0.25;" d="M329.869,338.181c-1.913-1.102-3.662-0.985-5.863-0.992c-1.383-0.004-2.766-0.009-4.149-0.013
							c-3.602-0.011-7.203-0.023-10.805-0.034c-7.005-0.022-14.01-0.045-21.015-0.067c-0.343-0.001-3.747,0.299-3.898-0.013
							c0,0,0.488,1.014,0.864,2.702h43.826v10.068c0,0,3.966-1.263,4.363-6.174c0.185-2.286-1.175-4.076-2.917-5.225
							C330.139,338.341,330.003,338.258,329.869,338.181z"/>
					</g>
					<g>
						<path style="fill:#C6FF00;" d="M326.119,352.075h-44.09c-0.73,0-1.322-0.628-1.322-1.403c0-0.775,0.592-1.403,1.322-1.403
							h44.09c3.025,0,5.487-2.423,5.487-5.402s-2.461-5.402-5.487-5.402h-43.693c-0.73,0-1.322-0.628-1.322-1.403
							c0-0.775,0.592-1.403,1.322-1.403h43.693c4.483,0,8.131,3.682,8.131,8.209C334.25,348.393,330.602,352.075,326.119,352.075z"
							/>
					</g>
				</g>
				<g>
					<g>
						<path style="fill:#FFFFFF;" d="M283.88,320.813c0,0,2.909,6.034,0,13.19h43.892c0,0,5.42-1.403,5.42-6.595
							c0,0-0.925-4.631-5.288-6.455L283.88,320.813z"/>
						<path style="opacity:0.25;" d="M329.869,321.933c-1.913-1.102-3.662-0.984-5.863-0.992c-1.383-0.004-2.766-0.009-4.149-0.013
							c-3.602-0.011-7.203-0.023-10.805-0.034c-7.005-0.022-14.01-0.045-21.015-0.067c-0.343-0.001-3.747,0.3-3.898-0.013
							c0,0,0.488,1.014,0.864,2.702h43.826v10.068c0,0,3.966-1.263,4.363-6.174c0.185-2.286-1.175-4.076-2.917-5.225
							C330.139,322.093,330.003,322.01,329.869,321.933z"/>
					</g>
					<g>
						<path style="fill:#C6FF00;" d="M326.119,335.828h-44.09c-0.73,0-1.322-0.628-1.322-1.403c0-0.775,0.592-1.403,1.322-1.403
							h44.09c3.025,0,5.487-2.423,5.487-5.402s-2.461-5.402-5.487-5.402h-43.693c-0.73,0-1.322-0.628-1.322-1.403
							c0-0.775,0.592-1.403,1.322-1.403h43.693c4.483,0,8.131,3.682,8.131,8.209C334.25,332.145,330.602,335.828,326.119,335.828z"
							/>
					</g>
				</g>
			</g>
			<g>
				<g>
					<g>
						<path style="fill:#FFFFFF;" d="M98.59,337.061c0,0,2.908,6.034,0,13.19h43.892c0,0,5.42-1.403,5.42-6.595
							c0,0-0.926-4.631-5.288-6.455L98.59,337.061z"/>
						<path style="opacity:0.25;" d="M144.58,338.181c-1.913-1.102-3.662-0.985-5.863-0.992c-1.383-0.004-2.766-0.009-4.149-0.013
							c-3.602-0.011-7.203-0.023-10.805-0.034c-7.005-0.022-14.01-0.045-21.015-0.067c-0.343-0.001-3.747,0.299-3.898-0.013
							c0,0,0.488,1.014,0.864,2.702h43.826v10.068c0,0,3.966-1.263,4.363-6.174c0.185-2.286-1.175-4.076-2.917-5.225
							C144.849,338.341,144.714,338.258,144.58,338.181z"/>
					</g>
					<g>
						<path style="fill:#C6FF00;" d="M140.83,352.075H96.74c-0.73,0-1.322-0.628-1.322-1.403c0-0.775,0.592-1.403,1.322-1.403h44.09
							c3.025,0,5.487-2.423,5.487-5.402s-2.461-5.402-5.487-5.402H97.136c-0.73,0-1.322-0.628-1.322-1.403
							c0-0.775,0.592-1.403,1.322-1.403h43.693c4.483,0,8.131,3.682,8.131,8.209C148.96,348.393,145.313,352.075,140.83,352.075z"/>
					</g>
				</g>
				<g>
					<g>
						<path style="fill:#FFFFFF;" d="M145.787,320.813c0,0-2.908,6.034,0,13.19h-43.892c0,0-5.42-1.403-5.42-6.595
							c0,0,0.925-4.631,5.288-6.455L145.787,320.813z"/>
						<path style="opacity:0.25;" d="M99.798,321.933c1.913-1.102,3.662-0.984,5.863-0.992c1.383-0.004,2.766-0.009,4.149-0.013
							c3.602-0.011,7.203-0.023,10.805-0.034c7.005-0.022,14.01-0.045,21.015-0.067c0.343-0.001,3.747,0.3,3.898-0.013
							c0,0-0.488,1.014-0.864,2.702h-43.826v10.068c0,0-3.966-1.263-4.363-6.174c-0.185-2.286,1.175-4.076,2.917-5.225
							C99.529,322.093,99.664,322.01,99.798,321.933z"/>
					</g>
					<g>
						<path style="fill:#C6FF00;" d="M103.548,335.828h44.09c0.73,0,1.322-0.628,1.322-1.403c0-0.775-0.592-1.403-1.322-1.403
							h-44.09c-3.025,0-5.486-2.423-5.486-5.402s2.461-5.402,5.486-5.402h43.693c0.73,0,1.322-0.628,1.322-1.403
							c0-0.775-0.592-1.403-1.322-1.403h-43.693c-4.483,0-8.131,3.682-8.131,8.209C95.418,332.145,99.065,335.828,103.548,335.828z"
							/>
					</g>
				</g>
			</g>
			<g>
				<g>
					<g>
						<path style="fill:#FFFFFF;" d="M308.257,243.532c0,0,2.909,6.034,0,13.19h43.892c0,0,5.42-1.403,5.42-6.595
							c0,0-0.926-4.631-5.288-6.455L308.257,243.532z"/>
						<path style="opacity:0.25;" d="M354.246,244.652c-1.913-1.102-3.662-0.984-5.863-0.992c-1.383-0.004-2.766-0.009-4.149-0.013
							c-3.602-0.011-7.203-0.023-10.805-0.034c-7.005-0.022-14.01-0.045-21.015-0.067c-0.343-0.001-3.747,0.3-3.898-0.013
							c0,0,0.488,1.014,0.864,2.702h43.826v10.068c0,0,3.966-1.263,4.363-6.174c0.185-2.286-1.175-4.076-2.917-5.225
							C354.515,244.812,354.38,244.729,354.246,244.652z"/>
					</g>
					<g>
						<path style="fill:#C6FF00;" d="M350.496,258.547h-44.09c-0.73,0-1.322-0.628-1.322-1.403c0-0.775,0.592-1.403,1.322-1.403
							h44.09c3.025,0,5.487-2.423,5.487-5.402c0-2.979-2.461-5.402-5.487-5.402h-43.693c-0.73,0-1.322-0.628-1.322-1.403
							c0-0.775,0.592-1.403,1.322-1.403h43.693c4.483,0,8.131,3.682,8.131,8.209C358.626,254.864,354.979,258.547,350.496,258.547z"
							/>
					</g>
				</g>
				<g>
					<g>
						<path style="fill:#FFFFFF;" d="M355.453,227.284c0,0-2.908,6.034,0,13.19h-43.892c0,0-5.42-1.403-5.42-6.595
							c0,0,0.926-4.631,5.288-6.455L355.453,227.284z"/>
						<path style="opacity:0.25;" d="M309.464,228.404c1.913-1.101,3.662-0.985,5.863-0.992c1.383-0.004,2.766-0.009,4.149-0.013
							c3.602-0.012,7.203-0.023,10.805-0.035c7.005-0.022,14.01-0.045,21.015-0.067c0.343-0.001,3.747,0.3,3.898-0.013
							c0,0-0.488,1.014-0.864,2.702h-43.826v10.068c0,0-3.966-1.263-4.363-6.174c-0.185-2.286,1.175-4.076,2.917-5.225
							C309.195,228.564,309.33,228.481,309.464,228.404z"/>
					</g>
					<g>
						<path style="fill:#C6FF00;" d="M313.214,242.299h44.09c0.73,0,1.322-0.628,1.322-1.403c0-0.775-0.592-1.403-1.322-1.403
							h-44.09c-3.025,0-5.487-2.423-5.487-5.402c0-2.979,2.461-5.402,5.487-5.402h43.693c0.73,0,1.322-0.628,1.322-1.403
							s-0.592-1.403-1.322-1.403h-43.693c-4.483,0-8.131,3.682-8.131,8.209C305.084,238.616,308.731,242.299,313.214,242.299z"/>
					</g>
				</g>
			</g>
			<g>
				<path style="fill:#263238;" d="M422,103.968H84.081v12.606h4.566V424.06h7.306v-4.151h316.914v4.151h7.306V116.574H422V103.968z
					 M143.445,263.12h269.422v41.758H143.445V263.12z M95.953,256.817v-41.758h316.914v41.758H95.953z M95.953,208.756v-41.758
					h316.914v41.758H95.953z M294.139,116.574v44.121H95.953v-44.121H294.139z M95.953,352.939v-41.758h316.914v41.758H95.953z"/>
				<path style="opacity:0.9;fill:#FFFFFF;" d="M422,103.968H84.081v12.606h4.566V424.06h7.306v-4.151h316.914v4.151h7.306V116.574
					H422V103.968z M143.445,263.12h269.422v41.758H143.445V263.12z M95.953,256.817v-41.758h316.914v41.758H95.953z M95.953,208.756
					v-41.758h316.914v41.758H95.953z M294.139,116.574v44.121H95.953v-44.121H294.139z M95.953,352.939v-41.758h316.914v41.758
					H95.953z"/>
			</g>
			<ellipse style="fill:#FFFFFF;" cx="347.158" cy="137.689" rx="5.031" ry="4.682"/>
			<ellipse style="fill:#FFFFFF;" cx="366.563" cy="137.689" rx="5.031" ry="4.682"/>
		</g>
	</g>
</g>
<g id="Character">
	<g>
		<g>
			<polygon style="fill:#FFFFFF;stroke:#263238;stroke-linecap:round;stroke-miterlimit:10;" points="219.699,405.091 
				218.032,407.592 220.533,409.259 218.865,412.038 221.088,413.983 216.92,416.762 219.143,418.151 218.587,420.096 
				220.81,421.207 218.587,424.542 150.509,424.542 149.12,421.207 150.787,419.262 148.286,417.873 152.176,416.762 
				149.676,415.094 152.454,413.983 148.842,412.594 158.012,409.815 147.731,408.148 151.065,382.861 218.641,394.483 			"/>
			<path style="opacity:0.25;" d="M216.768,408.568c0,0-31.991,3.44-51.598,1.032l9.976,2.408l-18.575,1.032l17.543,2.752
				l-18.575,1.72l14.791,3.096l-17.543,1.376h63.637l-14.447-3.44l8.6-1.376l-7.912-1.376l14.447-1.376l-14.791-0.688l13.759-1.376
				l-14.791-0.688C201.289,411.664,208.857,410.288,216.768,408.568z"/>
		</g>
		<g>
			<defs>
				<path id="XMLID_10_" d="M145.433,407.983c0,0,41.2,1.832,74.266-2.892l-1.058-16.139l-69.521-6.646L145.433,407.983z"/>
			</defs>
			<use xlink:href="#XMLID_10_"  style="overflow:visible;fill:#FFFFFF;"/>
			<clipPath id="XMLID_00000031166967700549123050000010437397185935252904_">
				<use xlink:href="#XMLID_10_"  style="overflow:visible;"/>
			</clipPath>
			<path style="opacity:0.1;clip-path:url(#XMLID_00000031166967700549123050000010437397185935252904_);" d="M145.433,407.983
				c0,0,41.2,1.832,74.266-2.892l-1.058-16.139l-69.521-6.646L145.433,407.983z"/>
			<use xlink:href="#XMLID_10_"  style="overflow:visible;fill:none;stroke:#263238;stroke-linecap:round;stroke-miterlimit:10;"/>
		</g>
		<g>
			
				<line style="fill:none;stroke:#263238;stroke-linecap:round;stroke-linejoin:round;stroke-miterlimit:10;" x1="161.736" y1="386.815" x2="160.505" y2="399.953"/>
			
				<line style="fill:none;stroke:#263238;stroke-linecap:round;stroke-linejoin:round;stroke-miterlimit:10;" x1="172.001" y1="387.637" x2="171.59" y2="401.185"/>
			
				<line style="fill:none;stroke:#263238;stroke-linecap:round;stroke-linejoin:round;stroke-miterlimit:10;" x1="182.265" y1="388.868" x2="181.854" y2="402.006"/>
			
				<line style="fill:none;stroke:#263238;stroke-linecap:round;stroke-linejoin:round;stroke-miterlimit:10;" x1="191.708" y1="391.742" x2="191.708" y2="402.417"/>
			
				<line style="fill:none;stroke:#263238;stroke-linecap:round;stroke-linejoin:round;stroke-miterlimit:10;" x1="202.793" y1="394.206" x2="203.203" y2="402.417"/>
			
				<line style="fill:none;stroke:#263238;stroke-linecap:round;stroke-linejoin:round;stroke-miterlimit:10;" x1="212.646" y1="395.848" x2="213.057" y2="402.417"/>
		</g>
		<g>
			<defs>
				<path id="XMLID_12_" d="M219.977,377.211c0,0-54.815,24.196-74.544,30.772l3.687-25.677l55.296-22.878L219.977,377.211z"/>
			</defs>
			<use xlink:href="#XMLID_12_"  style="overflow:visible;fill:#FFFFFF;"/>
			<clipPath id="XMLID_00000138559552793828334850000014541454956372720811_">
				<use xlink:href="#XMLID_12_"  style="overflow:visible;"/>
			</clipPath>
			<path style="opacity:0.1;clip-path:url(#XMLID_00000138559552793828334850000014541454956372720811_);" d="M174.84,396.374
				c21.732-7.052,45.137-19.163,45.137-19.163l-15.561-17.784l-36.642,12.893L174.84,396.374z"/>
			
				<use xlink:href="#XMLID_12_"  style="overflow:visible;fill:none;stroke:#263238;stroke-linecap:round;stroke-linejoin:round;stroke-miterlimit:10;"/>
		</g>
		<g>
			<defs>
				<polygon id="XMLID_9_" points="166.904,379.434 219.977,377.211 209.418,354.148 157.178,354.426 				"/>
			</defs>
			<use xlink:href="#XMLID_9_"  style="overflow:visible;fill:#FFFFFF;"/>
			<clipPath id="XMLID_00000175323327198847704500000003355739024405086873_">
				<use xlink:href="#XMLID_9_"  style="overflow:visible;"/>
			</clipPath>
			<polygon style="opacity:0.1;clip-path:url(#XMLID_00000175323327198847704500000003355739024405086873_);" points="
				166.904,379.434 219.977,377.211 209.418,354.148 157.178,354.426 			"/>
			
				<use xlink:href="#XMLID_9_"  style="overflow:visible;fill:none;stroke:#263238;stroke-linecap:round;stroke-linejoin:round;stroke-miterlimit:10;"/>
		</g>
		<g>
			
				<line style="fill:none;stroke:#263238;stroke-linecap:round;stroke-linejoin:round;stroke-miterlimit:10;" x1="171.179" y1="358.076" x2="176.106" y2="374.498"/>
			
				<line style="fill:none;stroke:#263238;stroke-linecap:round;stroke-linejoin:round;stroke-miterlimit:10;" x1="180.622" y1="357.255" x2="185.549" y2="374.498"/>
			
				<line style="fill:none;stroke:#263238;stroke-linecap:round;stroke-linejoin:round;stroke-miterlimit:10;" x1="190.065" y1="356.844" x2="194.582" y2="373.267"/>
			
				<line style="fill:none;stroke:#263238;stroke-linecap:round;stroke-linejoin:round;stroke-miterlimit:10;" x1="199.919" y1="356.844" x2="204.846" y2="372.856"/>
		</g>
		<g>
			<path style="fill:#263238;stroke:#263238;stroke-linecap:round;stroke-linejoin:round;stroke-miterlimit:10;" d="
				M222.324,289.563l15.9,55.393l-6.361,2.1l-29.029-62.879C202.834,284.177,213.861,280.587,222.324,289.563z"/>
			<path style="fill:#FFFFFF;stroke:#263238;stroke-linecap:round;stroke-linejoin:round;stroke-miterlimit:10;" d="
				M238.224,344.956c0,0,4.103,6.924,4.103,9.232c0,2.308-7.437,2.052-10.771,2.564c-3.334,0.513-10.515,5.385-13.592,4.103
				c0,0-1.795-1.026,0-3.077c1.795-2.052,10.103-6.057,13.899-10.722L238.224,344.956z"/>
		</g>
		<path style="fill:#263238;" d="M290.384,142.858c0,1.008-1.161,1.946-1.263,2.927c-0.104,1.001,0.837,2.158,0.632,3.126
			c-0.208,0.982-1.538,1.659-1.844,2.601c-0.31,0.953,0.368,2.282-0.036,3.188c-0.407,0.914-1.85,1.297-2.348,2.157
			c-0.5,0.865-0.114,2.306-0.7,3.11c-0.587,0.807-2.078,0.883-2.744,1.622c-0.667,0.74-0.588,2.231-1.328,2.898
			c-0.74,0.667-2.214,0.432-3.02,1.02c-0.804,0.585-1.035,2.06-1.9,2.56c-0.86,0.497-2.253-0.037-3.166,0.37
			c-0.906,0.404-1.439,1.798-2.392,2.108c-0.942,0.306-2.191-0.508-3.173-0.301c-0.967,0.205-1.78,1.457-2.78,1.561
			c-0.981,0.102-2.034-0.954-3.043-0.954c-1.008,0-2.061,1.056-3.042,0.954c-1.001-0.104-1.813-1.356-2.781-1.561
			c-0.982-0.208-2.232,0.606-3.174,0.3c-0.953-0.309-1.486-1.704-2.392-2.108c-0.914-0.408-2.307,0.127-3.166-0.37
			c-0.865-0.5-1.095-1.975-1.9-2.561c-0.807-0.587-2.281-0.353-3.02-1.02c-0.74-0.667-0.661-2.158-1.328-2.898
			c-0.667-0.74-2.157-0.816-2.744-1.622c-0.585-0.804-0.199-2.245-0.699-3.11c-0.497-0.86-1.94-1.243-2.347-2.157
			c-0.404-0.906,0.274-2.235-0.035-3.188c-0.306-0.942-1.636-1.618-1.844-2.6c-0.205-0.967,0.736-2.125,0.632-3.125
			c-0.102-0.981-1.263-1.92-1.263-2.928s1.161-1.946,1.263-2.928c0.104-1.001-0.837-2.158-0.632-3.126
			c0.208-0.982,1.538-1.659,1.844-2.601c0.31-0.953-0.368-2.282,0.036-3.188c0.407-0.914,1.85-1.297,2.348-2.157
			c0.5-0.865,0.114-2.306,0.7-3.11c0.587-0.807,2.078-0.882,2.744-1.622c0.667-0.741,0.588-2.231,1.328-2.898
			c0.74-0.667,2.214-0.433,3.02-1.02c0.804-0.585,1.035-2.06,1.9-2.56c0.86-0.497,2.253,0.037,3.166-0.37
			c0.906-0.404,1.439-1.798,2.392-2.108c0.942-0.306,2.191,0.508,3.173,0.301c0.967-0.205,1.78-1.457,2.78-1.561
			c0.981-0.102,2.034,0.954,3.042,0.954c1.008,0,2.061-1.056,3.042-0.954c1.001,0.104,1.814,1.356,2.781,1.561
			c0.982,0.208,2.233-0.606,3.174-0.3c0.953,0.309,1.486,1.704,2.392,2.108c0.914,0.408,2.307-0.127,3.166,0.37
			c0.865,0.5,1.095,1.975,1.9,2.56c0.807,0.587,2.281,0.353,3.02,1.02c0.741,0.667,0.661,2.158,1.328,2.898
			c0.667,0.74,2.157,0.816,2.744,1.622c0.585,0.804,0.199,2.245,0.699,3.11c0.497,0.86,1.94,1.243,2.347,2.157
			c0.404,0.906-0.274,2.235,0.035,3.188c0.306,0.942,1.636,1.618,1.844,2.6c0.205,0.967-0.736,2.125-0.632,3.125
			C289.223,140.911,290.384,141.85,290.384,142.858z"/>
		<g>
			<g>
				<path style="fill:#FFFFFF;stroke:#263238;stroke-linecap:round;stroke-linejoin:round;stroke-miterlimit:10;" d="
					M238.945,181.164c0,0-9.99,22.178-14.985,34.166c-4.995,11.988-1.227,22.239,1.998,23.377c3.397,1.199,27.928-7.524,33.767-9.79
					c5.538-2.15,5.594-1.998,5.594-1.998s0.4,18.582,0.4,20.779c0,2.198-3.996,10.19-3.596,12.588
					c0.4,2.398,5.794,6.993,21.778,8.591c15.984,1.598,25.175-2.198,26.774-4.396c1.598-2.198,1.598-4.995,1.598-9.391
					c0-4.396-2.198-29.371-5.395-48.951c-3.197-19.581-11.588-27.972-15.585-30.17c-3.996-2.198-10.789,0.799-17.583,5.395
					c-6.793,4.595-10.59,13.587-11.589,15.984c-0.999,2.398-20.18,18.382-21.579,19.78c-1.399,1.399,2.797-34.366,2.797-34.366
					L238.945,181.164z"/>
				
					<line style="fill:none;stroke:#263238;stroke-linecap:round;stroke-linejoin:round;stroke-miterlimit:10;" x1="237.278" y1="184.911" x2="242.777" y2="186.836"/>
				<path style="fill:#FFFFFF;stroke:#263238;stroke-linecap:round;stroke-linejoin:round;stroke-miterlimit:10;" d="
					M240.543,217.128c0,0-0.599,6.194-1.598,9.59"/>
			</g>
			
				<line style="fill:none;stroke:#263238;stroke-linecap:round;stroke-linejoin:round;stroke-miterlimit:10;" x1="265.319" y1="226.918" x2="262.921" y2="210.335"/>
		</g>
		<g>
			<path style="fill:#FFFFFF;stroke:#263238;stroke-linecap:round;stroke-linejoin:round;stroke-miterlimit:10;" d="
				M269.515,182.163c0,0-5.794,13.986-4.596,13.986c1.199,0,3.796-4.396,3.796-4.396l3.397,6.793c0,0,0.599-15.984,0.2-16.584
				C271.912,181.363,270.314,179.965,269.515,182.163z"/>
			<g>
				<defs>
					<path id="XMLID_3_" d="M263.521,175.569c0,0,6.194,8.591,6.793,10.989c0.599,2.398,1.199,13.986,1.798,11.988
						c0.599-1.998,12.188-22.378,12.388-23.377c0.2-0.999-3.397-7.393-3.397-7.393s-7.992,5.794-11.788,6.793
						C265.519,175.569,263.521,175.569,263.521,175.569z"/>
				</defs>
				<use xlink:href="#XMLID_3_"  style="overflow:visible;fill:#FFFFFF;"/>
				<clipPath id="XMLID_00000065763823158386679480000007281200043036799662_">
					<use xlink:href="#XMLID_3_"  style="overflow:visible;"/>
				</clipPath>
				<path style="opacity:0.1;clip-path:url(#XMLID_00000065763823158386679480000007281200043036799662_);" d="M263.521,175.569
					c0,0,6.194,8.591,6.793,10.989c0.599,2.398,1.199,13.986,1.798,11.988c0.599-1.998,12.188-22.378,12.388-23.377
					c0.2-0.999-3.397-7.393-3.397-7.393s-7.992,5.794-11.788,6.793C265.519,175.569,263.521,175.569,263.521,175.569z"/>
				
					<use xlink:href="#XMLID_3_"  style="overflow:visible;fill:none;stroke:#263238;stroke-linecap:round;stroke-linejoin:round;stroke-miterlimit:10;"/>
			</g>
			<polygon style="fill:#FFFFFF;stroke:#263238;stroke-linecap:round;stroke-linejoin:round;stroke-miterlimit:10;" points="
				273.111,189.355 272.112,198.546 276.908,192.153 			"/>
			<polygon style="fill:#FFFFFF;stroke:#263238;stroke-linecap:round;stroke-linejoin:round;stroke-miterlimit:10;" points="
				273.111,189.355 277.107,195.15 291.097,175.366 285.702,170.771 			"/>
		</g>
		<g>
			<g>
				<defs>
					<path id="XMLID_2_" d="M278.077,152.86c0,0,0.999-5.195,3.197-4.795c2.198,0.4,1.998,4.396,0.799,7.193
						c-1.199,2.797-1.598,3.397-1.598,3.397L278.077,152.86z"/>
				</defs>
				<use xlink:href="#XMLID_2_"  style="overflow:visible;fill:#FFFFFF;"/>
				<clipPath id="XMLID_00000042723598316603106600000007247214666373790896_">
					<use xlink:href="#XMLID_2_"  style="overflow:visible;"/>
				</clipPath>
				<path style="opacity:0.1;clip-path:url(#XMLID_00000042723598316603106600000007247214666373790896_);" d="M278.077,152.86
					c0,0,0.999-5.195,3.197-4.795c2.198,0.4,1.998,4.396,0.799,7.193c-1.199,2.797-1.598,3.397-1.598,3.397L278.077,152.86z"/>
				
					<use xlink:href="#XMLID_2_"  style="overflow:visible;fill:none;stroke:#263238;stroke-linecap:round;stroke-linejoin:round;stroke-miterlimit:10;"/>
			</g>
			<g>
				<defs>
					<path id="XMLID_4_" d="M251.503,160.653c0,0-3.197-2.997-3.796,1.199c-0.599,4.196,6.194,4.995,6.194,4.995L251.503,160.653z"
						/>
				</defs>
				<use xlink:href="#XMLID_4_"  style="overflow:visible;fill:#FFFFFF;"/>
				<clipPath id="XMLID_00000083056149736840510080000009269350409426215567_">
					<use xlink:href="#XMLID_4_"  style="overflow:visible;"/>
				</clipPath>
				<path style="opacity:0.1;clip-path:url(#XMLID_00000083056149736840510080000009269350409426215567_);" d="M251.503,160.653
					c0,0-3.197-2.997-3.796,1.199c-0.599,4.196,6.194,4.995,6.194,4.995L251.503,160.653z"/>
				
					<use xlink:href="#XMLID_4_"  style="overflow:visible;fill:none;stroke:#263238;stroke-linecap:round;stroke-linejoin:round;stroke-miterlimit:10;"/>
			</g>
			<g>
				<g>
					<defs>
						<path id="XMLID_1_" d="M246.908,148.465c0,0,8.791,24.176,11.988,27.773c3.197,3.596,11.788,5.594,18.781,0.2
							c6.993-5.395,4.795-11.389,3.197-16.184c-1.598-4.795-8.192-21.379-9.191-23.577c-0.999-2.198-5.794-3.397-8.192-1.598
							c-2.398,1.798-1.399,3.996-5.395,4.995c-3.996,0.999-8.791-0.599-10.989,2.398
							C244.91,145.468,246.908,148.465,246.908,148.465z"/>
					</defs>
					<use xlink:href="#XMLID_1_"  style="overflow:visible;fill:#FFFFFF;"/>
					<clipPath id="XMLID_00000116957388034184299800000016167361924306950073_">
						<use xlink:href="#XMLID_1_"  style="overflow:visible;"/>
					</clipPath>
					<path style="opacity:0.1;clip-path:url(#XMLID_00000116957388034184299800000016167361924306950073_);" d="M246.908,148.465
						c0,0,8.791,24.176,11.988,27.773c3.197,3.596,11.788,5.594,18.781,0.2c6.993-5.395,4.795-11.389,3.197-16.184
						c-1.598-4.795-8.192-21.379-9.191-23.577c-0.999-2.198-5.794-3.397-8.192-1.598c-2.398,1.798-1.399,3.996-5.395,4.995
						c-3.996,0.999-8.791-0.599-10.989,2.398C244.91,145.468,246.908,148.465,246.908,148.465z"/>
					
						<use xlink:href="#XMLID_1_"  style="overflow:visible;fill:none;stroke:#263238;stroke-linecap:round;stroke-linejoin:round;stroke-miterlimit:10;"/>
				</g>
				<g>
					<g>
						<path style="fill:#FFFFFF;stroke:#263238;stroke-linecap:round;stroke-linejoin:round;stroke-miterlimit:10;" d="
							M261.163,160.104l-6.496,2.385c-1.619,0.594-3.413-0.236-4.008-1.855l-1.044-2.844c-0.287-0.782,0.114-1.648,0.896-1.935
							l9.529-3.498c0.782-0.287,1.648,0.114,1.935,0.896l1.044,2.844C263.613,157.715,262.782,159.509,261.163,160.104z"/>
						<path style="fill:#FFFFFF;stroke:#263238;stroke-linecap:round;stroke-linejoin:round;stroke-miterlimit:10;" d="
							M276.669,154.411l-6.496,2.385c-1.619,0.594-3.413-0.236-4.008-1.855l-1.044-2.844c-0.287-0.782,0.114-1.648,0.896-1.935
							l9.529-3.498c0.782-0.287,1.648,0.114,1.935,0.896l1.044,2.844C279.119,152.023,278.288,153.817,276.669,154.411z"/>
						<g>
							
								<line style="fill:none;stroke:#263238;stroke-width:0.5;stroke-linecap:round;stroke-linejoin:round;stroke-miterlimit:10;" x1="254.092" y1="162.668" x2="256.874" y2="155.794"/>
							
								<line style="fill:none;stroke:#263238;stroke-width:0.5;stroke-linecap:round;stroke-linejoin:round;stroke-miterlimit:10;" x1="259.002" y1="153.666" x2="256.874" y2="159.067"/>
						</g>
						<g>
							
								<line style="fill:none;stroke:#263238;stroke-width:0.5;stroke-linecap:round;stroke-linejoin:round;stroke-miterlimit:10;" x1="269.804" y1="156.612" x2="272.586" y2="149.738"/>
							
								<line style="fill:none;stroke:#263238;stroke-width:0.5;stroke-linecap:round;stroke-linejoin:round;stroke-miterlimit:10;" x1="274.714" y1="147.61" x2="272.586" y2="153.011"/>
						</g>
						
							<line style="fill:none;stroke:#263238;stroke-linecap:round;stroke-linejoin:round;stroke-miterlimit:10;" x1="259.882" y1="152.414" x2="266.174" y2="150.104"/>
						<path style="fill:none;stroke:#263238;stroke-linecap:round;stroke-linejoin:round;stroke-miterlimit:10;" d="
							M262.033,153.409c0,0,1.183-0.944,3.146-1.155"/>
					</g>
					<path style="fill:none;stroke:#263238;stroke-linecap:round;stroke-linejoin:round;stroke-miterlimit:10;" d="M265.477,147.95
						c0,0,2.598-4.082,7.793-3.155"/>
					<path style="fill:none;stroke:#263238;stroke-linecap:round;stroke-linejoin:round;stroke-miterlimit:10;" d="M259.724,150.733
						c0,0-3.897-3.526-8.35,0.371"/>
					<path style="fill:none;stroke:#263238;stroke-linecap:round;stroke-linejoin:round;stroke-miterlimit:10;" d="M262.986,161.699
						c0,0,0.506,1.987,0.942,2.17c1.531,0.643,6.508-0.618,6.419-2.863c-0.03-0.746-0.725-2.08-0.725-2.08"/>
					<path style="fill:none;stroke:#263238;stroke-linecap:round;stroke-linejoin:round;stroke-miterlimit:10;" d="M265.64,168.531
						c0,0,3.89,0.37,6.298-2.594"/>
				</g>
			</g>
		</g>
		<g>
			<defs>
				<path id="XMLID_11_" d="M233.592,219.103c0,0-2.779,31.121-14.171,62.243c-11.393,31.122-62.243,73.08-62.243,73.08
					l9.725,25.008c0,0,36.401-27.509,53.629-68.078c17.228-40.569,17.784-91.419,17.784-91.419L233.592,219.103z"/>
			</defs>
			<use xlink:href="#XMLID_11_"  style="overflow:visible;fill:#FFFFFF;"/>
			<clipPath id="XMLID_00000103965868584819500400000002952720160459751591_">
				<use xlink:href="#XMLID_11_"  style="overflow:visible;"/>
			</clipPath>
			<path style="opacity:0.1;clip-path:url(#XMLID_00000103965868584819500400000002952720160459751591_);" d="M217.416,286.105
				l7.568,13.523c12.876-38,13.332-79.691,13.332-79.691l-4.724-0.834c0,0-2.779,31.121-14.171,62.243
				C218.85,282.907,218.175,284.496,217.416,286.105z"/>
			
				<use xlink:href="#XMLID_11_"  style="overflow:visible;fill:none;stroke:#263238;stroke-linecap:round;stroke-linejoin:round;stroke-miterlimit:10;"/>
		</g>
		<g>
			<path style="fill:#263238;stroke:#263238;stroke-linecap:round;stroke-linejoin:round;stroke-miterlimit:10;" d="
				M188.022,274.749c0,0-4.363,4.156-2.285,9.558c2.078,5.402,37.816,65.243,37.816,65.243l8.311-1.87
				c0,0-16.622-54.439-19.739-61.087c-3.117-6.649-5.61-10.805-7.688-12.259"/>
			<path style="fill:#FFFFFF;stroke:#263238;stroke-linecap:round;stroke-linejoin:round;stroke-miterlimit:10;" d="M223.552,349.55
				c0,0-10.597,7.272-15.168,9.142c-4.571,1.87-3.117,4.156,0,4.156s14.96-1.454,19.947-2.078c4.987-0.623,7.688-0.208,7.896-2.909
				c0.208-2.701-4.363-10.805-4.363-10.805L223.552,349.55z"/>
		</g>
		<g>
			<g>
				<defs>
					<path id="XMLID_5_" d="M243.141,162.182c0,0,0-5.195,1.199-6.194c1.199-0.999,6.993-3.796,8.192-3.197
						c1.199,0.599,0.2,1.399-0.599,1.998c-0.799,0.599-4.553,3.085-4.553,3.085l0.557,5.706L243.141,162.182z"/>
				</defs>
				<use xlink:href="#XMLID_5_"  style="overflow:visible;fill:#FFFFFF;"/>
				<clipPath id="XMLID_00000140724116967301625390000013794881847252639623_">
					<use xlink:href="#XMLID_5_"  style="overflow:visible;"/>
				</clipPath>
				<path style="opacity:0.1;clip-path:url(#XMLID_00000140724116967301625390000013794881847252639623_);" d="M243.141,162.182
					c0,0,0-5.195,1.199-6.194c1.199-0.999,6.993-3.796,8.192-3.197c1.199,0.599,0.2,1.399-0.599,1.998
					c-0.799,0.599-4.553,3.085-4.553,3.085l0.557,5.706L243.141,162.182z"/>
				
					<use xlink:href="#XMLID_5_"  style="overflow:visible;fill:none;stroke:#263238;stroke-linecap:round;stroke-linejoin:round;stroke-miterlimit:10;"/>
			</g>
			<g>
				<defs>
					<path id="XMLID_6_" d="M252.146,169.165c0,0,2.997,0,3.596-0.799c0.599-0.799,4.196-4.995,4.396-5.794
						c0.2-0.799,0-1.598-2.198-0.799c-2.198,0.799-2.797,2.797-2.797,2.797l-2.797,0.2L252.146,169.165z"/>
				</defs>
				<use xlink:href="#XMLID_6_"  style="overflow:visible;fill:#FFFFFF;"/>
				<clipPath id="XMLID_00000168088302196174332360000006867061913355865236_">
					<use xlink:href="#XMLID_6_"  style="overflow:visible;"/>
				</clipPath>
				<path style="opacity:0.1;clip-path:url(#XMLID_00000168088302196174332360000006867061913355865236_);" d="M252.146,169.165
					c0,0,2.997,0,3.596-0.799c0.599-0.799,4.196-4.995,4.396-5.794c0.2-0.799,0-1.598-2.198-0.799
					c-2.198,0.799-2.797,2.797-2.797,2.797l-2.797,0.2L252.146,169.165z"/>
				
					<use xlink:href="#XMLID_6_"  style="overflow:visible;fill:none;stroke:#263238;stroke-linecap:round;stroke-linejoin:round;stroke-miterlimit:10;"/>
			</g>
			<g>
				<g>
					<defs>
						<path id="XMLID_7_" d="M238.945,181.164c0,0,2.198-11.389,2.597-14.386c0.4-2.997,0-4.396,1.598-4.596
							c1.598-0.2,6.593,0.4,7.992,0.6c1.399,0.2,2.797,0.2,2.398,2.398s0.799,6.993-0.599,8.392
							c-1.399,1.399-3.597,1.399-3.597,1.399s0.799,1.998-1.598,3.197c-2.398,1.199-3.197,1.399-3.197,1.399l-1.199,3.197
							L238.945,181.164z"/>
					</defs>
					<use xlink:href="#XMLID_7_"  style="overflow:visible;fill:#FFFFFF;"/>
					<clipPath id="XMLID_00000163066477712504961740000011794696198365734567_">
						<use xlink:href="#XMLID_7_"  style="overflow:visible;"/>
					</clipPath>
					<path style="opacity:0.1;clip-path:url(#XMLID_00000163066477712504961740000011794696198365734567_);" d="M238.945,181.164
						c0,0,2.198-11.389,2.597-14.386c0.4-2.997,0-4.396,1.598-4.596c1.598-0.2,6.593,0.4,7.992,0.6c1.399,0.2,2.797,0.2,2.398,2.398
						s0.799,6.993-0.599,8.392c-1.399,1.399-3.597,1.399-3.597,1.399s0.799,1.998-1.598,3.197c-2.398,1.199-3.197,1.399-3.197,1.399
						l-1.199,3.197L238.945,181.164z"/>
					
						<use xlink:href="#XMLID_7_"  style="overflow:visible;fill:none;stroke:#263238;stroke-linecap:round;stroke-linejoin:round;stroke-miterlimit:10;"/>
				</g>
				<polyline style="fill:none;stroke:#263238;stroke-linecap:round;stroke-linejoin:round;stroke-miterlimit:10;" points="
					249.335,174.97 248.935,171.173 246.338,170.774 				"/>
				<path style="fill:none;stroke:#263238;stroke-linecap:round;stroke-linejoin:round;stroke-miterlimit:10;" d="M246.564,167.118
					c0,0,5.301,0.272,5.981,0.68c0.68,0.408,0.816,4.486,0.816,4.486"/>
				
					<line style="fill:none;stroke:#263238;stroke-linecap:round;stroke-linejoin:round;stroke-miterlimit:10;" x1="246.428" y1="164.536" x2="253.531" y2="165.179"/>
			</g>
		</g>
		<g>
			<path style="fill:#263238;stroke:#263238;stroke-linecap:round;stroke-linejoin:round;stroke-miterlimit:10;" d="M283.9,268.877
				c-12.881-1.288-18.878-4.522-20.933-6.984l-1.807,2.259l0.208,1.662c0,0-24.726-3.74-44.049-1.454
				c-19.324,2.286-30.959,8.104-31.79,15.168l9.973,4.571c14.753,8.727,47.582,10.597,59.01,11.428
				c11.428,0.831,33.245,0,41.556-1.247c8.311-1.247,12.051-4.779,12.882-11.636c0.686-5.663,0.806-14.436,0.827-17.323
				C306.788,267.506,297.986,270.285,283.9,268.877z"/>
			<g>
				
					<line style="fill:none;stroke:#FFFFFF;stroke-linecap:round;stroke-linejoin:round;stroke-miterlimit:10;" x1="262.199" y1="266.853" x2="275.082" y2="278.281"/>
				
					<line style="fill:none;stroke:#FFFFFF;stroke-linecap:round;stroke-linejoin:round;stroke-miterlimit:10;" x1="264.277" y1="267.476" x2="273.627" y2="271.009"/>
			</g>
		</g>
		<g>
			<g>
				<path style="fill:#FFFFFF;stroke:#263238;stroke-linecap:round;stroke-linejoin:round;stroke-miterlimit:10;" d="
					M218.765,219.725c0,0-15.984,5.195-20.979,11.988l-19.581-34.766c0,0,14.186-3.996,29.571-2.797
					c15.385,1.199,25.575,11.988,29.77,18.981L218.765,219.725z"/>
				<g>
					
						<line style="fill:none;stroke:#263238;stroke-linecap:round;stroke-linejoin:round;stroke-miterlimit:10;" x1="193.35" y1="200.419" x2="203.203" y2="218.484"/>
					
						<line style="fill:none;stroke:#263238;stroke-linecap:round;stroke-linejoin:round;stroke-miterlimit:10;" x1="202.793" y1="198.777" x2="211.415" y2="215.199"/>
					
						<line style="fill:none;stroke:#263238;stroke-linecap:round;stroke-linejoin:round;stroke-miterlimit:10;" x1="212.236" y1="198.366" x2="219.626" y2="212.736"/>
				</g>
			</g>
			<g>
				<g>
					<path style="fill:#FFFFFF;stroke:#263238;stroke-linecap:round;stroke-linejoin:round;stroke-miterlimit:10;" d="
						M285.299,195.35c0,0-2.198,5.594-1.798,8.991c0.4,3.397,1.599,25.774,1.599,25.774s-18.182-1.199-25.375-3.796
						c-7.193-2.597-13.387-5.594-13.387-5.594l-1.598,6.394c0,0,12.787,11.389,23.577,15.784
						c10.789,4.396,31.569,8.592,33.966,7.592c2.398-0.999,4.595-23.177,4.396-31.769c-0.2-8.591,0.2-17.782-3.796-24.176"/>
					
						<line style="fill:none;stroke:#263238;stroke-linecap:round;stroke-linejoin:round;stroke-miterlimit:10;" x1="250.75" y1="222.853" x2="249.1" y2="230.552"/>
					<path style="fill:#FFFFFF;stroke:#263238;stroke-linecap:round;stroke-linejoin:round;stroke-miterlimit:10;" d="
						M285.099,230.115c0,0,4.795,5.794,7.393,7.393"/>
				</g>
				<g>
					<defs>
						<path id="XMLID_8_" d="M246.338,220.724c0,0-3.796-2.398-6.394-5.395c-2.597-2.997-4.196-2.997-7.792-3.197
							c-3.596-0.2-7.393-3.397-8.392-3.197c-0.999,0.2-1.199,1.998-0.2,2.997c0.999,0.999,5.994,3.596,5.994,3.596l-10.789,4.196
							c0,0,0.599,0.799,1.998,1.399c1.399,0.599,2.797,0,3.397,0.599c0.599,0.599,4.196,1.798,6.394,2.598
							c2.198,0.799,9.391-0.4,9.391-0.4l4.795,3.197L246.338,220.724z"/>
					</defs>
					<use xlink:href="#XMLID_8_"  style="overflow:visible;fill:#FFFFFF;"/>
					<clipPath id="XMLID_00000089571836098366989560000007778866841764772487_">
						<use xlink:href="#XMLID_8_"  style="overflow:visible;"/>
					</clipPath>
					<path style="opacity:0.1;clip-path:url(#XMLID_00000089571836098366989560000007778866841764772487_);" d="M246.338,220.724
						c0,0-3.796-2.398-6.394-5.395c-2.597-2.997-4.196-2.997-7.792-3.197c-3.596-0.2-7.393-3.397-8.392-3.197
						c-0.999,0.2-1.199,1.998-0.2,2.997c0.999,0.999,5.994,3.596,5.994,3.596l-10.789,4.196c0,0,0.599,0.799,1.998,1.399
						c1.399,0.599,2.797,0,3.397,0.599c0.599,0.599,4.196,1.798,6.394,2.598c2.198,0.799,9.391-0.4,9.391-0.4l4.795,3.197
						L246.338,220.724z"/>
					
						<use xlink:href="#XMLID_8_"  style="overflow:visible;fill:none;stroke:#263238;stroke-linecap:round;stroke-linejoin:round;stroke-miterlimit:10;"/>
				</g>
			</g>
		</g>
	</g>
</g>
<g id="Books">
	<g>
		<g>
			<g>
				<g>
					<path style="fill:#FFFFFF;stroke:#263238;stroke-linecap:round;stroke-linejoin:round;stroke-miterlimit:10;" d="
						M236.371,297.962c0,0,6.113,11.948,0,26.12h92.253c0,0,11.393-2.779,11.393-13.06c0,0-1.945-9.17-11.115-12.782
						L236.371,297.962z"/>
					<path style="opacity:0.25;" d="M333.033,300.179c-4.021-2.181-7.697-1.95-12.323-1.964c-2.907-0.009-5.814-0.017-8.721-0.026
						c-7.57-0.023-15.14-0.046-22.71-0.068c-14.723-0.044-29.447-0.088-44.17-0.133c-0.721-0.002-7.876,0.593-8.193-0.026
						c0,0,1.026,2.008,1.817,5.35h92.114v19.936c0,0,8.336-2.501,9.17-12.226c0.388-4.527-2.469-8.071-6.131-10.347
						C333.599,300.497,333.315,300.332,333.033,300.179z"/>
					
						<line style="fill:none;stroke:#263238;stroke-linecap:round;stroke-linejoin:round;stroke-miterlimit:10;" x1="330.868" y1="300.925" x2="330.868" y2="321.461"/>
					
						<line style="fill:none;stroke:#263238;stroke-linecap:round;stroke-linejoin:round;stroke-miterlimit:10;" x1="238.876" y1="304.353" x2="253.043" y2="304.353"/>
					
						<line style="fill:none;stroke:#263238;stroke-linecap:round;stroke-linejoin:round;stroke-miterlimit:10;" x1="243.318" y1="306.298" x2="259.156" y2="306.298"/>
					
						<line style="fill:none;stroke:#263238;stroke-linecap:round;stroke-linejoin:round;stroke-miterlimit:10;" x1="238.872" y1="315.746" x2="265.27" y2="315.746"/>
					
						<line style="fill:none;stroke:#263238;stroke-linecap:round;stroke-linejoin:round;stroke-miterlimit:10;" x1="330.569" y1="305.465" x2="318.621" y2="305.465"/>
					
						<line style="fill:none;stroke:#263238;stroke-linecap:round;stroke-linejoin:round;stroke-miterlimit:10;" x1="330.013" y1="308.799" x2="303.894" y2="308.799"/>
					
						<line style="fill:none;stroke:#263238;stroke-linecap:round;stroke-linejoin:round;stroke-miterlimit:10;" x1="301.115" y1="308.799" x2="292.223" y2="308.799"/>
					
						<line style="fill:none;stroke:#263238;stroke-linecap:round;stroke-linejoin:round;stroke-miterlimit:10;" x1="314.175" y1="314.357" x2="330.569" y2="314.357"/>
					
						<line style="fill:none;stroke:#263238;stroke-linecap:round;stroke-linejoin:round;stroke-miterlimit:10;" x1="238.316" y1="319.358" x2="248.875" y2="319.358"/>
				</g>
				<g>
					<path style="fill:#263238;" d="M325.151,327.694h-92.67c-1.535,0-2.779-1.244-2.779-2.779s1.244-2.779,2.779-2.779h92.67
						c6.358,0,11.532-4.799,11.532-10.698c0-5.899-5.173-10.698-11.532-10.698h-91.836c-1.535,0-2.779-1.244-2.779-2.779
						s1.244-2.779,2.779-2.779h91.836c9.423,0,17.089,7.292,17.089,16.255S334.573,327.694,325.151,327.694z"/>
				</g>
			</g>
			<g>
				<g>
					<path style="fill:#FFFFFF;stroke:#263238;stroke-linecap:round;stroke-linejoin:round;stroke-miterlimit:10;" d="
						M335.571,330.195c0,0-6.113,11.948,0,26.12h-92.253c0,0-11.393-2.779-11.393-13.06c0,0,1.945-9.17,11.115-12.782
						L335.571,330.195z"/>
					<path style="opacity:0.25;" d="M238.909,332.412c4.021-2.181,7.696-1.95,12.324-1.964c2.907-0.009,5.814-0.017,8.721-0.026
						c7.57-0.023,15.14-0.045,22.71-0.068c14.723-0.044,29.447-0.088,44.17-0.133c0.721-0.002,7.876,0.593,8.193-0.026
						c0,0-1.026,2.008-1.817,5.35h-92.114v19.936c0,0-8.336-2.501-9.17-12.226c-0.388-4.527,2.469-8.071,6.131-10.347
						C238.343,332.73,238.627,332.565,238.909,332.412z"/>
					
						<line style="fill:none;stroke:#263238;stroke-linecap:round;stroke-linejoin:round;stroke-miterlimit:10;" x1="240.823" y1="334.598" x2="240.823" y2="352.636"/>
					
						<line style="fill:none;stroke:#263238;stroke-linecap:round;stroke-linejoin:round;stroke-miterlimit:10;" x1="333.065" y1="336.586" x2="318.899" y2="336.586"/>
					
						<line style="fill:none;stroke:#263238;stroke-linecap:round;stroke-linejoin:round;stroke-miterlimit:10;" x1="328.624" y1="338.531" x2="312.785" y2="338.531"/>
					
						<line style="fill:none;stroke:#263238;stroke-linecap:round;stroke-linejoin:round;stroke-miterlimit:10;" x1="333.07" y1="347.979" x2="306.672" y2="347.979"/>
					
						<line style="fill:none;stroke:#263238;stroke-linecap:round;stroke-linejoin:round;stroke-miterlimit:10;" x1="241.373" y1="337.698" x2="253.321" y2="337.698"/>
					
						<line style="fill:none;stroke:#263238;stroke-linecap:round;stroke-linejoin:round;stroke-miterlimit:10;" x1="241.929" y1="341.032" x2="268.048" y2="341.032"/>
					
						<line style="fill:none;stroke:#263238;stroke-linecap:round;stroke-linejoin:round;stroke-miterlimit:10;" x1="270.827" y1="341.032" x2="279.719" y2="341.032"/>
					
						<line style="fill:none;stroke:#263238;stroke-linecap:round;stroke-linejoin:round;stroke-miterlimit:10;" x1="257.767" y1="346.59" x2="241.373" y2="346.59"/>
					
						<line style="fill:none;stroke:#263238;stroke-linecap:round;stroke-linejoin:round;stroke-miterlimit:10;" x1="333.626" y1="351.591" x2="323.067" y2="351.591"/>
				</g>
				<g>
					<path style="fill:#C6FF00;stroke:#263238;stroke-linecap:round;stroke-linejoin:round;stroke-miterlimit:10;" d="
						M246.791,359.927h92.67c1.535,0,2.779-1.244,2.779-2.779c0-1.535-1.244-2.779-2.779-2.779h-92.67
						c-6.358,0-11.532-4.799-11.532-10.698c0-5.899,5.173-10.698,11.532-10.698h91.836c1.535,0,2.779-1.244,2.779-2.779
						c0-1.535-1.244-2.779-2.779-2.779h-91.836c-9.423,0-17.089,7.292-17.089,16.255
						C229.702,352.635,237.369,359.927,246.791,359.927z"/>
				</g>
			</g>
		</g>
		<g>
			<g>
				<g>
					<path style="fill:#FFFFFF;stroke:#263238;stroke-linecap:round;stroke-linejoin:round;stroke-miterlimit:10;" d="
						M236.371,362.577c0,0,6.113,11.948,0,26.12h92.253c0,0,11.393-2.779,11.393-13.06c0,0-1.945-9.17-11.115-12.782
						L236.371,362.577z"/>
					<path style="opacity:0.25;" d="M333.033,364.794c-4.021-2.181-7.697-1.95-12.323-1.964c-2.907-0.009-5.814-0.017-8.721-0.026
						c-7.57-0.023-15.14-0.045-22.71-0.068c-14.723-0.044-29.447-0.088-44.17-0.133c-0.721-0.002-7.876,0.593-8.193-0.026
						c0,0,1.026,2.008,1.817,5.35h92.114v19.936c0,0,8.336-2.501,9.17-12.226c0.388-4.527-2.469-8.071-6.131-10.347
						C333.599,365.112,333.315,364.947,333.033,364.794z"/>
					
						<line style="fill:none;stroke:#263238;stroke-linecap:round;stroke-linejoin:round;stroke-miterlimit:10;" x1="330.868" y1="365.54" x2="330.868" y2="386.076"/>
					
						<line style="fill:none;stroke:#263238;stroke-linecap:round;stroke-linejoin:round;stroke-miterlimit:10;" x1="238.876" y1="368.968" x2="253.043" y2="368.968"/>
					
						<line style="fill:none;stroke:#263238;stroke-linecap:round;stroke-linejoin:round;stroke-miterlimit:10;" x1="243.318" y1="370.913" x2="259.156" y2="370.913"/>
					
						<line style="fill:none;stroke:#263238;stroke-linecap:round;stroke-linejoin:round;stroke-miterlimit:10;" x1="238.872" y1="380.361" x2="265.27" y2="380.361"/>
					
						<line style="fill:none;stroke:#263238;stroke-linecap:round;stroke-linejoin:round;stroke-miterlimit:10;" x1="330.569" y1="370.079" x2="318.621" y2="370.079"/>
					
						<line style="fill:none;stroke:#263238;stroke-linecap:round;stroke-linejoin:round;stroke-miterlimit:10;" x1="330.013" y1="373.414" x2="303.894" y2="373.414"/>
					
						<line style="fill:none;stroke:#263238;stroke-linecap:round;stroke-linejoin:round;stroke-miterlimit:10;" x1="301.115" y1="373.414" x2="292.223" y2="373.414"/>
					
						<line style="fill:none;stroke:#263238;stroke-linecap:round;stroke-linejoin:round;stroke-miterlimit:10;" x1="314.175" y1="378.971" x2="330.569" y2="378.971"/>
					
						<line style="fill:none;stroke:#263238;stroke-linecap:round;stroke-linejoin:round;stroke-miterlimit:10;" x1="238.316" y1="383.973" x2="248.875" y2="383.973"/>
				</g>
				<g>
					<path style="fill:#263238;" d="M325.151,392.309h-92.67c-1.535,0-2.779-1.244-2.779-2.779s1.244-2.779,2.779-2.779h92.67
						c6.358,0,11.532-4.799,11.532-10.698c0-5.899-5.173-10.698-11.532-10.698h-91.836c-1.535,0-2.779-1.244-2.779-2.779
						s1.244-2.779,2.779-2.779h91.836c9.423,0,17.089,7.292,17.089,16.255S334.573,392.309,325.151,392.309z"/>
				</g>
			</g>
			<g>
				<g>
					<path style="fill:#FFFFFF;stroke:#263238;stroke-linecap:round;stroke-linejoin:round;stroke-miterlimit:10;" d="
						M335.571,394.81c0,0-6.113,11.948,0,26.12h-92.253c0,0-11.393-2.779-11.393-13.06c0,0,1.945-9.17,11.115-12.782L335.571,394.81
						z"/>
					<path style="opacity:0.25;" d="M238.909,397.027c4.021-2.181,7.696-1.95,12.324-1.964c2.907-0.009,5.814-0.017,8.721-0.026
						c7.57-0.023,15.14-0.045,22.71-0.068c14.723-0.044,29.447-0.088,44.17-0.133c0.721-0.002,7.876,0.593,8.193-0.026
						c0,0-1.026,2.008-1.817,5.35h-92.114v19.936c0,0-8.336-2.501-9.17-12.226c-0.388-4.527,2.469-8.071,6.131-10.347
						C238.343,397.345,238.627,397.18,238.909,397.027z"/>
					
						<line style="fill:none;stroke:#263238;stroke-linecap:round;stroke-linejoin:round;stroke-miterlimit:10;" x1="240.823" y1="399.213" x2="240.823" y2="417.251"/>
					
						<line style="fill:none;stroke:#263238;stroke-linecap:round;stroke-linejoin:round;stroke-miterlimit:10;" x1="333.065" y1="401.201" x2="318.899" y2="401.201"/>
					
						<line style="fill:none;stroke:#263238;stroke-linecap:round;stroke-linejoin:round;stroke-miterlimit:10;" x1="328.624" y1="403.146" x2="312.785" y2="403.146"/>
					
						<line style="fill:none;stroke:#263238;stroke-linecap:round;stroke-linejoin:round;stroke-miterlimit:10;" x1="333.07" y1="412.594" x2="306.672" y2="412.594"/>
					
						<line style="fill:none;stroke:#263238;stroke-linecap:round;stroke-linejoin:round;stroke-miterlimit:10;" x1="241.373" y1="402.312" x2="253.321" y2="402.312"/>
					
						<line style="fill:none;stroke:#263238;stroke-linecap:round;stroke-linejoin:round;stroke-miterlimit:10;" x1="241.929" y1="405.647" x2="268.048" y2="405.647"/>
					
						<line style="fill:none;stroke:#263238;stroke-linecap:round;stroke-linejoin:round;stroke-miterlimit:10;" x1="270.827" y1="405.647" x2="279.719" y2="405.647"/>
					
						<line style="fill:none;stroke:#263238;stroke-linecap:round;stroke-linejoin:round;stroke-miterlimit:10;" x1="257.767" y1="411.204" x2="241.373" y2="411.204"/>
					
						<line style="fill:none;stroke:#263238;stroke-linecap:round;stroke-linejoin:round;stroke-miterlimit:10;" x1="333.626" y1="416.206" x2="323.067" y2="416.206"/>
				</g>
				<g>
					<path style="fill:#C6FF00;stroke:#263238;stroke-linecap:round;stroke-linejoin:round;stroke-miterlimit:10;" d="
						M246.791,424.542h92.67c1.535,0,2.779-1.244,2.779-2.779c0-1.535-1.244-2.779-2.779-2.779h-92.67
						c-6.358,0-11.532-4.799-11.532-10.698c0-5.899,5.173-10.698,11.532-10.698h91.836c1.535,0,2.779-1.244,2.779-2.779
						c0-1.535-1.244-2.779-2.779-2.779h-91.836c-9.423,0-17.089,7.292-17.089,16.255
						C229.702,417.25,237.369,424.542,246.791,424.542z"/>
				</g>
			</g>
		</g>
	</g>
</g>
<g id="Plants">
	<g>
		<path style="fill:#263238;" d="M380.327,281.91c2.221,0.97,7.655,0.848,7.659,0.848c0.056-0.001-1.168-3.557-1.271-3.772
			c-1.192-2.494-4.962-6.612-8.03-6.197c-2.21,0.299-3.439,2.511-2.94,4.591C376.255,279.504,378.435,281.083,380.327,281.91z"/>
		<path style="fill:#263238;" d="M451.501,263.415c-3.078-0.331-6.735,3.886-7.859,6.412c-0.097,0.218-1.225,3.806-1.168,3.805
			c0,0,0.053,0,0.066-0.001c-0.583,0.661-1.199,1.377-1.858,2.173c-1.204,1.479-2.551,3.161-3.893,5.091
			c-1.346,1.925-2.755,4.054-4.036,6.43c-1.288,2.381-2.52,4.95-3.448,7.762c-0.011,0.032-0.017,0.066-0.028,0.098
			c0.016-0.907-0.024-3.444-0.049-3.638c-0.355-2.741-2.653-7.829-5.697-8.392c-2.193-0.405-4.05,1.313-4.225,3.445
			c-0.178,2.178,1.401,4.358,2.941,5.733c1.736,1.551,6.557,3.053,6.941,3.172c-0.859,2.686-1.522,5.512-2.036,8.409
			c-0.296,1.656-0.542,3.333-0.767,5.018c-0.012-0.785-0.028-1.486-0.04-1.584c-0.356-2.741-2.653-7.829-5.697-8.392
			c-2.193-0.405-4.05,1.313-4.225,3.445c-0.179,2.178,1.401,4.358,2.94,5.733c1.563,1.395,5.646,2.759,6.732,3.105
			c-0.08,0.647-0.167,1.293-0.244,1.94c-0.372,3.106-0.728,6.208-1.172,9.239c-0.155,1.069-0.348,2.115-0.537,3.162
			c-0.011-0.696-0.026-1.283-0.037-1.372c-0.355-2.742-2.653-7.829-5.697-8.392c-2.193-0.405-4.05,1.312-4.225,3.445
			c-0.178,2.177,1.401,4.358,2.941,5.733c1.49,1.332,5.249,2.624,6.537,3.042c-0.226,1.067-0.45,2.136-0.717,3.16
			c-0.198,0.695-0.341,1.378-0.578,2.065c-0.221,0.685-0.44,1.364-0.657,2.035c-0.465,1.278-0.937,2.6-1.422,3.835
			c-0.331,0.862-0.662,1.677-0.993,2.499c0.167-1.062,0.452-3.147,0.456-3.324c0.042-1.836-0.61-4.821-1.908-6.92
			c0.008-0.271-0.008-0.541-0.051-0.81c-0.339-2.112-2.324-3.681-4.479-3.108c-2.991,0.796-4.888,6.047-5.03,8.807
			c-0.008,0.163,0.098,1.94,0.184,3.06c-0.151-0.651-0.289-1.284-0.453-1.952c-0.314-1.323-0.666-2.634-1.039-4.047
			c-0.204-0.675-0.411-1.357-0.619-2.047c-0.192-0.688-0.482-1.39-0.723-2.092c-0.592-1.617-1.27-3.228-1.989-4.835
			c1.158-0.278,5.255-1.322,6.901-2.585c1.638-1.257,3.375-3.313,3.36-5.498c-0.015-2.14-1.739-3.992-3.956-3.751
			c-3.078,0.334-5.748,5.237-6.307,7.944c-0.035,0.169-0.217,2.156-0.296,3.25c-0.44-0.963-0.874-1.926-1.351-2.885
			c-1.375-2.77-2.854-5.531-4.317-8.292c-0.448-0.846-0.885-1.693-1.326-2.54c0.413-0.094,5.311-1.231,7.153-2.645
			c1.638-1.257,3.375-3.313,3.36-5.498c-0.016-2.139-1.739-3.991-3.956-3.75c-3.078,0.334-5.748,5.236-6.307,7.943
			c-0.042,0.204-0.3,3.064-0.33,3.795c-0.969-1.866-1.918-3.734-2.778-5.614c-1.191-2.592-2.215-5.201-3.021-7.802
			c0.193-0.044,5.309-1.207,7.197-2.655c1.638-1.257,3.375-3.313,3.359-5.498c-0.015-2.14-1.739-3.991-3.956-3.75
			c-3.078,0.334-5.748,5.236-6.307,7.944c-0.044,0.213-0.32,3.29-0.33,3.851c-0.048-0.155-0.114-0.31-0.16-0.464
			c-0.825-2.788-1.274-5.593-1.566-8.239c-0.173-1.537-0.252-3.016-0.296-4.457c0.975-0.119,5.426-0.711,7.268-1.827
			c1.766-1.069,3.719-2.922,3.943-5.096c0.219-2.128-1.291-4.158-3.521-4.162c-3.096-0.006-6.288,4.574-7.141,7.203
			c-0.046,0.143-0.357,1.649-0.567,2.749c-0.01-0.651-0.033-1.322-0.03-1.945c0.004-2.341,0.152-4.484,0.299-6.381
			c0.092-1.078,0.197-2.051,0.304-2.961c0.896-0.616,4.476-3.143,5.577-4.949c1.075-1.763,1.953-4.307,1.151-6.34
			c-0.786-1.99-3.062-3.096-5.043-2.072c-2.75,1.421-3.473,6.957-3.019,9.684c0.04,0.235,1.078,3.85,1.125,3.818
			c0,0,0.044-0.03,0.054-0.037c-0.121,0.873-0.24,1.811-0.35,2.837c-0.188,1.898-0.384,4.044-0.438,6.394
			c-0.061,2.348-0.061,4.901,0.181,7.59c0.239,2.695,0.629,5.519,1.406,8.376c0.009,0.032,0.022,0.065,0.031,0.097
			c-0.487-0.765-1.92-2.859-2.049-3.007c-1.808-2.091-6.532-5.066-9.381-3.857c-2.052,0.872-2.654,3.329-1.623,5.205
			c1.053,1.915,3.573,2.862,5.615,3.159c2.304,0.336,7.153-1.07,7.539-1.184c0.766,2.715,1.771,5.438,2.941,8.137
			c0.667,1.544,1.387,3.079,2.128,4.609c-0.442-0.648-0.843-1.224-0.907-1.299c-1.809-2.091-6.532-5.066-9.381-3.856
			c-2.053,0.871-2.654,3.329-1.623,5.204c1.052,1.915,3.572,2.862,5.615,3.16c2.073,0.302,6.231-0.814,7.328-1.124
			c0.291,0.584,0.574,1.17,0.867,1.753c1.404,2.796,2.818,5.58,4.12,8.353c0.46,0.977,0.876,1.956,1.297,2.935
			c-0.393-0.575-0.73-1.056-0.789-1.125c-1.809-2.09-6.532-5.066-9.381-3.856c-2.053,0.872-2.654,3.329-1.623,5.204
			c1.053,1.915,3.572,2.862,5.616,3.16c1.978,0.288,5.826-0.707,7.13-1.069c0.4,1.014,0.803,2.03,1.145,3.031
			c0.218,0.689,0.476,1.337,0.657,2.041c0.194,0.693,0.385,1.38,0.575,2.06c0.317,1.323,0.653,2.685,0.93,3.983
			c0.2,0.901,0.373,1.764,0.551,2.632c-0.446-0.978-1.36-2.874-1.454-3.024c-1.47-2.34-5.689-5.997-8.689-5.233
			c-2.161,0.551-3.128,2.889-2.393,4.898c0.751,2.052,3.098,3.37,5.072,3.974c2.174,0.664,6.987,0.057,7.587-0.023
			c0.289,1.438,0.555,2.84,0.786,4.166c0.81,4.597,1.311,8.456,1.622,11.157c0.055,0.48,0.102,0.909,0.146,1.312h-9.316L403.698,424
			h15.875l3.402-66.375h-8.68c0.064-0.133,0.125-0.258,0.192-0.398c1.191-2.481,2.843-6.047,4.626-10.409
			c0.567-1.377,1.145-2.86,1.724-4.389c0.583,0.122,5.347,1.089,7.567,0.588c2.013-0.455,4.452-1.594,5.354-3.585
			c0.883-1.949,0.093-4.353-2.022-5.063c-2.934-0.986-7.413,2.347-9.054,4.571c-0.097,0.131-0.988,1.672-1.535,2.654
			c0.234-0.626,0.467-1.231,0.699-1.878c0.469-1.276,0.898-2.564,1.366-3.948c0.202-0.676,0.407-1.359,0.613-2.049
			c0.219-0.68,0.364-1.426,0.552-2.144c0.399-1.676,0.722-3.393,1.008-5.13c1.119,0.407,5.112,1.797,7.181,1.651
			c2.059-0.145,4.643-0.901,5.835-2.733c1.168-1.793,0.751-4.288-1.231-5.311c-2.751-1.419-7.684,1.197-9.643,3.147
			c-0.122,0.121-1.371,1.678-2.04,2.547c0.164-1.046,0.334-2.088,0.465-3.152c0.381-3.069,0.671-6.188,0.974-9.297
			c0.092-0.953,0.196-1.901,0.296-2.85c0.396,0.149,5.108,1.903,7.425,1.74c2.059-0.144,4.643-0.901,5.835-2.733
			c1.168-1.793,0.751-4.288-1.231-5.31c-2.751-1.419-7.683,1.197-9.642,3.147c-0.148,0.147-1.941,2.39-2.369,2.983
			c0.221-2.091,0.46-4.173,0.78-6.215c0.437-2.819,1.022-5.561,1.784-8.175c0.185,0.07,5.094,1.923,7.467,1.756
			c2.06-0.145,4.643-0.901,5.836-2.733c1.168-1.793,0.751-4.288-1.231-5.311c-2.751-1.419-7.683,1.197-9.642,3.147
			c-0.153,0.153-2.082,2.568-2.4,3.03c0.046-0.155,0.076-0.322,0.124-0.476c0.85-2.781,2.022-5.368,3.238-7.736
			c0.704-1.378,1.454-2.655,2.212-3.881c0.879,0.439,4.918,2.4,7.07,2.486c2.063,0.082,4.714-0.386,6.1-2.075
			c1.358-1.654,1.218-4.18-0.64-5.414c-2.579-1.712-7.768,0.346-9.93,2.069c-0.117,0.094-1.207,1.178-1.989,1.98
			c0.35-0.548,0.702-1.121,1.048-1.639c1.295-1.95,2.601-3.656,3.77-5.158c0.672-0.848,1.295-1.602,1.887-2.302
			c1.087-0.019,5.467-0.152,7.382-1.051c1.868-0.878,4.005-2.515,4.458-4.652C455.007,265.832,453.718,263.654,451.501,263.415z
			 M417.424,346.104c-1.86,4.281-3.572,7.776-4.801,10.201c-0.248,0.489-0.471,0.921-0.678,1.32h-0.206
			c-0.06-0.473-0.128-0.991-0.208-1.572c-0.375-2.726-0.965-6.611-1.884-11.234c-0.287-1.461-0.623-3.017-0.983-4.612
			c0.362-0.144,2.414-0.974,4.233-1.99c1.584,1.716,5.644,3.724,6.17,3.979C418.514,343.555,417.964,344.871,417.424,346.104z"/>
		<path style="fill:#263238;" d="M435.284,283.105c0.048,0.03,0.988-3.611,1.021-3.848c0.381-2.738-0.492-8.252-3.279-9.598
			c-2.008-0.97-4.253,0.197-4.984,2.207c-0.747,2.053,0.2,4.573,1.322,6.306C430.681,280.207,435.281,283.102,435.284,283.105z"/>
	</g>
</g>
<g id="Ground">
	
		<line style="fill:none;stroke:#263238;stroke-width:2;stroke-linecap:round;stroke-linejoin:round;stroke-miterlimit:10;" x1="56" y1="424.542" x2="451" y2="424.542"/>
</g>
</svg>
